<svg fill="none" height="24" viewBox="0 0 24 24" width="24" xmlns="http://www.w3.org/2000/svg"><path d="M17.553 6.819a13.031 13.031 0 0 0-3.3-1.038 9.666 9.666 0 0 0-.423.878 12.12 12.12 0 0 0-3.659 0 9.378 9.378 0 0 0-.427-.878c-1.16.2-2.268.554-3.304 1.04-2.089 3.157-2.655 6.235-2.372 9.27a13.197 13.197 0 0 0 4.048 2.075c.326-.45.617-.926.867-1.428a8.527 8.527 0 0 1-1.365-.665c.115-.085.227-.173.335-.265 2.632 1.232 5.493 1.232 8.094 0 .11.092.222.18.335.265-.433.26-.891.485-1.368.666.25.501.54.98.867 1.428a13.171 13.171 0 0 0 4.051-2.076c.332-3.518-.568-6.568-2.378-9.272zm-8.21 7.406c-.791 0-1.44-.738-1.44-1.637 0-.898.635-1.637 1.44-1.637.803 0 1.451.738 1.437 1.637.002.899-.634 1.637-1.438 1.637zm5.315 0c-.79 0-1.439-.738-1.439-1.637 0-.898.635-1.637 1.439-1.637s1.452.738 1.438 1.637c0 .899-.634 1.637-1.438 1.637z" fill="#9aa1b0"></path></svg>