<svg fill="none" height="24" viewBox="0 0 24 24" width="24" xmlns="http://www.w3.org/2000/svg"><path clip-rule="evenodd" d="M19 11.646v.749c0 .833.002 1.661-.046 2.495-.055 1.12-.308 2.113-1.13 2.934-.82.82-1.814 1.076-2.935 1.13-.847.048-1.689.047-2.535.046h-.707a44.11 44.11 0 0 1-2.537-.046c-1.12-.054-2.113-.308-2.934-1.13-.82-.82-1.076-1.814-1.13-2.935A44.175 44.175 0 0 1 5 12.354v-.706c0-.846-.002-1.688.046-2.536.054-1.121.308-2.114 1.13-2.935.82-.82 1.814-1.076 2.934-1.13A44.137 44.137 0 0 1 11.646 5h.707c.846 0 1.688-.002 2.536.046 1.121.054 2.114.308 2.935 1.13.82.82 1.075 1.814 1.13 2.935.047.847.046 1.688.046 2.535zM9.664 12c0-1.285 1.049-2.334 2.334-2.334s2.334 1.049 2.334 2.334-1.049 2.334-2.334 2.334S9.664 13.285 9.664 12zm2.334 3.592c-1.987 0-3.592-1.604-3.592-3.592s1.604-3.592 3.592-3.592S15.59 10.012 15.59 12s-1.604 3.592-3.592 3.592zm2.9-7.33a.838.838 0 1 0 1.678 0 .838.838 0 1 0-1.678 0z" fill="#9aa1b0" fill-rule="evenodd"></path></svg>