<svg width="24" height="24" viewBox="0 0 24 24" fill="none" xmlns="http://www.w3.org/2000/svg"><g id="Social/Linkedin"><path id="Vector" d="M7 5C5.89543 5 5 5.89543 5 7V17C5 18.1046 5.89543 19 7 19H17C18.1046 19 19 18.1046 19 17V7C19 5.89543 18.1046 5 17 5H7ZM9.66667 16.0833H7.91667V9.66667H9.66667V16.0833ZM8.79167 8.927C8.22817 8.927 7.77083 8.46617 7.77083 7.898C7.77083 7.32983 8.22817 6.869 8.79167 6.869C9.35517 6.869 9.8125 7.32983 9.8125 7.898C9.8125 8.46617 9.35575 8.927 8.79167 8.927ZM16.6667 16.0833H14.9167V12.8143C14.9167 10.8497 12.5833 10.9984 12.5833 12.8143V16.0833H10.8333V9.66667H12.5833V10.6962C13.3982 9.18775 16.6667 9.07633 16.6667 12.1406V16.0833Z" fill="#9aa1b0"/></g></svg>
