<svg fill="none" height="24" viewBox="0 0 24 24" width="24" xmlns="http://www.w3.org/2000/svg"><clipPath id="a"><path d="M4 7h16v9.125H4z"></path></clipPath><g clip-path="url(#a)"><path d="M8.513 7c2.492 0 4.512 2.034 4.512 4.543 0 2.51-2.02 4.544-4.512 4.544C6.02 16.087 4 14.053 4 11.544 4 9.034 6.02 7 8.513 7zm7.206.266c1.246 0 2.256 1.915 2.256 4.277s-1.01 4.278-2.256 4.278c-1.246 0-2.256-1.916-2.256-4.277 0-2.362 1.01-4.278 2.256-4.278zm3.488.446c.438 0 .793 1.715.793 3.832 0 2.115-.355 3.831-.793 3.831-.439 0-.794-1.715-.794-3.832 0-2.116.355-3.831.794-3.831z" fill="#9aa1b0"></path></g></svg>