<svg fill="none" height="24" viewBox="0 0 24 24" width="24" xmlns="http://www.w3.org/2000/svg"><clipPath id="a"><path d="M4 4h16v16H4z"></path></clipPath><g clip-path="url(#a)"><path clip-rule="evenodd" d="M20 12a8 8 0 1 1-16 0 8 8 0 0 1 16 0zm-2.705.325c.029-.106.043-.215.041-.325a1.167 1.167 0 0 0-1.976-.8 5.676 5.676 0 0 0-2.265-.907 5.687 5.687 0 0 0-.815-.077l.52-2.496 1.712.36a.8.8 0 1 0 .104-.488l-1.96-.392a.25.25 0 0 0-.258.102.247.247 0 0 0-.038.09l-.592 2.776a5.709 5.709 0 0 0-3.12.984 1.167 1.167 0 0 0-1.688 1.61c.11.128.246.231.4.302a2.141 2.141 0 0 0 0 .352c0 1.792 2.088 3.248 4.664 3.248s4.664-1.456 4.664-3.248a2.141 2.141 0 0 0 0-.352 1.166 1.166 0 0 0 .607-.74zm-7.725 1.04a.801.801 0 1 1 1.133-1.133.801.801 0 0 1-1.133 1.134zm4.474 1.51a.216.216 0 0 1-.065.152l.005-.027a3.074 3.074 0 0 1-1.976.616 3.09 3.09 0 0 1-1.53-.336 3.074 3.074 0 0 1-.446-.28.216.216 0 0 1 .304-.304A2.613 2.613 0 0 0 12 15.2a2.625 2.625 0 0 0 1.672-.488.262.262 0 0 1 .159-.056.216.216 0 0 1 .213.219zm.104-1.272a.802.802 0 0 1-.316.061l.008-.032a.8.8 0 1 1 .8-.8.798.798 0 0 1-.492.77z" fill="#9aa1b0" fill-rule="evenodd"></path></g></svg>