<svg fill="none" height="24" viewBox="0 0 24 24" width="24" xmlns="http://www.w3.org/2000/svg"><path clip-rule="evenodd" d="M15.49 17.857a.72.72 0 0 0 .692.094.746.746 0 0 0 .452-.546c.543-2.655 1.86-9.374 2.355-11.789.038-.182-.025-.37-.162-.492s-.328-.157-.498-.091C15.709 6.04 7.638 9.19 4.339 10.46a.538.538 0 0 0-.339.52c.008.23.156.43.37.496 1.48.46 3.422 1.1 3.422 1.1s.908 2.85 1.38 4.3c.06.182.197.325.377.375a.527.527 0 0 0 .507-.135l1.935-1.9s2.233 1.703 3.499 2.64zm-6.881-5.64l1.05 3.6.232-2.28 6.366-5.971a.186.186 0 0 0 .02-.245.173.173 0 0 0-.234-.042l-7.434 4.937z" fill="#9aa1b0" fill-rule="evenodd"></path></svg>