<svg fill="none" height="24" viewBox="0 0 24 24" width="24" xmlns="http://www.w3.org/2000/svg"><path clip-rule="evenodd" d="M17.575 9.415c0-.132-.002-.262-.008-.39A5.9 5.9 0 0 0 19 7.485a5.562 5.562 0 0 1-1.65.452 2.937 2.937 0 0 0 1.262-1.65 5.464 5.464 0 0 1-1.822.703A2.862 2.862 0 0 0 14.693 6c-1.586-.025-2.871 1.314-2.871 2.994 0 .239.025.47.073.695-2.389-.154-4.504-1.397-5.92-3.272-.246.449-.39.974-.39 1.537 0 1.063.507 2.008 1.278 2.567a2.765 2.765 0 0 1-1.3-.398v.039c0 1.486.99 2.732 2.303 3.023a2.705 2.705 0 0 1-1.297.044c.364 1.219 1.427 2.11 2.681 2.138A5.544 5.544 0 0 1 5 16.621 7.742 7.742 0 0 0 9.404 18c5.284 0 8.17-4.596 8.17-8.585z" fill="#9aa1b0" fill-rule="evenodd"></path></svg>