<svg width="25" height="25" viewBox="0 0 32 32" fill="none" xmlns="http://www.w3.org/2000/svg">
  <path fillRule="evenodd" clipRule="evenodd"
    d="M8.08 26.667h15.84a.073.073 0 0 0 .056-.024.072.072 0 0 0 .024-.057V14.252h-5.456a2.748 2.748 0 0 1-2.747-2.748v-6.17H8.081a.074.074 0 0 0-.057.023.074.074 0 0 0-.024.057v21.172a.074.074 0 0 0 .024.057.074.074 0 0 0 .057.024ZM18.67 3.559a2.747 2.747 0 0 0-.576-.478 1.374 1.374 0 0 0-.89-.357 2.747 2.747 0 0 0-.56-.057H8.081a2.747 2.747 0 0 0-2.748 2.747v21.172a2.747 2.747 0 0 0 2.748 2.747h15.838a2.747 2.747 0 0 0 2.748-2.747V13.36c0-.686-.258-1.348-.721-1.855L18.67 3.56Zm-.126 4.086v3.86h3.517l-3.517-3.86ZM11 19.374h10.333v-2.748H11v2.748Zm0 4.808h6.869v-2.748H11v2.748Z"
    fill="#BFC6D0" />
</svg>
