<svg width="25" height="25" viewBox="0 0 32 32" fill="none" xmlns="http://www.w3.org/2000/svg">
  <path fillRule="evenodd" clipRule="evenodd"
    d="M16 5.333C10.109 5.333 5.333 10.11 5.333 16S10.11 26.667 16 26.667 26.667 21.89 26.667 16 21.89 5.333 16 5.333ZM2.667 16C2.667 8.636 8.637 2.667 16 2.667c7.364 0 13.333 5.97 13.333 13.333 0 7.364-5.97 13.333-13.333 13.333-7.364 0-13.333-5.97-13.333-13.333ZM17.6 9.962a1.6 1.6 0 1 1-3.2 0 1.6 1.6 0 0 1 3.2 0ZM13.333 12.8h-1.2v2.4H14.8v5.6h-2.666v2.4h7.733v-2.4H17.2V14a1.2 1.2 0 0 0-1.2-1.2h-2.666Z"
    fill="#356DF3" />
</svg>
