<svg width="25" height="25" viewBox="0 0 32 32" fill="none" xmlns="http://www.w3.org/2000/svg">
  <path fillRule="evenodd" clipRule="evenodd"
    d="M8.709 11.19a7.248 7.248 0 1 1 14.495 0c0 3.34-1.431 4.951-2.677 6.354-.142.16-.28.316-.415.472-.085.099-.154.212-.204.333l-1.362 3.325h-5.145l-1.4-3.335a1.22 1.22 0 0 0-.187-.308 32.612 32.612 0 0 0-.485-.565c-1.214-1.393-2.62-3.008-2.62-6.275Zm7.247-9.686c-5.35 0-9.686 4.337-9.686 9.687 0 4.219 1.983 6.475 3.236 7.899.112.128.22.25.318.365l1.642 3.91c.19.453.634.748 1.125.748h6.773c.495 0 .941-.3 1.129-.758l1.596-3.895c.082-.094.169-.19.259-.291 1.295-1.45 3.295-3.686 3.295-7.978 0-5.35-4.337-9.687-9.687-9.687Zm-4.229 24.92h8.602l-.232 1.404a4.107 4.107 0 0 1-8.085.096l-.285-1.5Z"
    fill="#3AC090" />
</svg>
