<svg width="25" height="25" viewBox="0 0 32 32" fill="none" xmlns="http://www.w3.org/2000/svg">
  <path fillRule="evenodd" clipRule="evenodd"
    d="M13.543 4.046c1.101-1.84 3.813-1.84 4.914 0l11.815 19.742c1.159 1.936-.34 4.212-2.457 4.212H4.185c-2.117 0-3.616-2.276-2.457-4.212L13.543 4.046ZM16 5.333c-.093 0-.143.04-.169.083L4.016 25.158c-.016.027-.016.04-.016.045a.1.1 0 0 0 .016.048.163.163 0 0 0 .058.056.213.213 0 0 0 .11.026h23.631a.214.214 0 0 0 .111-.025.163.163 0 0 0 .058-.057.101.101 0 0 0 .016-.048c0-.005 0-.018-.016-.045L16.169 5.416c-.026-.043-.076-.083-.169-.083Zm1.6 16.633a1.6 1.6 0 1 1-3.2 0 1.6 1.6 0 0 1 3.2 0ZM14.86 10.671a.4.4 0 0 0-.398.433l.6 7.2a.4.4 0 0 0 .398.367h1.104a.4.4 0 0 0 .399-.367l.6-7.2a.4.4 0 0 0-.399-.433h-2.304Z"
    fill="#EEA941" />
</svg>
