<svg width="102" height="34" viewBox="0 0 102 34" fill="none" xmlns="http://www.w3.org/2000/svg">
<path fill-rule="evenodd" clip-rule="evenodd" d="M100.805 26.2114C100.898 26.2114 100.943 26.1441 100.943 26.0654V25.9381C100.943 25.8516 100.894 25.7995 100.805 25.7995H100.452V26.2114H100.805ZM100.45 26.4071V26.8755H100.209V25.6019H100.789C101.045 25.6019 101.19 25.748 101.19 26.0064C101.19 26.2312 101.067 26.3546 100.915 26.3961L101.193 26.8755H100.926L100.666 26.4071H100.45ZM100.583 27.3196C101.261 27.3756 101.807 26.825 101.751 26.1418C101.71 25.6287 101.282 25.1976 100.773 25.155C100.095 25.099 99.5483 25.65 99.6046 26.3336C99.6464 26.8463 100.074 27.2774 100.583 27.3196ZM100.422 24.9319C101.352 24.7536 102.152 25.5606 101.975 26.4976C101.877 27.0174 101.455 27.4432 100.939 27.5414C100.01 27.7191 99.2109 26.9128 99.3867 25.9768C99.4845 25.4567 99.9062 25.0308 100.422 24.9319Z" fill="#356DF3"/>
<path fill-rule="evenodd" clip-rule="evenodd" d="M50.5715 19.503L50.3738 19.563C48.8734 20.0204 47.2185 20.0157 45.7272 19.5502L45.5303 19.4885L47.8798 11.7424C47.9371 11.5537 48.2023 11.5545 48.2586 11.7431L50.5715 19.503ZM45.1927 8.32012L38.6904 27.5662H43.0782L44.4981 22.887L44.6964 22.9483C46.8543 23.616 49.2294 23.6213 51.3848 22.9643L51.5835 22.904L52.9742 27.5662H57.3549L50.8857 8.32437C50.4777 7.10999 49.3473 6.29272 48.0754 6.29272H48.0016C46.7315 6.29272 45.6021 7.10787 45.1927 8.32012Z" fill="#356DF3"/>
<path fill-rule="evenodd" clip-rule="evenodd" d="M90.3325 11.6069H85.6774L81.1325 17.7728V6.29272H77.2041V27.5665H81.1325V19.9104L86.4474 27.5665H90.827L85.0162 19.2988C84.8129 19.0099 84.8231 18.6202 85.0412 18.3422L90.3325 11.6069Z" fill="#356DF3"/>
<path fill-rule="evenodd" clip-rule="evenodd" d="M69.7322 11.6094H63.8268H63.422C61.4759 11.6094 59.8984 13.1996 59.8984 15.1614V27.5691H63.8268V16.0734C63.8268 15.5695 64.2317 15.1614 64.7315 15.1614H68.8276C69.3274 15.1614 69.7322 15.5695 69.7322 16.0734V27.5691H73.6603V15.1614C73.6603 13.1996 72.0832 11.6094 70.1371 11.6094H69.7322Z" fill="#356DF3"/>
<path fill-rule="evenodd" clip-rule="evenodd" d="M101.999 11.6093H97.0602H96.6554C94.7093 11.6093 93.1318 13.1995 93.1318 15.1613V27.569H97.0602V16.0732C97.0602 15.5694 97.4651 15.1613 97.9648 15.1613H101.999V11.6093Z" fill="#356DF3"/>
<path fill-rule="evenodd" clip-rule="evenodd" d="M18.0159 0.532115L29.0501 6.23992C30.6568 7.07137 31.655 8.71869 31.655 10.539V13.1415H27.5863V10.539C27.5863 10.2642 27.435 10.015 27.192 9.88911L16.1585 4.18166C15.9516 4.07494 15.7044 4.07458 15.4969 4.18202L4.46265 9.88911C4.21996 10.015 4.06907 10.2642 4.06907 10.539V13.1415H0V10.539C0 8.71869 0.998187 7.07137 2.6045 6.23992L13.6394 0.532115C15.0094 -0.177372 16.6449 -0.177372 18.0159 0.532115ZM19.3092 16.8264C19.3092 14.8902 17.7469 13.3156 15.8265 13.3156C13.9061 13.3156 12.3438 14.8902 12.3438 16.8264C12.3438 18.762 13.9061 20.3373 15.8265 20.3373C17.7469 20.3373 19.3092 18.762 19.3092 16.8264ZM27.1927 24.1104C27.435 23.9849 27.5863 23.736 27.5863 23.4608V20.858H31.655V23.4608C31.655 25.2812 30.6568 26.9285 29.0508 27.7596L18.0159 33.4674C17.3438 33.8148 16.5869 33.9992 15.8275 33.9992C15.0685 33.9992 14.3112 33.8148 13.6391 33.4674L2.60485 27.7596C0.998187 26.9285 0 25.2812 0 23.4608V20.858H4.06872V23.4608C4.06872 23.736 4.21996 23.9849 4.463 24.1104L13.7931 28.9367V24.1551C10.6146 23.2573 8.27567 20.3123 8.27567 16.8255C8.27567 12.6278 11.6635 9.21265 15.8275 9.21265C19.9915 9.21265 23.3793 12.6278 23.3793 16.8255C23.3793 20.3123 21.0404 23.2573 17.8619 24.1551V28.9371L27.1927 24.1104Z" fill="#356DF3"/>
</svg>
