<svg width="160" height="177" viewBox="0 0 160 177" fill="none" xmlns="http://www.w3.org/2000/svg">
<path d="M160 116.96V144.449C160 145.684 159.177 146.919 157.53 148.154L112.246 174.501C108.952 176.56 103.601 176.56 99.8955 174.501L9.32734 122.219C7.68065 120.984 6.8573 119.749 6.8573 118.514V91.0244C6.8573 89.7894 7.68065 88.5544 9.32734 87.3194L54.6114 60.9722C57.9048 58.9139 63.2566 58.9139 66.55 60.9722L157.118 113.255C159.177 114.49 160 115.725 160 116.96Z" fill="url(#paint0_linear_1_203)"/>
<path d="M160 116.96C160 118.195 159.177 119.43 157.53 120.253L112.246 146.6C108.952 148.659 103.601 148.659 100.307 146.6L9.32734 94.7295C7.68065 93.4945 6.8573 92.2594 6.8573 91.0244C6.8573 89.7894 7.68065 88.5544 9.32734 87.3194L54.6114 60.9722C57.9048 58.9139 63.2566 58.9139 66.55 60.9722L157.118 113.255C159.177 114.49 160 115.725 160 116.96Z" fill="url(#paint1_linear_1_203)"/>
<mask id="mask0_1_203" style="mask-type:alpha" maskUnits="userSpaceOnUse" x="6" y="59" width="154" height="90">
<path d="M160 116.96C160 118.195 159.177 119.43 157.53 120.253L112.246 146.6C108.952 148.659 103.601 148.659 100.307 146.6L9.32734 94.7295C7.68065 93.4945 6.8573 92.2594 6.8573 91.0244C6.8573 89.7894 7.68065 88.5544 9.32734 87.3194L54.6114 60.9722C57.9048 58.9139 63.2566 58.9139 66.55 60.9722L157.118 113.255C159.177 114.49 160 115.725 160 116.96Z" fill="url(#paint2_linear_1_203)"/>
</mask>
<g mask="url(#mask0_1_203)">
<path fill-rule="evenodd" clip-rule="evenodd" d="M50.2859 87.775H22.8574V94.6322L22.8574 94.6322C22.8574 97.7881 28.9975 100.346 36.5717 100.346C44.1459 100.346 50.286 97.7881 50.286 94.6322C50.286 94.6305 50.2859 94.6288 50.2859 94.6272V87.775Z" fill="url(#paint3_linear_1_203)"/>
<path fill-rule="evenodd" clip-rule="evenodd" d="M116.572 126.632H89.1433V133.484C89.1433 133.486 89.1433 133.487 89.1433 133.489C89.1433 136.645 95.2834 139.203 102.858 139.203C110.432 139.203 116.572 136.645 116.572 133.489V126.632Z" fill="url(#paint4_linear_1_203)"/>
<path fill-rule="evenodd" clip-rule="evenodd" d="M82.2859 106.061H54.8574V112.918H54.8574C54.8574 116.074 60.9975 118.632 68.5717 118.632C76.1459 118.632 82.286 116.074 82.286 112.918C82.286 112.916 82.2859 112.914 82.2859 112.913V106.061Z" fill="url(#paint5_linear_1_203)"/>
<path fill-rule="evenodd" clip-rule="evenodd" d="M146.286 110.632H118.857V117.489L118.857 117.489C118.857 120.645 124.997 123.203 132.571 123.203C140.146 123.203 146.286 120.645 146.286 117.489C146.286 117.488 146.286 117.486 146.286 117.484V110.632Z" fill="url(#paint6_linear_1_203)"/>
<path d="M146.286 110.632C146.286 113.788 140.146 116.346 132.571 116.346C124.997 116.346 118.857 113.788 118.857 110.632C118.857 107.476 124.997 104.918 132.571 104.918C140.146 104.918 146.286 107.476 146.286 110.632Z" fill="url(#paint7_linear_1_203)"/>
<path d="M50.2859 87.7751C50.2859 90.931 44.1459 93.4893 36.5717 93.4893C28.9975 93.4893 22.8574 90.931 22.8574 87.7751C22.8574 84.6192 28.9975 82.0608 36.5717 82.0608C44.1459 82.0608 50.2859 84.6192 50.2859 87.7751Z" fill="url(#paint8_linear_1_203)"/>
<path d="M116.572 126.632C116.572 129.788 110.432 132.346 102.858 132.346C95.2834 132.346 89.1433 129.788 89.1433 126.632C89.1433 123.476 95.2834 120.918 102.858 120.918C110.432 120.918 116.572 123.476 116.572 126.632Z" fill="url(#paint9_linear_1_203)"/>
<path d="M82.2859 106.061C82.2859 109.217 76.1459 111.775 68.5717 111.775C60.9975 111.775 54.8574 109.217 54.8574 106.061C54.8574 102.905 60.9975 100.346 68.5717 100.346C76.1459 100.346 82.2859 102.905 82.2859 106.061Z" fill="url(#paint10_linear_1_203)"/>
<g opacity="0.9" filter="url(#filter0_f_1_203)">
<path d="M168.681 111.171C168.681 112.406 167.858 113.641 166.211 114.465L120.927 140.812C117.634 142.87 112.282 142.87 108.989 140.812L18.0087 88.9409C16.362 87.7059 15.5387 86.4709 15.5387 85.2358C15.5387 84.0008 16.362 82.7658 18.0087 81.5308L63.2928 55.1837C66.5862 53.1253 71.938 53.1253 75.2314 55.1837L165.8 107.466C167.858 108.701 168.681 109.936 168.681 111.171Z" fill="#4692F2"/>
</g>
</g>
<path d="M15.6157 103.279C13.9773 102.218 12.646 103.161 12.646 105.284C12.646 107.407 13.9773 110.001 15.5133 111.062C17.0494 112.123 18.483 111.298 18.483 109.175C18.483 107.053 17.1518 104.459 15.6157 103.279Z" fill="white"/>
<path d="M24.2985 109.068C22.66 108.007 21.3287 108.95 21.3287 111.073C21.3287 113.195 22.66 115.789 24.1961 116.851C25.7321 117.912 27.1658 117.086 27.1658 114.964C27.1658 112.841 25.8345 110.247 24.2985 109.068Z" fill="#C5E4FF"/>
<path d="M32.9816 114.856C31.3431 113.795 30.0118 114.738 30.0118 116.861C30.0118 118.984 31.3431 121.578 32.8792 122.639C34.4152 123.7 35.8489 122.875 35.8489 120.752C35.8489 118.63 34.5176 116.036 32.9816 114.856Z" fill="#C5E4FF"/>
<path d="M153.143 57.5314V85.0206C153.143 86.2556 152.319 87.4906 150.673 88.7256L105.388 115.073C102.095 117.131 96.7433 117.131 93.0382 115.073L2.47004 62.7902C0.823347 61.5551 0 60.3201 0 59.0851V31.5959C0 30.3609 0.823347 29.1259 2.47004 27.8909L47.7541 1.54378C51.0475 -0.514592 56.3993 -0.514592 59.6927 1.54378L150.261 53.8263C152.319 55.0613 153.143 56.2964 153.143 57.5314Z" fill="url(#paint11_linear_1_203)"/>
<path d="M153.143 57.5314C153.143 58.7664 152.319 60.0014 150.673 60.8248L105.388 87.1719C102.095 89.2303 96.7433 89.2303 93.4499 87.1719L2.47004 35.301C0.823347 34.066 0 32.831 0 31.596C0 30.3609 0.823347 29.1259 2.47004 27.8909L47.7541 1.54378C51.0475 -0.514592 56.3993 -0.514592 59.6927 1.54378L150.261 53.8263C152.319 55.0613 153.143 56.2964 153.143 57.5314Z" fill="url(#paint12_linear_1_203)"/>
<path d="M147.604 70.0695L107.085 94.0609L107.085 97.5972L147.604 73.6058V70.0695Z" fill="#CCE2FF"/>
<path d="M154.461 130.689L113.942 154.68L113.942 158.217L154.461 134.225V130.689Z" fill="#CCE2FF"/>
<path d="M147.604 78.7521L107.085 102.744V106.28L147.604 82.2884V78.7521Z" fill="#CCE2FF"/>
<path d="M154.461 139.371L113.942 163.363V166.899L154.461 142.908V139.371Z" fill="#CCE2FF"/>
<path d="M8.7583 43.8512C7.11983 42.7899 5.78857 43.7333 5.78857 45.8558C5.78857 47.9784 7.11983 50.5726 8.65589 51.6339C10.192 52.6952 11.6256 51.8698 11.6256 49.7472C11.6256 47.6246 10.2944 45.0304 8.7583 43.8512Z" fill="white"/>
<path d="M17.441 49.6396C15.8026 48.5784 14.4713 49.5217 14.4713 51.6443C14.4713 53.7668 15.8026 56.3611 17.3386 57.4224C18.8747 58.4836 20.3084 57.6582 20.3084 55.5356C20.3084 53.4131 18.9771 50.8188 17.441 49.6396Z" fill="#C5E4FF"/>
<path d="M26.1239 55.4281C24.4854 54.3668 23.1542 55.3102 23.1542 57.4327C23.1542 59.5553 24.4854 62.1495 26.0215 63.2108C27.5576 64.2721 28.9912 63.4467 28.9912 61.3241C28.9912 59.2015 27.66 56.6073 26.1239 55.4281Z" fill="#C5E4FF"/>
<path fill-rule="evenodd" clip-rule="evenodd" d="M43.4285 26.2856H16V33.1428C16 36.2987 22.1401 38.8571 29.7143 38.8571C37.2884 38.8571 43.4285 36.2987 43.4285 33.1428V26.2856Z" fill="url(#paint13_linear_1_203)"/>
<path fill-rule="evenodd" clip-rule="evenodd" d="M109.714 65.1427H82.2857V71.9923C82.2856 71.9948 82.2856 71.9973 82.2856 71.9998C82.2856 75.1557 88.4257 77.7141 95.9999 77.7141C103.574 77.7141 109.714 75.1557 109.714 71.9998V65.1427Z" fill="url(#paint14_linear_1_203)"/>
<path fill-rule="evenodd" clip-rule="evenodd" d="M75.4285 44.5713H48V51.4284C48 54.5843 54.1401 57.1427 61.7143 57.1427C69.2884 57.1427 75.4285 54.5843 75.4285 51.4284V44.5713Z" fill="url(#paint15_linear_1_203)"/>
<path fill-rule="evenodd" clip-rule="evenodd" d="M70.8569 8H43.4284V14.8479C43.4284 14.851 43.4283 14.8541 43.4283 14.8571C43.4283 18.013 49.5684 20.5714 57.1426 20.5714C64.7168 20.5714 70.8569 18.013 70.8569 14.8571V8Z" fill="url(#paint16_linear_1_203)"/>
<path fill-rule="evenodd" clip-rule="evenodd" d="M137.143 46.8571H109.714V53.7142L109.714 53.7142C109.714 56.8701 115.854 59.4285 123.428 59.4285C131.003 59.4285 137.143 56.8701 137.143 53.7142C137.143 53.7116 137.143 53.7089 137.143 53.7063V46.8571Z" fill="url(#paint17_linear_1_203)"/>
<path fill-rule="evenodd" clip-rule="evenodd" d="M102.857 26.2856H75.4284V33.1336C75.4284 33.1366 75.4283 33.1397 75.4283 33.1428C75.4283 36.2987 81.5684 38.8571 89.1426 38.8571C96.7168 38.8571 102.857 36.2987 102.857 33.1428V26.2856Z" fill="url(#paint18_linear_1_203)"/>
<path d="M43.4285 26.2857C43.4285 29.4416 37.2884 32 29.7143 32C22.1401 32 16 29.4416 16 26.2857C16 23.1298 22.1401 20.5714 29.7143 20.5714C37.2884 20.5714 43.4285 23.1298 43.4285 26.2857Z" fill="url(#paint19_linear_1_203)"/>
<path d="M109.714 65.1427C109.714 68.2987 103.574 70.857 95.9999 70.857C88.4257 70.857 82.2856 68.2987 82.2856 65.1427C82.2856 61.9868 88.4257 59.4285 95.9999 59.4285C103.574 59.4285 109.714 61.9868 109.714 65.1427Z" fill="url(#paint20_linear_1_203)"/>
<path d="M75.4285 44.5713C75.4285 47.7272 69.2884 50.2856 61.7143 50.2856C54.1401 50.2856 48 47.7272 48 44.5713C48 41.4154 54.1401 38.8571 61.7143 38.8571C69.2884 38.8571 75.4285 41.4154 75.4285 44.5713Z" fill="url(#paint21_linear_1_203)"/>
<path d="M70.8569 8.00004C70.8569 11.156 64.7168 13.7143 57.1426 13.7143C49.5684 13.7143 43.4283 11.156 43.4283 8.00004C43.4283 4.84414 49.5684 2.28577 57.1426 2.28577C64.7168 2.28577 70.8569 4.84414 70.8569 8.00004Z" fill="url(#paint22_linear_1_203)"/>
<path d="M137.143 46.8571C137.143 50.013 131.003 52.5714 123.428 52.5714C115.854 52.5714 109.714 50.013 109.714 46.8571C109.714 43.7012 115.854 41.1428 123.428 41.1428C131.003 41.1428 137.143 43.7012 137.143 46.8571Z" fill="url(#paint23_linear_1_203)"/>
<path d="M102.857 26.2857C102.857 29.4416 96.7168 32 89.1426 32C81.5684 32 75.4283 29.4416 75.4283 26.2857C75.4283 23.1298 81.5684 20.5714 89.1426 20.5714C96.7168 20.5714 102.857 23.1298 102.857 26.2857Z" fill="url(#paint24_linear_1_203)"/>
<defs>
<filter id="filter0_f_1_203" x="11.5387" y="49.6399" width="161.143" height="96.7157" filterUnits="userSpaceOnUse" color-interpolation-filters="sRGB">
<feFlood flood-opacity="0" result="BackgroundImageFix"/>
<feBlend mode="normal" in="SourceGraphic" in2="BackgroundImageFix" result="shape"/>
<feGaussianBlur stdDeviation="2" result="effect1_foregroundBlur_1_203"/>
</filter>
<linearGradient id="paint0_linear_1_203" x1="-3.27243" y1="146.255" x2="194.981" y2="146.255" gradientUnits="userSpaceOnUse">
<stop stop-color="#84C4FF"/>
<stop offset="0.523427" stop-color="#84C4FF"/>
<stop offset="0.628004" stop-color="#569FF5"/>
<stop offset="1" stop-color="#2F80ED"/>
</linearGradient>
<linearGradient id="paint1_linear_1_203" x1="90.7893" y1="178.091" x2="90.7893" y2="97.0532" gradientUnits="userSpaceOnUse">
<stop stop-color="#E6F0FF"/>
<stop offset="0.0001" stop-color="#DEECFF"/>
<stop offset="1" stop-color="#80B6FF"/>
</linearGradient>
<linearGradient id="paint2_linear_1_203" x1="83.4286" y1="59.4285" x2="83.4286" y2="148.144" gradientUnits="userSpaceOnUse">
<stop stop-color="#D9ECFF"/>
<stop offset="1" stop-color="#F3F9FF"/>
</linearGradient>
<linearGradient id="paint3_linear_1_203" x1="21.0431" y1="96.7819" x2="56.5512" y2="96.7819" gradientUnits="userSpaceOnUse">
<stop stop-color="#B5DBFF"/>
<stop offset="0.391178" stop-color="#84C4FF"/>
<stop offset="0.493459" stop-color="#569FF5"/>
<stop offset="1" stop-color="#2F80ED"/>
</linearGradient>
<linearGradient id="paint4_linear_1_203" x1="87.329" y1="135.639" x2="122.837" y2="135.639" gradientUnits="userSpaceOnUse">
<stop stop-color="#B5DBFF"/>
<stop offset="0.391178" stop-color="#84C4FF"/>
<stop offset="0.493459" stop-color="#569FF5"/>
<stop offset="1" stop-color="#2F80ED"/>
</linearGradient>
<linearGradient id="paint5_linear_1_203" x1="53.0431" y1="115.068" x2="88.5512" y2="115.068" gradientUnits="userSpaceOnUse">
<stop stop-color="#B5DBFF"/>
<stop offset="0.391178" stop-color="#84C4FF"/>
<stop offset="0.493459" stop-color="#569FF5"/>
<stop offset="1" stop-color="#2F80ED"/>
</linearGradient>
<linearGradient id="paint6_linear_1_203" x1="117.043" y1="119.639" x2="152.551" y2="119.639" gradientUnits="userSpaceOnUse">
<stop stop-color="#B5DBFF"/>
<stop offset="0.391178" stop-color="#84C4FF"/>
<stop offset="0.493459" stop-color="#569FF5"/>
<stop offset="1" stop-color="#2F80ED"/>
</linearGradient>
<linearGradient id="paint7_linear_1_203" x1="118.857" y1="106.223" x2="140.121" y2="123.28" gradientUnits="userSpaceOnUse">
<stop stop-color="#E6F0FF"/>
<stop offset="1" stop-color="#80B6FF"/>
</linearGradient>
<linearGradient id="paint8_linear_1_203" x1="22.8574" y1="83.3663" x2="44.1215" y2="100.422" gradientUnits="userSpaceOnUse">
<stop stop-color="#E6F0FF"/>
<stop offset="1" stop-color="#80B6FF"/>
</linearGradient>
<linearGradient id="paint9_linear_1_203" x1="89.1433" y1="122.223" x2="110.407" y2="139.28" gradientUnits="userSpaceOnUse">
<stop stop-color="#E6F0FF"/>
<stop offset="1" stop-color="#80B6FF"/>
</linearGradient>
<linearGradient id="paint10_linear_1_203" x1="54.8574" y1="101.652" x2="76.1215" y2="118.708" gradientUnits="userSpaceOnUse">
<stop stop-color="#E6F0FF"/>
<stop offset="1" stop-color="#80B6FF"/>
</linearGradient>
<linearGradient id="paint11_linear_1_203" x1="-10.1297" y1="86.8262" x2="188.124" y2="86.8262" gradientUnits="userSpaceOnUse">
<stop stop-color="#84C4FF"/>
<stop offset="0.523427" stop-color="#84C4FF"/>
<stop offset="0.628004" stop-color="#569FF5"/>
<stop offset="1" stop-color="#2F80ED"/>
</linearGradient>
<linearGradient id="paint12_linear_1_203" x1="-2.81535e-06" y1="10.1344" x2="146.386" y2="94.5881" gradientUnits="userSpaceOnUse">
<stop stop-color="#E6F0FF"/>
<stop offset="1" stop-color="#80B6FF"/>
</linearGradient>
<linearGradient id="paint13_linear_1_203" x1="14.1857" y1="35.2926" x2="49.6938" y2="35.2926" gradientUnits="userSpaceOnUse">
<stop stop-color="#B5DBFF"/>
<stop offset="0.391178" stop-color="#84C4FF"/>
<stop offset="0.493459" stop-color="#569FF5"/>
<stop offset="1" stop-color="#2F80ED"/>
</linearGradient>
<linearGradient id="paint14_linear_1_203" x1="80.4714" y1="74.1496" x2="115.979" y2="74.1496" gradientUnits="userSpaceOnUse">
<stop stop-color="#B5DBFF"/>
<stop offset="0.391178" stop-color="#84C4FF"/>
<stop offset="0.493459" stop-color="#569FF5"/>
<stop offset="1" stop-color="#2F80ED"/>
</linearGradient>
<linearGradient id="paint15_linear_1_203" x1="46.1857" y1="53.5782" x2="81.6938" y2="53.5782" gradientUnits="userSpaceOnUse">
<stop stop-color="#B5DBFF"/>
<stop offset="0.391178" stop-color="#84C4FF"/>
<stop offset="0.493459" stop-color="#569FF5"/>
<stop offset="1" stop-color="#2F80ED"/>
</linearGradient>
<linearGradient id="paint16_linear_1_203" x1="41.6141" y1="17.0069" x2="77.1221" y2="17.0069" gradientUnits="userSpaceOnUse">
<stop stop-color="#B5DBFF"/>
<stop offset="0.391178" stop-color="#84C4FF"/>
<stop offset="0.493459" stop-color="#569FF5"/>
<stop offset="1" stop-color="#2F80ED"/>
</linearGradient>
<linearGradient id="paint17_linear_1_203" x1="107.9" y1="55.864" x2="143.408" y2="55.864" gradientUnits="userSpaceOnUse">
<stop stop-color="#B5DBFF"/>
<stop offset="0.391178" stop-color="#84C4FF"/>
<stop offset="0.493459" stop-color="#569FF5"/>
<stop offset="1" stop-color="#2F80ED"/>
</linearGradient>
<linearGradient id="paint18_linear_1_203" x1="73.6141" y1="35.2926" x2="109.122" y2="35.2926" gradientUnits="userSpaceOnUse">
<stop stop-color="#B5DBFF"/>
<stop offset="0.391178" stop-color="#84C4FF"/>
<stop offset="0.493459" stop-color="#569FF5"/>
<stop offset="1" stop-color="#2F80ED"/>
</linearGradient>
<linearGradient id="paint19_linear_1_203" x1="16" y1="21.877" x2="37.2641" y2="38.9331" gradientUnits="userSpaceOnUse">
<stop stop-color="#E6F0FF"/>
<stop offset="1" stop-color="#80B6FF"/>
</linearGradient>
<linearGradient id="paint20_linear_1_203" x1="82.2856" y1="60.734" x2="103.55" y2="77.7901" gradientUnits="userSpaceOnUse">
<stop stop-color="#E6F0FF"/>
<stop offset="1" stop-color="#80B6FF"/>
</linearGradient>
<linearGradient id="paint21_linear_1_203" x1="48" y1="40.1626" x2="69.2641" y2="57.2187" gradientUnits="userSpaceOnUse">
<stop stop-color="#E6F0FF"/>
<stop offset="1" stop-color="#80B6FF"/>
</linearGradient>
<linearGradient id="paint22_linear_1_203" x1="43.4283" y1="3.59131" x2="64.6925" y2="20.6474" gradientUnits="userSpaceOnUse">
<stop stop-color="#E6F0FF"/>
<stop offset="1" stop-color="#80B6FF"/>
</linearGradient>
<linearGradient id="paint23_linear_1_203" x1="109.714" y1="42.4484" x2="130.978" y2="59.5045" gradientUnits="userSpaceOnUse">
<stop stop-color="#E6F0FF"/>
<stop offset="1" stop-color="#80B6FF"/>
</linearGradient>
<linearGradient id="paint24_linear_1_203" x1="75.4283" y1="21.877" x2="96.6925" y2="38.9331" gradientUnits="userSpaceOnUse">
<stop stop-color="#E6F0FF"/>
<stop offset="1" stop-color="#80B6FF"/>
</linearGradient>
</defs>
</svg>
