<svg width="68" height="85" viewBox="0 0 68 85" fill="none" xmlns="http://www.w3.org/2000/svg">
<path opacity="0.5" d="M19.0268 5.40035C20.5788 2.20583 24.1916 0.576338 27.6135 1.52745L48.1687 7.2408C50.4159 7.8654 52.2337 9.51863 53.0681 11.6966L65.6345 44.4969C66.3625 46.3971 66.2709 48.5141 65.3814 50.3443L54.4488 72.8386C52.8965 76.0325 49.284 77.6615 45.8625 76.7105L25.3061 70.9968C23.0591 70.3723 21.2415 68.7194 20.4069 66.5417L7.8409 33.7516C7.11274 31.8515 7.20414 29.7347 8.09334 27.9045L19.0268 5.40035Z" fill="url(#paint0_linear_1_312)"/>
<path opacity="0.5" fill-rule="evenodd" clip-rule="evenodd" d="M47.8404 8.42206L27.2852 2.70871C24.4336 1.91612 21.4229 3.27403 20.1296 5.93613L9.19612 28.4402C8.45512 29.9654 8.37896 31.7294 8.98575 33.3128L21.5518 66.103C22.2472 67.9177 23.762 69.2951 25.6344 69.8156L46.1909 75.5293C49.0421 76.3218 52.0525 74.9643 53.3461 72.3026L64.2787 49.8084C65.0199 48.2832 65.0963 46.5191 64.4896 44.9355L51.9232 12.1352C51.2278 10.3203 49.713 8.94256 47.8404 8.42206ZM27.6135 1.52745C24.1916 0.576338 20.5788 2.20583 19.0268 5.40035L8.09334 27.9045C7.20414 29.7347 7.11274 31.8515 7.8409 33.7516L20.4069 66.5417C21.2415 68.7194 23.0591 70.3723 25.3061 70.9968L45.8625 76.7105C49.284 77.6616 52.8965 76.0325 54.4488 72.8386L65.3814 50.3443C66.2709 48.5141 66.3625 46.3972 65.6345 44.4969L53.0681 11.6966C52.2337 9.51863 50.4159 7.8654 48.1687 7.2408L27.6135 1.52745Z" fill="url(#paint1_linear_1_312)"/>
<path d="M6.25974 21.1357C7.51184 18.5647 13.442 17.2425 16.1978 18.0066L24.8692 20.4111C26.6807 20.9135 28.1468 22.2449 28.8208 23.9999L34.9878 40.0587C35.5772 41.5935 35.503 43.3041 34.783 44.7821L29.9254 54.7533C28.673 57.3239 20.1837 59.3481 19.109 58.6951L14.3368 55.4659C12.5255 54.9637 11.0595 53.6324 10.3855 51.8777L4.21874 35.8242C3.62923 34.2895 3.7032 32.579 4.42299 31.101L6.25974 21.1357Z" fill="url(#paint2_linear_1_312)"/>
<path d="M4.81012 23.1794C6.36326 19.9902 9.97115 18.3636 13.3895 19.3115L20.225 21.207C22.4721 21.8301 24.2907 23.4817 25.1266 25.6585L30.8139 40.4681C31.545 42.3718 31.453 44.4937 30.5599 46.327L26.4932 54.6745C24.9398 57.8632 21.3323 59.4893 17.9143 58.5416L11.0775 56.6458C8.83065 56.0227 7.01221 54.3714 6.17612 52.1949L0.489227 37.3905C-0.242015 35.4869 -0.150264 33.3651 0.742581 31.5317L4.81012 23.1794Z" fill="url(#paint3_linear_1_312)"/>
<path d="M36.9018 3.34446C38.1539 0.773396 44.0841 -0.548791 46.8399 0.215361L55.5113 2.61988C57.3228 3.12221 58.7889 4.45367 59.4629 6.2086L65.6299 22.2675C66.2193 23.8022 66.1451 25.5128 65.4251 26.9908L60.5674 36.962C59.3151 39.5326 50.8364 41.5705 49.7511 40.9038L44.9789 37.6747C43.1676 37.1724 41.7016 35.8411 41.0276 34.0865L34.8608 18.0329C34.2713 16.4983 34.3453 14.7878 35.0651 13.3098L36.9018 3.34446Z" fill="url(#paint4_linear_1_312)"/>
<path d="M35.4512 5.38819C37.0044 2.19897 40.6123 0.572382 44.0306 1.52026L50.8661 3.41571C53.1132 4.03881 54.9318 5.6904 55.7678 7.86726L61.455 22.6768C62.1861 24.5806 62.0941 26.7024 61.201 28.5358L57.1343 36.8833C55.5809 40.0719 51.9734 41.6981 48.5554 40.7503L41.7186 38.8545C39.4718 38.2315 37.6533 36.5802 36.8172 34.4036L31.1303 19.5992C30.3991 17.6956 30.4908 15.5739 31.3837 13.7405L35.4512 5.38819Z" fill="url(#paint5_linear_1_312)"/>
<path d="M38.8777 46.8332C40.1298 44.2622 46.06 42.94 48.8157 43.7041L57.4871 46.1087C59.2987 46.611 60.7647 47.9424 61.4387 49.6974L67.6057 65.7562C68.1951 67.291 68.121 69.0016 67.4009 70.4796L62.5433 80.4508C61.291 83.0214 53.2873 85.0941 51.7269 84.3926L46.9548 81.1634C45.1434 80.6612 43.6774 79.3299 43.0034 77.5752L36.8367 61.5217C36.2472 59.987 36.3211 58.2765 37.0409 56.7985L38.8777 46.8332Z" fill="url(#paint6_linear_1_312)"/>
<path d="M37.4271 48.877C38.9802 45.6877 42.5881 44.0612 46.0064 45.009L52.842 46.9045C55.089 47.5276 56.9076 49.1792 57.7436 51.356L63.4309 66.1656C64.162 68.0693 64.07 70.1912 63.1768 72.0246L59.1102 80.3721C57.5567 83.5607 53.9492 85.1868 50.5313 84.2391L43.6944 82.3433C41.4476 81.7202 39.6292 80.0689 38.7931 77.8924L33.1062 63.088C32.3749 61.1844 32.4667 59.0626 33.3595 57.2293L37.4271 48.877Z" fill="url(#paint7_linear_1_312)"/>
<path d="M43.3907 20.9659C44.0537 21.6553 44.8948 22.1522 45.8246 22.4037C46.632 22.6204 47.4952 22.5287 48.2435 22.1467C50.6898 23.9426 52.5308 27.3131 52.8881 30.9117C52.8955 30.9551 52.8936 30.9995 52.8824 31.0422C52.8713 31.0849 52.8512 31.1249 52.8235 31.1596C52.8021 31.1899 52.7719 31.213 52.737 31.2258C52.7021 31.2386 52.6641 31.2406 52.6283 31.2313L46.0412 29.59L39.2267 27.8792C39.0472 27.8212 38.9445 27.6163 38.9642 27.4297C39.213 24.0188 40.9761 21.5514 43.3907 20.9659Z" fill="white"/>
<path d="M45.6281 10.8845C47.7224 11.4061 49.452 14.0792 49.4892 16.866C49.5263 19.6528 47.8564 21.4671 45.7626 20.9756C43.6687 20.484 41.9386 17.7735 41.9016 15.0016C41.8647 12.2298 43.5339 10.363 45.6281 10.8845Z" fill="white"/>
<path d="M12.9292 38.8765C13.5922 39.5658 14.4334 40.0627 15.3632 40.3142C16.1706 40.531 17.0337 40.4392 17.7821 40.0572C20.2284 41.8531 22.0693 45.2236 22.4267 48.8223C22.4341 48.8656 22.4321 48.91 22.421 48.9528C22.4099 48.9955 22.3898 49.0355 22.3621 49.0702C22.3407 49.1004 22.3105 49.1235 22.2756 49.1363C22.2407 49.1492 22.2027 49.1511 22.1669 49.1419L15.5797 47.5005L8.76531 45.7897C8.58579 45.7317 8.4831 45.5269 8.50275 45.3402C8.75158 41.9293 10.5147 39.462 12.9292 38.8765Z" fill="url(#paint8_linear_1_312)"/>
<path d="M15.1667 28.7948C17.2609 29.3163 18.9906 31.9894 19.0277 34.7763C19.0648 37.5631 17.3949 39.3774 15.3011 38.8859C13.2073 38.3943 11.4771 35.6837 11.4402 32.9119C11.4033 30.14 13.0724 28.2733 15.1667 28.7948Z" fill="url(#paint9_linear_1_312)"/>
<path d="M45.5474 64.5751C46.2104 65.2644 47.0515 65.7613 47.9814 66.0128C48.7887 66.2296 49.6519 66.1378 50.4003 65.7558C52.8466 67.5517 54.6875 70.9222 55.0449 74.5209C55.0522 74.5642 55.0503 74.6087 55.0392 74.6514C55.028 74.6941 55.008 74.7341 54.9803 74.7688C54.9589 74.799 54.9287 74.8221 54.8937 74.8349C54.8588 74.8478 54.8209 74.8497 54.785 74.8405L48.1979 73.1991L41.3835 71.4883C41.204 71.4303 41.1013 71.2255 41.1209 71.0388C41.3697 67.6279 43.1329 65.1606 45.5474 64.5751Z" fill="white"/>
<path d="M47.7832 54.4937C49.8774 55.0152 51.6071 57.6883 51.6442 60.4751C51.6813 63.262 50.0114 65.0763 47.9176 64.5847C45.8237 64.0932 44.0936 61.3826 44.0567 58.6107C44.0197 55.8389 45.6889 53.9721 47.7832 54.4937Z" fill="white"/>
<defs>
<linearGradient id="paint0_linear_1_312" x1="36.7375" y1="-0.0969731" x2="36.7375" y2="94.2359" gradientUnits="userSpaceOnUse">
<stop stop-color="#F9FCFF"/>
<stop offset="1" stop-color="#D8E9FF"/>
</linearGradient>
<linearGradient id="paint1_linear_1_312" x1="25.0902" y1="1.72456" x2="50.2241" y2="78.3523" gradientUnits="userSpaceOnUse">
<stop stop-color="#B1D3FF"/>
<stop offset="1" stop-color="#3080EE"/>
</linearGradient>
<linearGradient id="paint2_linear_1_312" x1="20.8795" y1="11.2785" x2="46.9689" y2="68.4705" gradientUnits="userSpaceOnUse">
<stop stop-color="#BFE0FF"/>
<stop offset="0.184546" stop-color="#EBF5FF"/>
<stop offset="0.448898" stop-color="#A2CDFB"/>
<stop offset="0.63915" stop-color="#2F80ED"/>
</linearGradient>
<linearGradient id="paint3_linear_1_312" x1="15.6513" y1="17.6852" x2="15.6513" y2="68.7804" gradientUnits="userSpaceOnUse">
<stop stop-color="#E6F0FF"/>
<stop offset="1" stop-color="#80B6FF"/>
</linearGradient>
<linearGradient id="paint4_linear_1_312" x1="51.5216" y1="-6.51278" x2="77.611" y2="50.6792" gradientUnits="userSpaceOnUse">
<stop stop-color="#BFE0FF"/>
<stop offset="0.184546" stop-color="#EBF5FF"/>
<stop offset="0.448898" stop-color="#A2CDFB"/>
<stop offset="0.63915" stop-color="#2F80ED"/>
</linearGradient>
<linearGradient id="paint5_linear_1_312" x1="46.2924" y1="-0.106044" x2="46.2924" y2="50.9891" gradientUnits="userSpaceOnUse">
<stop stop-color="#E6F0FF"/>
<stop offset="1" stop-color="#80B6FF"/>
</linearGradient>
<linearGradient id="paint6_linear_1_312" x1="53.4974" y1="36.976" x2="79.5868" y2="94.168" gradientUnits="userSpaceOnUse">
<stop stop-color="#BFE0FF"/>
<stop offset="0.184546" stop-color="#EBF5FF"/>
<stop offset="0.448898" stop-color="#A2CDFB"/>
<stop offset="0.63915" stop-color="#2F80ED"/>
</linearGradient>
<linearGradient id="paint7_linear_1_312" x1="48.2683" y1="43.3827" x2="48.2683" y2="94.4779" gradientUnits="userSpaceOnUse">
<stop stop-color="#E6F0FF"/>
<stop offset="1" stop-color="#80B6FF"/>
</linearGradient>
<linearGradient id="paint8_linear_1_312" x1="15.8943" y1="37.1557" x2="20.5606" y2="53.4124" gradientUnits="userSpaceOnUse">
<stop stop-color="#9ED0FF"/>
<stop offset="0.63915" stop-color="#2F80ED"/>
</linearGradient>
<linearGradient id="paint9_linear_1_312" x1="15.4495" y1="27.0613" x2="22.3841" y2="40.9184" gradientUnits="userSpaceOnUse">
<stop stop-color="#9ED0FF"/>
<stop offset="0.63915" stop-color="#2F80ED"/>
</linearGradient>
</defs>
</svg>
