<svg width="243" height="244" viewBox="0 -50 243 244" fill="none" xmlns="http://www.w3.org/2000/svg">
<g filter="url(#filter0_f_0_1)">
<path d="M187.839 148.296L127.777 113.54C124.231 111.47 118.542 111.47 115.07 113.54L55.3033 148.296C51.831 150.367 51.831 153.62 55.3771 155.691L115.439 190.447C118.986 192.518 124.674 192.518 128.146 190.447L187.913 155.691C191.385 153.694 191.385 150.367 187.839 148.296Z" fill="url(#paint0_linear_0_1)" fill-opacity="0.71"/>
</g>
<path d="M177.84 101.697L126.112 71.4145C123.053 69.6815 118.195 69.6815 115.136 71.4145L63.8572 101.697C60.7985 103.43 60.8885 106.349 63.8572 108.173L115.496 138.456C118.555 140.189 123.413 140.189 126.471 138.456L177.84 108.173C180.899 106.349 180.899 103.43 177.84 101.697Z" fill="url(#paint1_linear_0_1)"/>
<path fill-rule="evenodd" clip-rule="evenodd" d="M128.757 60.151L198.35 100.416C202.459 102.815 202.459 106.67 198.436 108.984L129.185 149.249C125.161 151.648 118.57 151.648 114.461 149.249L44.8672 108.984C40.7583 106.585 40.7583 102.815 44.7816 100.416L114.033 60.151C118.056 57.7522 124.648 57.7522 128.757 60.151ZM126.314 73.1449L175.534 101.588C178.445 103.215 178.445 105.957 175.534 107.67L126.656 136.113C123.746 137.741 119.123 137.741 116.213 136.113L67.0774 107.67C64.2526 105.957 64.167 103.215 67.0774 101.588L115.87 73.1449C118.781 71.5172 123.403 71.5172 126.314 73.1449Z" fill="url(#paint2_linear_0_1)"/>
<path d="M201.237 145.7C201.237 145.615 201.237 145.615 201.237 145.529V104.3H184.276L128.644 142.177C124.54 139.784 117.956 139.784 113.937 142.177L58.1381 104.3H41.7721V145.529V145.871C41.9431 147.324 42.8836 148.691 44.8502 149.802L114.365 189.967C118.469 192.36 125.053 192.36 129.072 189.967L198.159 149.802C200.04 148.691 201.066 147.324 201.152 145.871L201.237 145.7Z" fill="url(#paint3_linear_0_1)"/>
<path d="M198.243 129.097L129.119 169.537C125.098 171.946 118.425 171.946 114.404 169.537L44.8521 129.097C42.97 127.978 41.9434 126.602 41.7723 125.139V126.429C41.7723 126.429 41.7723 126.429 41.7723 126.515V126.774C41.9434 128.236 42.8845 129.613 44.8521 130.732L114.404 171.171C118.511 173.581 125.098 173.581 129.119 171.171L198.243 130.732C200.125 129.613 201.152 128.236 201.237 126.774V126.515C201.237 126.429 201.237 126.429 201.237 126.343V125.139C201.066 126.515 200.125 127.978 198.243 129.097Z" fill="#76B1FF"/>
<path d="M198.243 127.773L129.119 168.213C125.098 170.622 118.425 170.622 114.404 168.213L44.852 127.773C42.9699 126.655 41.9433 125.278 41.7722 123.815V125.106C41.7722 125.106 41.7722 125.106 41.7722 125.192V125.45C41.9433 126.913 42.8844 128.29 44.852 129.408L114.404 169.848C118.51 172.257 125.098 172.257 129.119 169.848L198.243 129.408C200.125 128.29 201.152 126.913 201.237 125.45V125.192C201.237 125.106 201.237 125.106 201.237 125.02V123.815C201.066 125.192 200.125 126.655 198.243 127.773Z" fill="url(#paint4_linear_0_1)"/>
<mask id="mask0_0_1" style="mask-type:alpha" maskUnits="userSpaceOnUse" x="29" y="103" width="186" height="59">
<path d="M29 103.857H214.215V161.337H29V103.857Z" fill="#E6F0FF"/>
</mask>
<g mask="url(#mask0_0_1)">
<path fill-rule="evenodd" clip-rule="evenodd" d="M128.757 60.1497L198.35 100.415C202.459 102.814 202.459 106.669 198.436 108.982L129.185 149.248C125.161 151.646 118.57 151.646 114.461 149.248L44.8672 108.982C40.7583 106.583 40.7583 102.814 44.7816 100.415L114.033 60.1497C118.056 57.7509 124.648 57.7509 128.757 60.1497ZM126.314 73.1435L175.534 101.586C178.445 103.214 178.445 105.956 175.534 107.669L126.656 136.112C123.746 137.74 119.123 137.74 116.213 136.112L67.0775 107.669C64.2526 105.956 64.167 103.214 67.0775 101.586L115.87 73.1435C118.781 71.5158 123.403 71.5158 126.314 73.1435Z" fill="url(#paint5_linear_0_1)"/>
</g>
<path d="M154.055 67.1929L154.044 67.8161C154.037 68.2056 154.03 68.5951 154.023 68.9846C153.068 97.1772 137.112 114.042 117.962 106.851C117.962 106.851 117.962 106.851 117.869 106.849L117.777 106.847C98.4466 99.3408 83.2958 70.0879 83.7989 41.264L83.8016 41.1082C84.3987 12.208 100.549 -5.19929 119.975 2.15313C139.216 9.42441 154.371 38.4437 154.055 67.1929Z" fill="url(#paint6_linear_0_1)"/>
<path fill-rule="evenodd" clip-rule="evenodd" d="M117.962 106.851C137.112 114.042 153.068 97.1772 154.023 68.9846L154.055 67.1929C154.371 38.4437 139.216 9.42441 119.975 2.15313C100.549 -5.19929 84.3987 12.208 83.8016 41.1082L83.7989 41.264C83.298 69.9588 98.3113 99.0789 117.517 106.745C117.604 106.78 117.69 106.814 117.777 106.847L117.962 106.851ZM117.971 106.348L117.962 106.851L118.906 104.338C127.431 107.54 135.08 105.429 140.87 99.3376C146.78 93.1188 150.873 82.5734 151.34 68.9156L151.371 67.1547C151.522 53.2395 147.924 39.2374 141.971 27.8636C135.988 16.4343 127.807 7.98232 119.026 4.66409C110.38 1.39175 102.626 3.5805 96.7948 9.86222C90.8381 16.2787 86.7759 27.1391 86.4854 41.1594L86.4828 41.3108C86.2393 55.2617 89.7904 69.342 95.7338 80.815C101.704 92.3401 109.912 100.914 118.748 104.345L117.971 106.348Z" fill="url(#paint7_linear_0_1)" fill-opacity="0.26"/>
<path d="M117.915 17.0622C118.347 17.1862 118.739 17.4143 119.053 17.7249C119.368 18.0356 119.595 18.4186 119.713 18.8377C120.041 19.8484 120.201 20.9033 120.186 21.9631L120.315 25.6352C122.491 26.5309 124.477 27.8041 126.175 29.3914C128.356 31.2868 129.666 33.9394 129.817 36.768C129.944 40.3901 128.744 41.8191 126.181 41.0061C124.951 40.5108 123.809 39.8348 122.795 39.0019C121.784 38.1609 120.641 37.4789 119.409 36.981C118.959 36.7996 118.469 36.7288 117.982 36.7749C117.496 36.8211 117.029 36.9827 116.623 37.2454C116.152 37.6477 115.793 38.1587 115.583 38.7303C115.372 39.3019 115.315 39.9153 115.418 40.5129C115.427 41.4028 115.617 42.282 115.977 43.1005C116.7 44.4524 117.725 45.6324 118.98 46.5554C120.168 47.4386 121.327 48.334 122.458 49.2415C129.461 54.9019 133.094 61.6605 133.356 69.5172C133.531 74.5247 132.59 78.3847 130.531 81.0803C129.661 82.3401 128.428 83.3288 126.984 83.9254C125.54 84.5221 123.948 84.7006 122.403 84.4392L122.585 89.6637C122.687 92.5681 122.036 93.8109 120.631 93.3586C119.227 92.9062 118.474 91.2446 118.372 88.3235L118.197 83.316C115.046 81.9744 112.256 79.9569 110.041 77.4173C108.351 75.5847 107.316 73.2786 107.086 70.8357C106.974 70.1628 107.006 69.4747 107.18 68.8134C107.354 68.1522 107.666 67.5317 108.097 66.9899C108.483 66.624 108.975 66.3786 109.507 66.2854C110.04 66.1923 110.588 66.2558 111.082 66.4679C112.544 67.1655 113.901 68.0515 115.115 69.1013C116.645 70.3853 118.396 71.4041 120.289 72.1126C120.783 72.2938 121.322 72.3285 121.838 72.2122C122.354 72.096 122.822 71.834 123.182 71.46C123.612 70.9411 123.931 70.3457 124.12 69.7079C124.309 69.0702 124.365 68.403 124.285 67.7449C124.299 65.7653 123.62 63.8405 122.358 62.2805C120.893 60.6754 119.26 59.2203 117.485 57.9384C114.561 55.8384 111.995 53.3118 109.88 50.4495C107.605 46.9178 106.376 42.852 106.328 38.6912C105.953 34.9646 106.853 31.219 108.889 28.023C109.683 26.895 110.764 25.9813 112.028 25.3695C113.292 24.7577 114.698 24.4681 116.11 24.5287L115.971 20.5394C115.803 17.7376 116.456 16.5449 117.915 17.0622Z" fill="url(#paint8_linear_0_1)"/>
<defs>
<filter id="filter0_f_0_1" x="0.708252" y="59.9872" width="241.8" height="184.013" filterUnits="userSpaceOnUse" color-interpolation-filters="sRGB">
<feFlood flood-opacity="0" result="BackgroundImageFix"/>
<feBlend mode="normal" in="SourceGraphic" in2="BackgroundImageFix" result="shape"/>
<feGaussianBlur stdDeviation="26" result="effect1_foregroundBlur_0_1"/>
</filter>
<linearGradient id="paint0_linear_0_1" x1="121.608" y1="111.987" x2="121.608" y2="200.882" gradientUnits="userSpaceOnUse">
<stop stop-color="#8CC9FF"/>
<stop offset="0.980943" stop-color="#1C73DB"/>
</linearGradient>
<linearGradient id="paint1_linear_0_1" x1="44.3969" y1="98.5891" x2="206.327" y2="98.5891" gradientUnits="userSpaceOnUse">
<stop stop-color="#0454BD"/>
<stop offset="0.488564" stop-color="#3A9AFF"/>
<stop offset="1" stop-color="#0454BD"/>
</linearGradient>
<linearGradient id="paint2_linear_0_1" x1="121.609" y1="58.3726" x2="121.609" y2="169.812" gradientUnits="userSpaceOnUse">
<stop stop-color="#E6F0FF"/>
<stop offset="1" stop-color="#80B6FF"/>
</linearGradient>
<linearGradient id="paint3_linear_0_1" x1="121.505" y1="84.7693" x2="121.505" y2="191.762" gradientUnits="userSpaceOnUse">
<stop stop-color="#84C4FF"/>
<stop offset="1" stop-color="#2F80ED"/>
</linearGradient>
<linearGradient id="paint4_linear_0_1" x1="121.505" y1="133.137" x2="121.505" y2="178.121" gradientUnits="userSpaceOnUse">
<stop stop-color="#0F65D9"/>
<stop offset="1" stop-color="#0085FF"/>
</linearGradient>
<linearGradient id="paint5_linear_0_1" x1="121.609" y1="58.3713" x2="121.609" y2="169.811" gradientUnits="userSpaceOnUse">
<stop stop-color="#E6F0FF"/>
<stop offset="1" stop-color="#80B6FF"/>
</linearGradient>
<linearGradient id="paint6_linear_0_1" x1="117.782" y1="119.786" x2="120.062" y2="-10.8086" gradientUnits="userSpaceOnUse">
<stop stop-color="#F9FCFF" stop-opacity="0.63"/>
<stop offset="1" stop-color="#BEE0FF" stop-opacity="0"/>
</linearGradient>
<linearGradient id="paint7_linear_0_1" x1="119.863" y1="0.616798" x2="117.982" y2="108.361" gradientUnits="userSpaceOnUse">
<stop stop-color="#B6D6FF"/>
<stop offset="1" stop-color="#99C5FF"/>
</linearGradient>
<linearGradient id="paint8_linear_0_1" x1="119.03" y1="7.1289" x2="183.375" y2="66.0695" gradientUnits="userSpaceOnUse">
<stop stop-color="#8BC7FF"/>
<stop offset="1" stop-color="#1271F1"/>
</linearGradient>
</defs>
</svg>
