<svg width="219" height="210" viewBox="0 0 219 210" fill="none" xmlns="http://www.w3.org/2000/svg">
<g filter="url(#filter0_f_1_49)">
<path d="M139.736 75.17L100.837 53.3019C98.5408 51.9991 94.8567 51.9991 92.6079 53.3019L53.9006 75.17C51.6518 76.4728 51.6518 78.52 53.9485 79.8228L92.8472 101.691C95.1438 102.994 98.8279 102.994 101.077 101.691L139.784 79.8228C142.033 78.5666 142.033 76.4728 139.736 75.17Z" fill="url(#paint0_linear_1_49)" fill-opacity="0.71"/>
</g>
<path d="M133.138 45.6201L100.184 25.7191C98.2357 24.5801 95.1409 24.5801 93.1924 25.7191L60.525 45.6201C58.5764 46.7591 58.6337 48.6772 60.525 49.8761L93.4216 69.7772C95.3702 70.9161 98.465 70.9161 100.414 69.7772L133.138 49.8761C135.087 48.6772 135.087 46.7591 133.138 45.6201Z" fill="url(#paint1_linear_1_49)"/>
<path d="M148.299 116.157C148.299 116.101 148.299 116.101 148.299 116.046V89.4038H137.339L101.39 113.88C98.7381 112.334 94.4836 112.334 91.8868 113.88L55.8294 89.4038H45.2538V116.046V116.267C45.3643 117.206 45.9721 118.089 47.2429 118.807L92.163 144.762C94.8152 146.308 99.0696 146.308 101.666 144.762L146.31 118.807C147.526 118.089 148.189 117.206 148.244 116.267L148.299 116.157Z" fill="url(#paint2_linear_1_49)"/>
<path d="M146.365 105.427L101.697 131.559C99.0985 133.116 94.7865 133.116 92.1882 131.559L47.2439 105.427C46.0277 104.705 45.3643 103.815 45.2538 102.87V103.704C45.2538 103.704 45.2538 103.704 45.2538 103.759V103.926C45.3643 104.871 45.9725 105.761 47.2439 106.484L92.1882 132.616C94.8417 134.173 99.0985 134.173 101.697 132.616L146.365 106.484C147.581 105.761 148.244 104.871 148.299 103.926V103.759C148.299 103.704 148.299 103.704 148.299 103.648V102.87C148.189 103.759 147.581 104.705 146.365 105.427Z" fill="#76B1FF"/>
<path d="M146.365 104.572L101.697 130.704C99.0985 132.261 94.7865 132.261 92.1882 130.704L47.2439 104.572C46.0277 103.849 45.3643 102.96 45.2538 102.015V102.849C45.2538 102.849 45.2538 102.849 45.2538 102.904V103.071C45.3643 104.016 45.9725 104.906 47.2439 105.629L92.1882 131.761C94.8417 133.318 99.0985 133.318 101.697 131.761L146.365 105.629C147.581 104.906 148.244 104.016 148.299 103.071V102.904C148.299 102.849 148.299 102.849 148.299 102.793V102.015C148.189 102.904 147.581 103.849 146.365 104.572Z" fill="url(#paint3_linear_1_49)"/>
<mask id="mask0_1_49" style="mask-type:alpha" maskUnits="userSpaceOnUse" x="37" y="89" width="120" height="38">
<path d="M37 89.1173H156.685V126.261H37V89.1173Z" fill="#E6F0FF"/>
</mask>
<g mask="url(#mask0_1_49)">
<path fill-rule="evenodd" clip-rule="evenodd" d="M101.461 60.874L146.432 86.8934C149.088 88.4434 149.088 90.9347 146.488 92.4294L101.738 118.449C99.1378 119.999 94.8786 119.999 92.2234 118.449L47.2521 92.4294C44.597 90.8793 44.597 88.4434 47.1968 86.8934L91.9469 60.874C94.5467 59.3239 98.806 59.3239 101.461 60.874ZM99.8827 69.2705L131.689 87.6502C133.57 88.702 133.57 90.4736 131.689 91.5808L100.104 109.96C98.2233 111.012 95.2362 111.012 93.3555 109.96L61.6045 91.5808C59.7791 90.4736 59.7238 88.702 61.6045 87.6502L93.1343 69.2705C95.015 68.2187 98.002 68.2187 99.8827 69.2705Z" fill="url(#paint4_linear_1_49)"/>
</g>
<path d="M148.299 144.134C148.299 144.079 148.299 144.079 148.299 144.024V117.382H137.339L101.39 141.858C98.7381 140.312 94.4836 140.312 91.8868 141.858L55.8294 117.382H45.2538V144.024V144.245C45.3643 145.184 45.9721 146.067 47.2429 146.785L92.163 172.74C94.8152 174.286 99.0696 174.286 101.666 172.74L146.31 146.785C147.526 146.067 148.189 145.184 148.244 144.245L148.299 144.134Z" fill="url(#paint5_linear_1_49)"/>
<path d="M146.365 133.405L101.697 159.537C99.0985 161.094 94.7865 161.094 92.1882 159.537L47.2439 133.405C46.0277 132.682 45.3643 131.793 45.2538 130.848V131.682C45.2538 131.682 45.2538 131.682 45.2538 131.737V131.904C45.3643 132.849 45.9725 133.739 47.2439 134.462L92.1882 160.594C94.8417 162.15 99.0985 162.15 101.697 160.594L146.365 134.462C147.581 133.739 148.244 132.849 148.299 131.904V131.737C148.299 131.682 148.299 131.682 148.299 131.626V130.848C148.189 131.737 147.581 132.682 146.365 133.405Z" fill="#76B1FF"/>
<path d="M146.365 132.55L101.697 158.682C99.0985 160.239 94.7865 160.239 92.1882 158.682L47.2439 132.55C46.0277 131.827 45.3643 130.938 45.2538 129.992V130.826C45.2538 130.826 45.2538 130.826 45.2538 130.882V131.049C45.3643 131.994 45.9725 132.884 47.2439 133.606L92.1882 159.739C94.8417 161.295 99.0985 161.295 101.697 159.739L146.365 133.606C147.581 132.884 148.244 131.994 148.299 131.049V130.882C148.299 130.826 148.299 130.826 148.299 130.771V129.992C148.189 130.882 147.581 131.827 146.365 132.55Z" fill="url(#paint6_linear_1_49)"/>
<mask id="mask1_1_49" style="mask-type:alpha" maskUnits="userSpaceOnUse" x="37" y="117" width="120" height="38">
<path d="M37 117.095H156.685V154.239H37V117.095Z" fill="#E6F0FF"/>
</mask>
<g mask="url(#mask1_1_49)">
<path fill-rule="evenodd" clip-rule="evenodd" d="M101.461 88.8518L146.432 114.871C149.088 116.421 149.088 118.912 146.488 120.407L101.738 146.427C99.1378 147.977 94.8786 147.977 92.2234 146.427L47.2521 120.407C44.597 118.857 44.597 116.421 47.1968 114.871L91.9469 88.8518C94.5467 87.3017 98.806 87.3017 101.461 88.8518ZM99.8827 97.2484L131.689 115.628C133.57 116.68 133.57 118.451 131.689 119.559L100.104 137.938C98.2233 138.99 95.2362 138.99 93.3555 137.938L61.6045 119.559C59.7791 118.451 59.7238 116.68 61.6045 115.628L93.1343 97.2484C95.015 96.1966 98.002 96.1966 99.8827 97.2484Z" fill="url(#paint7_linear_1_49)"/>
</g>
<path d="M148.299 144.134C148.299 144.079 148.299 144.079 148.299 144.024V117.382H137.339L101.39 141.858C98.7381 140.312 94.4836 140.312 91.8868 141.858L55.8294 117.382H45.2538V144.024V144.245C45.3643 145.184 45.9721 146.067 47.2429 146.785L92.163 172.74C94.8152 174.286 99.0696 174.286 101.666 172.74L146.31 146.785C147.526 146.067 148.189 145.184 148.244 144.245L148.299 144.134Z" fill="url(#paint8_linear_1_49)"/>
<path d="M146.365 133.405L101.697 159.537C99.0985 161.094 94.7865 161.094 92.1882 159.537L47.2439 133.405C46.0277 132.682 45.3643 131.793 45.2538 130.848V131.682C45.2538 131.682 45.2538 131.682 45.2538 131.737V131.904C45.3643 132.849 45.9725 133.739 47.2439 134.462L92.1882 160.594C94.8417 162.15 99.0985 162.15 101.697 160.594L146.365 134.462C147.581 133.739 148.244 132.849 148.299 131.904V131.737C148.299 131.682 148.299 131.682 148.299 131.626V130.848C148.189 131.737 147.581 132.682 146.365 133.405Z" fill="#76B1FF"/>
<path d="M146.365 132.55L101.697 158.682C99.0985 160.239 94.7865 160.239 92.1882 158.682L47.2439 132.55C46.0277 131.827 45.3643 130.938 45.2538 129.992V130.826C45.2538 130.826 45.2538 130.826 45.2538 130.882V131.049C45.3643 131.994 45.9725 132.884 47.2439 133.606L92.1882 159.739C94.8417 161.295 99.0985 161.295 101.697 159.739L146.365 133.606C147.581 132.884 148.244 131.994 148.299 131.049V130.882C148.299 130.826 148.299 130.826 148.299 130.771V129.992C148.189 130.882 147.581 131.827 146.365 132.55Z" fill="url(#paint9_linear_1_49)"/>
<mask id="mask2_1_49" style="mask-type:alpha" maskUnits="userSpaceOnUse" x="37" y="117" width="120" height="38">
<path d="M37 117.095H156.685V154.239H37V117.095Z" fill="#E6F0FF"/>
</mask>
<g mask="url(#mask2_1_49)">
<path fill-rule="evenodd" clip-rule="evenodd" d="M101.461 88.8518L146.432 114.871C149.088 116.421 149.088 118.912 146.488 120.407L101.738 146.427C99.1378 147.977 94.8786 147.977 92.2234 146.427L47.2521 120.407C44.597 118.857 44.597 116.421 47.1968 114.871L91.9469 88.8518C94.5467 87.3017 98.806 87.3017 101.461 88.8518ZM99.8827 97.2484L131.689 115.628C133.57 116.68 133.57 118.451 131.689 119.559L100.104 137.938C98.2233 138.99 95.2362 138.99 93.3555 137.938L61.6045 119.559C59.7791 118.451 59.7238 116.68 61.6045 115.628L93.1343 97.2484C95.015 96.1966 98.002 96.1966 99.8827 97.2484Z" fill="url(#paint10_linear_1_49)"/>
</g>
<path d="M148.299 130.258C148.299 130.202 148.299 130.202 148.299 130.147V103.505H137.339L101.39 127.981C98.7381 126.435 94.4836 126.435 91.8868 127.981L55.8294 103.505H45.2538V130.147V130.368C45.3643 131.307 45.9721 132.19 47.2429 132.908L92.163 158.863C94.8152 160.409 99.0696 160.409 101.666 158.863L146.31 132.908C147.526 132.19 148.189 131.307 148.244 130.368L148.299 130.258Z" fill="url(#paint11_linear_1_49)"/>
<path d="M146.365 119.528L101.697 145.661C99.0985 147.217 94.7865 147.217 92.1882 145.661L47.2439 119.528C46.0277 118.806 45.3643 117.916 45.2538 116.971V117.805C45.2538 117.805 45.2538 117.805 45.2538 117.86V118.027C45.3643 118.972 45.9725 119.862 47.2439 120.585L92.1882 146.717C94.8417 148.274 99.0985 148.274 101.697 146.717L146.365 120.585C147.581 119.862 148.244 118.972 148.299 118.027V117.86C148.299 117.805 148.299 117.805 148.299 117.749V116.971C148.189 117.86 147.581 118.806 146.365 119.528Z" fill="#76B1FF"/>
<path d="M146.365 118.673L101.697 144.805C99.0985 146.362 94.7865 146.362 92.1882 144.805L47.2439 118.673C46.0277 117.951 45.3643 117.061 45.2538 116.116V116.95C45.2538 116.95 45.2538 116.95 45.2538 117.005V117.172C45.3643 118.117 45.9725 119.007 47.2439 119.73L92.1882 145.862C94.8417 147.419 99.0985 147.419 101.697 145.862L146.365 119.73C147.581 119.007 148.244 118.117 148.299 117.172V117.005C148.299 116.95 148.299 116.95 148.299 116.894V116.116C148.189 117.005 147.581 117.951 146.365 118.673Z" fill="url(#paint12_linear_1_49)"/>
<mask id="mask3_1_49" style="mask-type:alpha" maskUnits="userSpaceOnUse" x="37" y="103" width="120" height="38">
<path d="M37 103.219H156.685V140.362H37V103.219Z" fill="#E6F0FF"/>
</mask>
<g mask="url(#mask3_1_49)">
<path fill-rule="evenodd" clip-rule="evenodd" d="M101.461 74.9752L146.432 100.995C149.088 102.545 149.088 105.036 146.488 106.531L101.738 132.55C99.1378 134.1 94.8786 134.1 92.2234 132.55L47.2521 106.531C44.597 104.98 44.597 102.545 47.1968 100.995L91.9469 74.9752C94.5467 73.4251 98.806 73.4251 101.461 74.9752ZM99.8827 83.3718L131.689 101.751C133.57 102.803 133.57 104.575 131.689 105.682L100.104 124.062C98.2233 125.114 95.2362 125.114 93.3555 124.062L61.6045 105.682C59.7791 104.575 59.7238 102.803 61.6045 101.751L93.1343 83.3718C95.015 82.32 98.002 82.32 99.8827 83.3718Z" fill="url(#paint13_linear_1_49)"/>
</g>
<path d="M148.299 116.157C148.299 116.101 148.299 116.101 148.299 116.046V89.4038H137.339L101.39 113.88C98.7381 112.334 94.4836 112.334 91.8868 113.88L55.8294 89.4038H45.2538V116.046V116.267C45.3643 117.206 45.9721 118.089 47.2429 118.807L92.163 144.762C94.8152 146.308 99.0696 146.308 101.666 144.762L146.31 118.807C147.526 118.089 148.189 117.206 148.244 116.267L148.299 116.157Z" fill="url(#paint14_linear_1_49)"/>
<path d="M146.365 105.427L101.697 131.559C99.0985 133.116 94.7865 133.116 92.1882 131.559L47.2439 105.427C46.0277 104.705 45.3643 103.815 45.2538 102.87V103.704C45.2538 103.704 45.2538 103.704 45.2538 103.759V103.926C45.3643 104.871 45.9725 105.761 47.2439 106.484L92.1882 132.616C94.8417 134.173 99.0985 134.173 101.697 132.616L146.365 106.484C147.581 105.761 148.244 104.871 148.299 103.926V103.759C148.299 103.704 148.299 103.704 148.299 103.648V102.87C148.189 103.759 147.581 104.705 146.365 105.427Z" fill="#76B1FF"/>
<path d="M146.365 104.572L101.697 130.704C99.0985 132.261 94.7865 132.261 92.1882 130.704L47.2439 104.572C46.0277 103.849 45.3643 102.96 45.2538 102.015V102.849C45.2538 102.849 45.2538 102.849 45.2538 102.904V103.071C45.3643 104.016 45.9725 104.906 47.2439 105.629L92.1882 131.761C94.8417 133.318 99.0985 133.318 101.697 131.761L146.365 105.629C147.581 104.906 148.244 104.016 148.299 103.071V102.904C148.299 102.849 148.299 102.849 148.299 102.793V102.015C148.189 102.904 147.581 103.849 146.365 104.572Z" fill="url(#paint15_linear_1_49)"/>
<mask id="mask4_1_49" style="mask-type:alpha" maskUnits="userSpaceOnUse" x="37" y="89" width="120" height="38">
<path d="M37 89.1173H156.685V126.261H37V89.1173Z" fill="#E6F0FF"/>
</mask>
<g mask="url(#mask4_1_49)">
<path fill-rule="evenodd" clip-rule="evenodd" d="M101.461 60.874L146.432 86.8934C149.088 88.4434 149.088 90.9347 146.488 92.4294L101.738 118.449C99.1378 119.999 94.8786 119.999 92.2234 118.449L47.2521 92.4294C44.597 90.8793 44.597 88.4434 47.1968 86.8934L91.9469 60.874C94.5467 59.3239 98.806 59.3239 101.461 60.874ZM99.8827 69.2705L131.689 87.6502C133.57 88.702 133.57 90.4736 131.689 91.5808L100.104 109.96C98.2233 111.012 95.2362 111.012 93.3555 109.96L61.6045 91.5808C59.7791 90.4736 59.7238 88.702 61.6045 87.6502L93.1343 69.2705C95.015 68.2187 98.002 68.2187 99.8827 69.2705Z" fill="url(#paint16_linear_1_49)"/>
</g>
<path d="M148.299 102.28C148.299 102.225 148.299 102.225 148.299 102.17V75.5273H137.339L101.39 100.004C98.7381 98.4573 94.4836 98.4573 91.8868 100.004L55.8294 75.5273H45.2538V102.17V102.391C45.3643 103.329 45.9721 104.213 47.2429 104.931L92.163 130.885C94.8152 132.432 99.0696 132.432 101.666 130.885L146.31 104.931C147.526 104.213 148.189 103.329 148.244 102.391L148.299 102.28Z" fill="url(#paint17_linear_1_49)"/>
<path d="M146.365 91.5509L101.697 117.683C99.0985 119.24 94.7865 119.24 92.1882 117.683L47.2439 91.5509C46.0277 90.8281 45.3643 89.9385 45.2538 88.9933V89.8273C45.2538 89.8273 45.2538 89.8273 45.2538 89.8829V90.0497C45.3643 90.9949 45.9725 91.8845 47.2439 92.6073L92.1882 118.739C94.8417 120.296 99.0985 120.296 101.697 118.739L146.365 92.6073C147.581 91.8845 148.244 90.9949 148.299 90.0497V89.8829C148.299 89.8273 148.299 89.8273 148.299 89.7717V88.9933C148.189 89.8829 147.581 90.8281 146.365 91.5509Z" fill="#76B1FF"/>
<path d="M146.365 90.6958L101.697 116.828C99.0985 118.385 94.7865 118.385 92.1882 116.828L47.2439 90.6958C46.0277 89.973 45.3643 89.0834 45.2538 88.1382V88.9722C45.2538 88.9722 45.2538 88.9722 45.2538 89.0278V89.1946C45.3643 90.1398 45.9725 91.0294 47.2439 91.7522L92.1882 117.884C94.8417 119.441 99.0985 119.441 101.697 117.884L146.365 91.7522C147.581 91.0294 148.244 90.1398 148.299 89.1946V89.0278C148.299 88.9722 148.299 88.9722 148.299 88.9166V88.1382C148.189 89.0278 147.581 89.973 146.365 90.6958Z" fill="url(#paint18_linear_1_49)"/>
<mask id="mask5_1_49" style="mask-type:alpha" maskUnits="userSpaceOnUse" x="37" y="75" width="120" height="38">
<path d="M37 75.2408H156.685V112.385H37V75.2408Z" fill="#E6F0FF"/>
</mask>
<g mask="url(#mask5_1_49)">
<path fill-rule="evenodd" clip-rule="evenodd" d="M101.461 46.9975L146.432 73.0169C149.088 74.567 149.088 77.0582 146.488 78.5529L101.738 104.572C99.1378 106.122 94.8786 106.122 92.2234 104.572L47.2521 78.5529C44.597 77.0028 44.597 74.567 47.1968 73.0169L91.9469 46.9975C94.5467 45.4474 98.806 45.4474 101.461 46.9975ZM99.8827 55.3941L131.689 73.7738C133.57 74.8256 133.57 76.5971 131.689 77.7043L100.104 96.084C98.2233 97.1358 95.2362 97.1358 93.3555 96.084L61.6045 77.7043C59.7791 76.5971 59.7238 74.8256 61.6045 73.7738L93.1343 55.3941C95.015 54.3423 98.002 54.3423 99.8827 55.3941Z" fill="url(#paint19_linear_1_49)"/>
</g>
<path d="M148.299 88.4034C148.299 88.3482 148.299 88.3482 148.299 88.2929V61.6506H137.339L101.39 86.1268C98.7381 84.5806 94.4836 84.5806 91.8868 86.1268L55.8294 61.6506H45.2538V88.2929V88.5138C45.3643 89.4526 45.9721 90.3362 47.2429 91.0541L92.163 117.009C94.8152 118.555 99.0696 118.555 101.666 117.009L146.31 91.0541C147.526 90.3362 148.189 89.4526 148.244 88.5138L148.299 88.4034Z" fill="url(#paint20_linear_1_49)"/>
<path d="M146.365 77.6742L101.697 103.806C99.0985 105.363 94.7865 105.363 92.1882 103.806L47.2439 77.6742C46.0277 76.9514 45.3643 76.0618 45.2538 75.1166V75.9506C45.2538 75.9506 45.2538 75.9506 45.2538 76.0062V76.173C45.3643 77.1182 45.9725 78.0078 47.2439 78.7306L92.1882 104.863C94.8417 106.419 99.0985 106.419 101.697 104.863L146.365 78.7306C147.581 78.0078 148.244 77.1182 148.299 76.173V76.0062C148.299 75.9506 148.299 75.9506 148.299 75.895V75.1166C148.189 76.0062 147.581 76.9514 146.365 77.6742Z" fill="#76B1FF"/>
<path d="M146.365 76.8191L101.697 102.951C99.0985 104.508 94.7865 104.508 92.1882 102.951L47.2439 76.8191C46.0277 76.0963 45.3643 75.2067 45.2538 74.2615V75.0955C45.2538 75.0955 45.2538 75.0955 45.2538 75.1511V75.3179C45.3643 76.2631 45.9725 77.1527 47.2439 77.8755L92.1882 104.008C94.8417 105.564 99.0985 105.564 101.697 104.008L146.365 77.8755C147.581 77.1527 148.244 76.2631 148.299 75.3179V75.1511C148.299 75.0955 148.299 75.0955 148.299 75.0399V74.2615C148.189 75.1511 147.581 76.0963 146.365 76.8191Z" fill="url(#paint21_linear_1_49)"/>
<mask id="mask6_1_49" style="mask-type:alpha" maskUnits="userSpaceOnUse" x="37" y="61" width="120" height="38">
<path d="M37 61.3643H156.685V98.508H37V61.3643Z" fill="#E6F0FF"/>
</mask>
<g mask="url(#mask6_1_49)">
<path fill-rule="evenodd" clip-rule="evenodd" d="M101.461 33.1209L146.432 59.1403C149.088 60.6904 149.088 63.1816 146.488 64.6763L101.738 90.6957C99.1378 92.2458 94.8786 92.2458 92.2234 90.6957L47.2521 64.6763C44.597 63.1262 44.597 60.6904 47.1968 59.1403L91.9469 33.1209C94.5467 31.5709 98.806 31.5709 101.461 33.1209ZM99.8827 41.5176L131.689 59.8972C133.57 60.949 133.57 62.7206 131.689 63.8278L100.104 82.2074C98.2233 83.2593 95.2362 83.2593 93.3555 82.2074L61.6045 63.8278C59.7791 62.7206 59.7238 60.949 61.6045 59.8972L93.1343 41.5176C95.015 40.4657 98.002 40.4657 99.8827 41.5176Z" fill="url(#paint22_linear_1_49)"/>
</g>
<path d="M195.366 151.328L162.412 131.427C160.464 130.288 157.369 130.288 155.421 131.427L122.753 151.328C120.805 152.467 120.862 154.385 122.753 155.584L155.65 175.485C157.598 176.624 160.693 176.624 162.642 175.485L195.366 155.584C197.315 154.385 197.315 152.467 195.366 151.328Z" fill="url(#paint23_linear_1_49)"/>
<path d="M148.299 74.5269C148.299 74.4717 148.299 74.4717 148.299 74.4165V47.7742H137.339L101.39 72.2504C98.7381 70.7041 94.4836 70.7041 91.8868 72.2504L55.8294 47.7742H45.2538V74.4165V74.6374C45.3643 75.5761 45.9721 76.4597 47.2429 77.1776L92.163 103.132C94.8152 104.678 99.0696 104.678 101.666 103.132L146.31 77.1776C147.526 76.4597 148.189 75.5761 148.244 74.6374L148.299 74.5269Z" fill="url(#paint24_linear_1_49)"/>
<path d="M146.365 63.7977L101.697 89.9298C99.0985 91.4866 94.7865 91.4866 92.1882 89.9298L47.2439 63.7977C46.0277 63.0749 45.3643 62.1853 45.2538 61.2401V62.0741C45.2538 62.0741 45.2538 62.0741 45.2538 62.1297V62.2965C45.3643 63.2417 45.9725 64.1313 47.2439 64.8541L92.1882 90.9862C94.8417 92.543 99.0985 92.543 101.697 90.9862L146.365 64.8541C147.581 64.1313 148.244 63.2417 148.299 62.2965V62.1297C148.299 62.0741 148.299 62.0741 148.299 62.0185V61.2401C148.189 62.1297 147.581 63.0749 146.365 63.7977Z" fill="#76B1FF"/>
<path d="M146.365 62.9426L101.697 89.0747C99.0985 90.6315 94.7865 90.6315 92.1882 89.0747L47.2439 62.9426C46.0277 62.2198 45.3643 61.3302 45.2538 60.385V61.219C45.2538 61.219 45.2538 61.219 45.2538 61.2746V61.4414C45.3643 62.3866 45.9725 63.2762 47.2439 63.999L92.1882 90.1311C94.8417 91.6879 99.0985 91.6879 101.697 90.1311L146.365 63.999C147.581 63.2762 148.244 62.3866 148.299 61.4414V61.2746C148.299 61.219 148.299 61.219 148.299 61.1634V60.385C148.189 61.2746 147.581 62.2198 146.365 62.9426Z" fill="url(#paint25_linear_1_49)"/>
<mask id="mask7_1_49" style="mask-type:alpha" maskUnits="userSpaceOnUse" x="37" y="47" width="120" height="38">
<path d="M37 47.4877H156.685V84.6314H37V47.4877Z" fill="#E6F0FF"/>
</mask>
<g mask="url(#mask7_1_49)">
<path fill-rule="evenodd" clip-rule="evenodd" d="M101.461 19.2445L146.432 45.2638C149.088 46.8139 149.088 49.3051 146.488 50.7999L101.738 76.8192C99.1378 78.3693 94.8786 78.3693 92.2234 76.8192L47.2521 50.7999C44.597 49.2498 44.597 46.8139 47.1968 45.2638L91.9469 19.2445C94.5467 17.6944 98.806 17.6944 101.461 19.2445ZM99.8827 27.6411L131.689 46.0207C133.57 47.0726 133.57 48.8441 131.689 49.9513L100.104 68.3309C98.2233 69.3828 95.2362 69.3828 93.3555 68.3309L61.6045 49.9513C59.7791 48.8441 59.7238 47.0726 61.6045 46.0207L93.1343 27.6411C95.015 26.5892 98.002 26.5892 99.8827 27.6411Z" fill="url(#paint26_linear_1_49)"/>
</g>
<path fill-rule="evenodd" clip-rule="evenodd" d="M101.461 19.1626L146.432 45.1819C149.088 46.732 149.088 49.2232 146.488 50.718L101.738 76.7373C99.1378 78.2874 94.8786 78.2874 92.2234 76.7373L47.2521 50.718C44.597 49.1679 44.597 46.732 47.1968 45.1819L91.9469 19.1626C94.5467 17.6125 98.806 17.6125 101.461 19.1626ZM99.8825 27.5592L131.689 45.9389C133.57 46.9907 133.57 48.7622 131.689 49.8694L100.104 68.2491C98.2231 69.3009 95.2361 69.3009 93.3553 68.2491L61.6044 49.8694C59.779 48.7622 59.7236 46.9907 61.6044 45.9389L93.1341 27.5592C95.0148 26.5074 98.0018 26.5074 99.8825 27.5592Z" fill="url(#paint27_linear_1_49)"/>
<path d="M142.188 57.1724C142.188 56.7178 141.693 56.4359 141.302 56.6675L107.706 76.5578C107.527 76.6634 107.418 76.8554 107.418 77.0627L107.418 81.6672C107.418 82.1218 107.912 82.4037 108.303 82.1721L141.9 62.2818C142.079 62.1762 142.188 61.9842 142.188 61.7769V57.1724Z" fill="#CCE2FF"/>
<path d="M66.3408 69.7674C66.3408 70.222 65.8462 70.5039 65.4551 70.2723L51.9583 62.2818C51.7798 62.1762 51.6704 61.9842 51.6704 61.7768L51.6704 57.1724C51.6704 56.7178 52.165 56.4359 52.5562 56.6675L66.053 64.658C66.2314 64.7636 66.3408 64.9556 66.3408 65.163V69.7674Z" fill="#CCE2FF"/>
<path d="M66.3408 111.742C66.3408 112.196 65.8462 112.478 65.4551 112.246L51.9583 104.256C51.7798 104.15 51.6704 103.958 51.6704 103.751L51.6704 99.1465C51.6704 98.6919 52.165 98.41 52.5562 98.6416L66.053 106.632C66.2314 106.738 66.3408 106.93 66.3408 107.137V111.742Z" fill="#CCE2FF"/>
<path d="M86.3583 81.5222C86.3583 81.9764 85.8644 82.2584 85.4732 82.0275L71.0309 73.5036C70.852 73.398 70.7423 73.2058 70.7423 72.9982V68.3483C70.7423 67.8936 71.2371 67.6116 71.6283 67.8435L86.0707 76.4027C86.249 76.5083 86.3583 76.7002 86.3583 76.9075V81.5222Z" fill="#CCE2FF"/>
<path d="M86.3583 123.48C86.3583 123.934 85.8644 124.216 85.4732 123.985L71.0309 115.461C70.852 115.355 70.7423 115.163 70.7423 114.956V110.306C70.7423 109.851 71.2371 109.569 71.6283 109.801L86.0707 118.36C86.249 118.466 86.3583 118.658 86.3583 118.865V123.48Z" fill="#CCE2FF"/>
<path d="M142.188 85.0462C142.188 84.5916 141.693 84.3097 141.302 84.5413L107.706 104.432C107.527 104.537 107.418 104.729 107.418 104.937L107.418 109.541C107.418 109.996 107.912 110.277 108.303 110.046L141.9 90.1556C142.079 90.05 142.188 89.858 142.188 89.6506V85.0462Z" fill="#CCE2FF"/>
<path d="M142.188 112.92C142.188 112.465 141.693 112.183 141.302 112.415L107.706 132.305C107.527 132.411 107.418 132.603 107.418 132.81L107.418 137.415C107.418 137.869 107.912 138.151 108.303 137.92L141.9 118.029C142.079 117.924 142.188 117.732 142.188 117.524V112.92Z" fill="#CCE2FF"/>
<path d="M142.188 71.256C142.188 70.8015 141.693 70.5195 141.302 70.7511L107.706 90.6414C107.527 90.747 107.418 90.939 107.418 91.1464L107.418 95.7508C107.418 96.2054 107.912 96.4873 108.303 96.2557L141.9 76.3654C142.079 76.2598 142.188 76.0678 142.188 75.8605V71.256Z" fill="#CCE2FF"/>
<path d="M86.4406 96.3376C86.4406 96.7922 85.946 97.0741 85.5549 96.8425L51.9583 76.9522C51.7798 76.8466 51.6704 76.6546 51.6704 76.4473L51.6704 71.8428C51.6704 71.3883 52.165 71.1063 52.5562 71.3379L86.1528 91.2282C86.3312 91.3338 86.4406 91.5258 86.4406 91.7332V96.3376Z" fill="#CCE2FF"/>
<path d="M86.4406 152.085C86.4406 152.54 85.946 152.822 85.5549 152.59L51.9583 132.7C51.7798 132.594 51.6704 132.402 51.6704 132.195L51.6704 127.59C51.6704 127.136 52.165 126.854 52.5562 127.085L86.1528 146.976C86.3312 147.081 86.4406 147.273 86.4406 147.481V152.085Z" fill="#CCE2FF"/>
<path d="M86.4406 168.44C86.4406 168.892 85.9512 169.174 85.56 168.948L51.9634 149.516C51.7821 149.411 51.6704 149.217 51.6704 149.008L51.6704 142.261C51.6704 141.806 52.165 141.524 52.5562 141.756L86.1528 161.646C86.3312 161.752 86.4406 161.944 86.4406 162.151V168.44Z" fill="#CCE2FF"/>
<path d="M86.4406 137.561C86.4406 138.016 85.946 138.298 85.5549 138.066L51.9583 118.176C51.7798 118.07 51.6704 117.878 51.6704 117.671L51.6704 113.067C51.6704 112.612 52.165 112.33 52.5562 112.562L86.1528 132.452C86.3312 132.558 86.4406 132.75 86.4406 132.957V137.561Z" fill="#CCE2FF"/>
<path d="M86.4406 109.688C86.4406 110.142 85.946 110.424 85.5549 110.193L51.9583 90.3023C51.7798 90.1967 51.6704 90.0047 51.6704 89.7974L51.6704 85.1929C51.6704 84.7383 52.165 84.4564 52.5562 84.688L86.1528 104.578C86.3312 104.684 86.4406 104.876 86.4406 105.083V109.688Z" fill="#CCE2FF"/>
<path d="M142.188 99.4233C142.188 98.9687 141.693 98.6867 141.302 98.9183L107.706 118.809C107.527 118.914 107.418 119.106 107.418 119.314L107.418 123.918C107.418 124.373 107.912 124.655 108.303 124.423L141.9 104.533C142.079 104.427 142.188 104.235 142.188 104.028V99.4233Z" fill="#CCE2FF"/>
<path d="M142.188 127.297C142.188 126.842 141.693 126.561 141.302 126.792L107.706 146.682C107.527 146.788 107.418 146.98 107.418 147.187L107.418 151.792C107.418 152.246 107.912 152.528 108.303 152.297L141.9 132.406C142.079 132.301 142.188 132.109 142.188 131.901V127.297Z" fill="#CCE2FF"/>
<path d="M210.528 180.235C210.528 180.18 210.528 180.18 210.528 180.125V153.482H199.567L163.618 177.958C160.966 176.412 156.712 176.412 154.115 177.958L118.058 153.482H107.482V180.125V180.345C107.592 181.284 108.2 182.168 109.471 182.886L154.391 208.84C157.043 210.386 161.298 210.386 163.895 208.84L208.538 182.886C209.754 182.168 210.417 181.284 210.472 180.345L210.528 180.235Z" fill="url(#paint28_linear_1_49)"/>
<path d="M208.593 169.506L163.925 195.638C161.327 197.195 157.015 197.195 154.416 195.638L109.472 169.506C108.256 168.783 107.592 167.893 107.482 166.948V167.782C107.482 167.782 107.482 167.782 107.482 167.838V168.005C107.592 168.95 108.201 169.839 109.472 170.562L154.416 196.694C157.07 198.251 161.327 198.251 163.925 196.694L208.593 170.562C209.809 169.839 210.472 168.95 210.528 168.005V167.838C210.528 167.782 210.528 167.782 210.528 167.727V166.948C210.417 167.838 209.809 168.783 208.593 169.506Z" fill="#76B1FF"/>
<path d="M208.593 168.651L163.925 194.783C161.327 196.34 157.015 196.34 154.416 194.783L109.472 168.651C108.256 167.928 107.592 167.038 107.482 166.093V166.927C107.482 166.927 107.482 166.927 107.482 166.983V167.15C107.592 168.095 108.201 168.984 109.472 169.707L154.416 195.839C157.07 197.396 161.327 197.396 163.925 195.839L208.593 169.707C209.809 168.984 210.472 168.095 210.528 167.15V166.983C210.528 166.927 210.528 166.927 210.528 166.872V166.093C210.417 166.983 209.809 167.928 208.593 168.651Z" fill="url(#paint29_linear_1_49)"/>
<mask id="mask8_1_49" style="mask-type:alpha" maskUnits="userSpaceOnUse" x="99" y="153" width="120" height="38">
<path d="M99.2279 153.196H218.913V190.34H99.2279V153.196Z" fill="#E6F0FF"/>
</mask>
<g mask="url(#mask8_1_49)">
<path fill-rule="evenodd" clip-rule="evenodd" d="M163.689 124.952L208.661 150.972C211.316 152.522 211.316 155.013 208.716 156.508L163.966 182.527C161.366 184.077 157.107 184.077 154.452 182.527L109.48 156.508C106.825 154.958 106.825 152.522 109.425 150.972L154.175 124.952C156.775 123.402 161.034 123.402 163.689 124.952ZM162.111 133.349L193.917 151.729C195.798 152.78 195.798 154.552 193.917 155.659L162.332 174.039C160.451 175.091 157.464 175.091 155.584 174.039L123.833 155.659C122.007 154.552 121.952 152.78 123.833 151.729L155.362 133.349C157.243 132.297 160.23 132.297 162.111 133.349Z" fill="url(#paint30_linear_1_49)"/>
</g>
<path fill-rule="evenodd" clip-rule="evenodd" d="M163.689 124.871L208.66 150.89C211.315 152.44 211.315 154.931 208.716 156.426L163.965 182.446C161.366 183.996 157.106 183.996 154.451 182.446L109.48 156.426C106.825 154.876 106.825 152.44 109.425 150.89L154.175 124.871C156.774 123.321 161.034 123.321 163.689 124.871ZM162.11 133.267L193.917 151.647C195.797 152.699 195.797 154.47 193.917 155.578L162.332 173.957C160.451 175.009 157.464 175.009 155.583 173.957L123.832 155.578C122.007 154.47 121.951 152.699 123.832 151.647L155.362 133.267C157.243 132.216 160.23 132.216 162.11 133.267Z" fill="url(#paint31_linear_1_49)"/>
<path fill-rule="evenodd" clip-rule="evenodd" d="M112.553 148.567V141.525H114.02V148.567H112.553Z" fill="#4491F2"/>
<path fill-rule="evenodd" clip-rule="evenodd" d="M133.091 136.537V129.495H134.558V136.537H133.091Z" fill="#4491F2"/>
<path fill-rule="evenodd" clip-rule="evenodd" d="M121.355 143.432V136.39H122.822V143.432H121.355Z" fill="#4491F2"/>
<path fill-rule="evenodd" clip-rule="evenodd" d="M124.289 141.818V134.776H125.756V141.818H124.289Z" fill="#4491F2"/>
<path fill-rule="evenodd" clip-rule="evenodd" d="M112.553 79.6158V72.574H114.02V79.6158H112.553Z" fill="#5EA6F7"/>
<path fill-rule="evenodd" clip-rule="evenodd" d="M112.553 107.49V100.448H114.02V107.49H112.553Z" fill="#4491F2"/>
<path fill-rule="evenodd" clip-rule="evenodd" d="M133.091 67.586V60.5442H134.558V67.586H133.091Z" fill="#5EA6F7"/>
<path fill-rule="evenodd" clip-rule="evenodd" d="M133.091 95.4598V88.418H134.558V95.4598H133.091Z" fill="#4491F2"/>
<path fill-rule="evenodd" clip-rule="evenodd" d="M121.355 74.4811V67.4393H122.822V74.4811H121.355Z" fill="#5EA6F7"/>
<path fill-rule="evenodd" clip-rule="evenodd" d="M121.355 102.355V95.3131H122.822V102.355H121.355Z" fill="#4491F2"/>
<path fill-rule="evenodd" clip-rule="evenodd" d="M124.289 72.8674V65.8256H125.756V72.8674H124.289Z" fill="#5EA6F7"/>
<path fill-rule="evenodd" clip-rule="evenodd" d="M56.8051 73.7475V80.7893H58.2721V73.7475H56.8051Z" fill="#4E99F4"/>
<path fill-rule="evenodd" clip-rule="evenodd" d="M77.3434 85.7773V92.8191H78.8104V85.7773H77.3434Z" fill="#4E99F4"/>
<path fill-rule="evenodd" clip-rule="evenodd" d="M65.6077 78.8821V85.924H67.0747V78.8821H65.6077Z" fill="#4E99F4"/>
<path fill-rule="evenodd" clip-rule="evenodd" d="M68.5416 80.4959V87.5377H70.0087V80.4959H68.5416Z" fill="#4E99F4"/>
<path fill-rule="evenodd" clip-rule="evenodd" d="M56.8051 114.825V121.867H58.2721V114.825H56.8051Z" fill="#4E99F4"/>
<path fill-rule="evenodd" clip-rule="evenodd" d="M77.3434 126.855V133.896H78.8104V126.855H77.3434Z" fill="#4E99F4"/>
<path fill-rule="evenodd" clip-rule="evenodd" d="M65.6077 119.959V127.001H67.0747V119.959H65.6077Z" fill="#4E99F4"/>
<path fill-rule="evenodd" clip-rule="evenodd" d="M68.5416 121.573V128.615H70.0087V121.573H68.5416Z" fill="#4E99F4"/>
<path fill-rule="evenodd" clip-rule="evenodd" d="M56.8051 144.166V152.322L58.2721 153.173V144.166H56.8051Z" fill="#4E99F4"/>
<path fill-rule="evenodd" clip-rule="evenodd" d="M77.3434 156.195V164.235L78.8104 165.056V156.195H77.3434Z" fill="#4E99F4"/>
<path fill-rule="evenodd" clip-rule="evenodd" d="M65.6077 149.3V157.428L67.0747 158.279V149.3H65.6077Z" fill="#4E99F4"/>
<path fill-rule="evenodd" clip-rule="evenodd" d="M68.5416 150.914V159.129L70.0087 159.98V150.914H68.5416Z" fill="#4E99F4"/>
<path fill-rule="evenodd" clip-rule="evenodd" d="M124.289 100.741V93.6993H125.756V100.741H124.289Z" fill="#4491F2"/>
<path d="M203.804 163.386C203.804 162.932 203.309 162.65 202.918 162.881L169.321 182.772C169.143 182.877 169.034 183.069 169.034 183.277L169.034 187.881C169.034 188.336 169.528 188.618 169.919 188.386L203.516 168.496C203.694 168.39 203.804 168.198 203.804 167.991V163.386Z" fill="#CCE2FF"/>
<path d="M127.957 175.705C127.957 176.159 127.462 176.441 127.071 176.209L113.574 168.219C113.396 168.113 113.286 167.921 113.286 167.714L113.286 163.11C113.286 162.655 113.781 162.373 114.172 162.605L127.669 170.595C127.847 170.701 127.957 170.893 127.957 171.1V175.705Z" fill="#CCE2FF"/>
<path d="M147.974 187.443C147.974 187.897 147.48 188.179 147.089 187.948L132.647 179.424C132.468 179.318 132.358 179.126 132.358 178.919V174.269C132.358 173.814 132.853 173.532 133.244 173.764L147.686 182.323C147.865 182.429 147.974 182.621 147.974 182.828V187.443Z" fill="#CCE2FF"/>
<path fill-rule="evenodd" clip-rule="evenodd" d="M174.169 185.83V178.788H175.636V185.83H174.169Z" fill="#5EA6F7"/>
<path fill-rule="evenodd" clip-rule="evenodd" d="M194.707 173.8V166.758H196.174V173.8H194.707Z" fill="#5EA6F7"/>
<path fill-rule="evenodd" clip-rule="evenodd" d="M182.971 180.695V173.653H184.438V180.695H182.971Z" fill="#5EA6F7"/>
<path fill-rule="evenodd" clip-rule="evenodd" d="M185.905 179.081V172.039H187.372V179.081H185.905Z" fill="#5EA6F7"/>
<path d="M169.034 204.823C169.034 205.275 169.523 205.557 169.914 205.331L203.511 185.898C203.692 185.793 203.804 185.6 203.804 185.39V178.644C203.804 178.189 203.309 177.907 202.918 178.139L169.322 198.029C169.143 198.135 169.034 198.327 169.034 198.534V204.823Z" fill="#CCE2FF"/>
<path fill-rule="evenodd" clip-rule="evenodd" d="M198.669 180.548V188.705L197.202 189.556V180.548H198.669Z" fill="#4E99F4"/>
<path fill-rule="evenodd" clip-rule="evenodd" d="M178.131 192.578V200.617L176.664 201.439V192.578H178.131Z" fill="#4E99F4"/>
<path fill-rule="evenodd" clip-rule="evenodd" d="M189.867 185.683V193.81L188.4 194.661V185.683H189.867Z" fill="#4E99F4"/>
<path fill-rule="evenodd" clip-rule="evenodd" d="M186.933 187.297V195.512L185.466 196.363V187.297H186.933Z" fill="#4E99F4"/>
<defs>
<filter id="filter0_f_1_49" x="0.219971" y="0.324829" width="193.245" height="154.343" filterUnits="userSpaceOnUse" color-interpolation-filters="sRGB">
<feFlood flood-opacity="0" result="BackgroundImageFix"/>
<feBlend mode="normal" in="SourceGraphic" in2="BackgroundImageFix" result="shape"/>
<feGaussianBlur stdDeviation="26" result="effect1_foregroundBlur_1_49"/>
</filter>
<linearGradient id="paint0_linear_1_49" x1="96.8423" y1="52.3248" x2="96.8423" y2="108.256" gradientUnits="userSpaceOnUse">
<stop stop-color="#8CC9FF"/>
<stop offset="0.980943" stop-color="#1C73DB"/>
</linearGradient>
<linearGradient id="paint1_linear_1_49" x1="48.1277" y1="43.5776" x2="151.286" y2="43.5776" gradientUnits="userSpaceOnUse">
<stop stop-color="#0454BD"/>
<stop offset="0.488564" stop-color="#3A9AFF"/>
<stop offset="1" stop-color="#0454BD"/>
</linearGradient>
<linearGradient id="paint2_linear_1_49" x1="96.7766" y1="76.7832" x2="96.7766" y2="145.922" gradientUnits="userSpaceOnUse">
<stop stop-color="#84C4FF"/>
<stop offset="1" stop-color="#2F80ED"/>
</linearGradient>
<linearGradient id="paint3_linear_1_49" x1="96.7766" y1="108.038" x2="96.7766" y2="137.107" gradientUnits="userSpaceOnUse">
<stop stop-color="#0F65D9"/>
<stop offset="1" stop-color="#0085FF"/>
</linearGradient>
<linearGradient id="paint4_linear_1_49" x1="96.8423" y1="59.7248" x2="96.8423" y2="131.737" gradientUnits="userSpaceOnUse">
<stop stop-color="#E6F0FF"/>
<stop offset="1" stop-color="#80B6FF"/>
</linearGradient>
<linearGradient id="paint5_linear_1_49" x1="96.7766" y1="104.761" x2="96.7766" y2="173.899" gradientUnits="userSpaceOnUse">
<stop stop-color="#84C4FF"/>
<stop offset="1" stop-color="#2F80ED"/>
</linearGradient>
<linearGradient id="paint6_linear_1_49" x1="96.7766" y1="136.016" x2="96.7766" y2="165.084" gradientUnits="userSpaceOnUse">
<stop stop-color="#0F65D9"/>
<stop offset="1" stop-color="#0085FF"/>
</linearGradient>
<linearGradient id="paint7_linear_1_49" x1="96.8423" y1="87.7026" x2="96.8423" y2="159.714" gradientUnits="userSpaceOnUse">
<stop stop-color="#E6F0FF"/>
<stop offset="1" stop-color="#80B6FF"/>
</linearGradient>
<linearGradient id="paint8_linear_1_49" x1="96.7766" y1="104.761" x2="96.7766" y2="173.899" gradientUnits="userSpaceOnUse">
<stop stop-color="#84C4FF"/>
<stop offset="1" stop-color="#2F80ED"/>
</linearGradient>
<linearGradient id="paint9_linear_1_49" x1="96.7766" y1="136.016" x2="96.7766" y2="165.084" gradientUnits="userSpaceOnUse">
<stop stop-color="#0F65D9"/>
<stop offset="1" stop-color="#0085FF"/>
</linearGradient>
<linearGradient id="paint10_linear_1_49" x1="96.8423" y1="87.7026" x2="96.8423" y2="159.714" gradientUnits="userSpaceOnUse">
<stop stop-color="#E6F0FF"/>
<stop offset="1" stop-color="#80B6FF"/>
</linearGradient>
<linearGradient id="paint11_linear_1_49" x1="96.7766" y1="90.8843" x2="96.7766" y2="160.023" gradientUnits="userSpaceOnUse">
<stop stop-color="#84C4FF"/>
<stop offset="1" stop-color="#2F80ED"/>
</linearGradient>
<linearGradient id="paint12_linear_1_49" x1="96.7766" y1="122.139" x2="96.7766" y2="151.208" gradientUnits="userSpaceOnUse">
<stop stop-color="#0F65D9"/>
<stop offset="1" stop-color="#0085FF"/>
</linearGradient>
<linearGradient id="paint13_linear_1_49" x1="96.8423" y1="73.826" x2="96.8423" y2="145.838" gradientUnits="userSpaceOnUse">
<stop stop-color="#E6F0FF"/>
<stop offset="1" stop-color="#80B6FF"/>
</linearGradient>
<linearGradient id="paint14_linear_1_49" x1="96.7766" y1="76.7832" x2="96.7766" y2="145.922" gradientUnits="userSpaceOnUse">
<stop stop-color="#84C4FF"/>
<stop offset="1" stop-color="#2F80ED"/>
</linearGradient>
<linearGradient id="paint15_linear_1_49" x1="96.7766" y1="108.038" x2="96.7766" y2="137.107" gradientUnits="userSpaceOnUse">
<stop stop-color="#0F65D9"/>
<stop offset="1" stop-color="#0085FF"/>
</linearGradient>
<linearGradient id="paint16_linear_1_49" x1="96.8423" y1="59.7248" x2="96.8423" y2="131.737" gradientUnits="userSpaceOnUse">
<stop stop-color="#E6F0FF"/>
<stop offset="1" stop-color="#80B6FF"/>
</linearGradient>
<linearGradient id="paint17_linear_1_49" x1="96.7766" y1="62.9067" x2="96.7766" y2="132.045" gradientUnits="userSpaceOnUse">
<stop stop-color="#84C4FF"/>
<stop offset="1" stop-color="#2F80ED"/>
</linearGradient>
<linearGradient id="paint18_linear_1_49" x1="96.7766" y1="94.1616" x2="96.7766" y2="123.23" gradientUnits="userSpaceOnUse">
<stop stop-color="#0F65D9"/>
<stop offset="1" stop-color="#0085FF"/>
</linearGradient>
<linearGradient id="paint19_linear_1_49" x1="96.8423" y1="45.8483" x2="96.8423" y2="117.86" gradientUnits="userSpaceOnUse">
<stop stop-color="#E6F0FF"/>
<stop offset="1" stop-color="#80B6FF"/>
</linearGradient>
<linearGradient id="paint20_linear_1_49" x1="96.7766" y1="49.03" x2="96.7766" y2="118.168" gradientUnits="userSpaceOnUse">
<stop stop-color="#84C4FF"/>
<stop offset="1" stop-color="#2F80ED"/>
</linearGradient>
<linearGradient id="paint21_linear_1_49" x1="96.7766" y1="80.2849" x2="96.7766" y2="109.353" gradientUnits="userSpaceOnUse">
<stop stop-color="#0F65D9"/>
<stop offset="1" stop-color="#0085FF"/>
</linearGradient>
<linearGradient id="paint22_linear_1_49" x1="96.8423" y1="31.9717" x2="96.8423" y2="103.983" gradientUnits="userSpaceOnUse">
<stop stop-color="#E6F0FF"/>
<stop offset="1" stop-color="#80B6FF"/>
</linearGradient>
<linearGradient id="paint23_linear_1_49" x1="110.356" y1="149.286" x2="213.514" y2="149.286" gradientUnits="userSpaceOnUse">
<stop stop-color="#0454BD"/>
<stop offset="0.488564" stop-color="#3A9AFF"/>
<stop offset="1" stop-color="#0454BD"/>
</linearGradient>
<linearGradient id="paint24_linear_1_49" x1="96.7766" y1="35.1536" x2="96.7766" y2="104.292" gradientUnits="userSpaceOnUse">
<stop stop-color="#84C4FF"/>
<stop offset="1" stop-color="#2F80ED"/>
</linearGradient>
<linearGradient id="paint25_linear_1_49" x1="96.7766" y1="66.4085" x2="96.7766" y2="95.477" gradientUnits="userSpaceOnUse">
<stop stop-color="#0F65D9"/>
<stop offset="1" stop-color="#0085FF"/>
</linearGradient>
<linearGradient id="paint26_linear_1_49" x1="96.8423" y1="18.0953" x2="96.8423" y2="90.107" gradientUnits="userSpaceOnUse">
<stop stop-color="#E6F0FF"/>
<stop offset="1" stop-color="#80B6FF"/>
</linearGradient>
<linearGradient id="paint27_linear_1_49" x1="96.8423" y1="18.0134" x2="96.8423" y2="90.0251" gradientUnits="userSpaceOnUse">
<stop stop-color="#BFDAFF"/>
<stop offset="1" stop-color="#C7DFFF"/>
</linearGradient>
<linearGradient id="paint28_linear_1_49" x1="159.005" y1="140.862" x2="159.005" y2="210" gradientUnits="userSpaceOnUse">
<stop stop-color="#84C4FF"/>
<stop offset="1" stop-color="#2F80ED"/>
</linearGradient>
<linearGradient id="paint29_linear_1_49" x1="159.005" y1="172.117" x2="159.005" y2="201.185" gradientUnits="userSpaceOnUse">
<stop stop-color="#0F65D9"/>
<stop offset="1" stop-color="#0085FF"/>
</linearGradient>
<linearGradient id="paint30_linear_1_49" x1="159.07" y1="123.803" x2="159.07" y2="195.815" gradientUnits="userSpaceOnUse">
<stop stop-color="#E6F0FF"/>
<stop offset="1" stop-color="#80B6FF"/>
</linearGradient>
<linearGradient id="paint31_linear_1_49" x1="159.07" y1="123.722" x2="159.07" y2="195.733" gradientUnits="userSpaceOnUse">
<stop stop-color="#BFDAFF"/>
<stop offset="1" stop-color="#C7DFFF"/>
</linearGradient>
</defs>
</svg>
