<svg width="90" height="90" viewBox="0 0 90 90" fill="none" xmlns="http://www.w3.org/2000/svg">
<g clip-path="url(#clip0)">
<rect width="90" height="90" fill="white"/>
<g filter="url(#filter0_f)">
<path d="M48.0149 33.4848L34.7573 26.0317C33.9746 25.5877 32.7189 25.5877 31.9525 26.0317L18.7602 33.4848C17.9938 33.9288 17.9938 34.6266 18.7765 35.0706L32.0341 42.5237C32.8168 42.9677 34.0724 42.9677 34.8388 42.5237L48.0312 35.0706C48.7976 34.6424 48.7976 33.9288 48.0149 33.4848Z" fill="url(#paint0_linear)" fill-opacity="0.71"/>
</g>
<path d="M45.7661 23.4136L34.5347 16.6309C33.8706 16.2427 32.8158 16.2427 32.1517 16.6309L21.0179 23.4136C20.3538 23.8018 20.3733 24.4555 21.0179 24.8641L32.2298 31.6468C32.8939 32.035 33.9487 32.035 34.6128 31.6468L45.7661 24.8641C46.4302 24.4555 46.4302 23.8018 45.7661 23.4136Z" fill="url(#paint1_linear)"/>
<path d="M50.9334 47.4539C50.9334 47.4351 50.9334 47.4351 50.9334 47.4163V38.336H47.1979L34.9457 46.678C34.0418 46.151 32.5918 46.151 31.7067 46.678L19.4175 38.336H15.8131V47.4163V47.4915C15.8508 47.8115 16.0579 48.1126 16.4911 48.3573L31.8008 57.2032C32.7047 57.7302 34.1547 57.7302 35.0398 57.2032L50.2554 48.3573C50.6697 48.1126 50.8957 47.8115 50.9145 47.4915L50.9334 47.4539Z" fill="url(#paint2_linear)"/>
<path d="M50.2739 43.7972L35.0501 52.7035C34.1646 53.2341 32.695 53.2341 31.8094 52.7035L16.4914 43.7972C16.0769 43.5508 15.8508 43.2476 15.8131 42.9255V43.2097C15.8131 43.2097 15.8131 43.2097 15.8131 43.2287V43.2855C15.8508 43.6077 16.0581 43.9109 16.4914 44.1572L31.8094 53.0636C32.7138 53.5942 34.1646 53.5942 35.0501 53.0636L50.2739 44.1572C50.6884 43.9109 50.9145 43.6077 50.9334 43.2855V43.2287C50.9334 43.2097 50.9334 43.2097 50.9334 43.1908V42.9255C50.8957 43.2287 50.6884 43.5508 50.2739 43.7972Z" fill="#76B1FF"/>
<path d="M50.2739 43.5057L35.0501 52.4121C34.1646 52.9427 32.695 52.9427 31.8094 52.4121L16.4914 43.5057C16.0769 43.2594 15.8508 42.9562 15.8131 42.634V42.9183C15.8131 42.9183 15.8131 42.9183 15.8131 42.9372V42.9941C15.8508 43.3162 16.0581 43.6194 16.4914 43.8658L31.8094 52.7721C32.7138 53.3027 34.1646 53.3027 35.0501 52.7721L50.2739 43.8658C50.6884 43.6194 50.9145 43.3162 50.9334 42.9941V42.9372C50.9334 42.9183 50.9334 42.9183 50.9334 42.8993V42.634C50.8957 42.9372 50.6884 43.2594 50.2739 43.5057Z" fill="url(#paint3_linear)"/>
<mask id="mask0" style="mask-type:alpha" maskUnits="userSpaceOnUse" x="13" y="38" width="41" height="13">
<rect x="13" y="38.2383" width="40.7914" height="12.6594" fill="#E6F0FF"/>
</mask>
<g mask="url(#mask0)">
<path fill-rule="evenodd" clip-rule="evenodd" d="M34.9698 28.6124L50.297 37.4804C51.202 38.0087 51.202 38.8578 50.3159 39.3672L35.0641 48.2352C34.178 48.7635 32.7264 48.7635 31.8214 48.2352L16.4942 39.3672C15.5893 38.8389 15.5893 38.0087 16.4754 37.4804L31.7272 28.6124C32.6132 28.0841 34.0649 28.0841 34.9698 28.6124ZM34.4319 31.4741L45.2722 37.7383C45.9132 38.0968 45.9132 38.7006 45.2722 39.078L34.5073 45.3421C33.8663 45.7006 32.8483 45.7006 32.2073 45.3421L21.3858 39.078C20.7637 38.7006 20.7448 38.0968 21.3858 37.7383L32.1319 31.4741C32.7729 31.1157 33.7909 31.1157 34.4319 31.4741Z" fill="url(#paint4_linear)"/>
</g>
<path d="M50.9334 56.9893C50.9334 56.9705 50.9334 56.9705 50.9334 56.9517V47.8714H47.1979L34.9457 56.2134C34.0418 55.6864 32.5918 55.6864 31.7067 56.2134L19.4175 47.8714H15.8131V56.9517V57.0269C15.8508 57.3469 16.0579 57.648 16.4911 57.8927L31.8008 66.7386C32.7047 67.2656 34.1547 67.2656 35.0398 66.7386L50.2554 57.8927C50.6697 57.648 50.8957 57.3469 50.9145 57.0269L50.9334 56.9893Z" fill="url(#paint5_linear)"/>
<path d="M50.2739 53.3325L35.0501 62.2389C34.1646 62.7695 32.695 62.7695 31.8094 62.2389L16.4914 53.3325C16.0769 53.0862 15.8508 52.783 15.8131 52.4609V52.7451C15.8131 52.7451 15.8131 52.7451 15.8131 52.7641V52.8209C15.8508 53.1431 16.0581 53.4462 16.4914 53.6926L31.8094 62.599C32.7138 63.1296 34.1646 63.1296 35.0501 62.599L50.2739 53.6926C50.6884 53.4462 50.9145 53.1431 50.9334 52.8209V52.7641C50.9334 52.7451 50.9334 52.7451 50.9334 52.7262V52.4609C50.8957 52.7641 50.6884 53.0862 50.2739 53.3325Z" fill="#76B1FF"/>
<path d="M50.2739 53.0411L35.0501 61.9475C34.1646 62.4781 32.695 62.4781 31.8094 61.9475L16.4914 53.0411C16.0769 52.7947 15.8508 52.4916 15.8131 52.1694V52.4537C15.8131 52.4537 15.8131 52.4537 15.8131 52.4726V52.5295C15.8508 52.8516 16.0581 53.1548 16.4914 53.4011L31.8094 62.3075C32.7138 62.8381 34.1646 62.8381 35.0501 62.3075L50.2739 53.4011C50.6884 53.1548 50.9145 52.8516 50.9334 52.5295V52.4726C50.9334 52.4537 50.9334 52.4537 50.9334 52.4347V52.1694C50.8957 52.4726 50.6884 52.7947 50.2739 53.0411Z" fill="url(#paint6_linear)"/>
<mask id="mask1" style="mask-type:alpha" maskUnits="userSpaceOnUse" x="13" y="47" width="41" height="14">
<rect x="13" y="47.7737" width="40.7914" height="12.6594" fill="#E6F0FF"/>
</mask>
<g mask="url(#mask1)">
<path fill-rule="evenodd" clip-rule="evenodd" d="M34.9698 38.1478L50.297 47.0158C51.202 47.5441 51.202 48.3931 50.3159 48.9026L35.0641 57.7705C34.178 58.2988 32.7264 58.2988 31.8214 57.7705L16.4942 48.9026C15.5893 48.3743 15.5893 47.5441 16.4754 47.0158L31.7272 38.1478C32.6132 37.6195 34.0649 37.6195 34.9698 38.1478ZM34.4319 41.0095L45.2722 47.2737C45.9132 47.6322 45.9132 48.236 45.2722 48.6134L34.5073 54.8775C33.8663 55.236 32.8483 55.236 32.2073 54.8775L21.3858 48.6134C20.7637 48.236 20.7448 47.6322 21.3858 47.2737L32.1319 41.0095C32.7729 40.6511 33.7909 40.6511 34.4319 41.0095Z" fill="url(#paint7_linear)"/>
</g>
<path d="M50.9334 56.9893C50.9334 56.9705 50.9334 56.9705 50.9334 56.9517V47.8714H47.1979L34.9457 56.2134C34.0418 55.6864 32.5918 55.6864 31.7067 56.2134L19.4175 47.8714H15.8131V56.9517V57.0269C15.8508 57.3469 16.0579 57.648 16.4911 57.8927L31.8008 66.7386C32.7047 67.2656 34.1547 67.2656 35.0398 66.7386L50.2554 57.8927C50.6697 57.648 50.8957 57.3469 50.9145 57.0269L50.9334 56.9893Z" fill="url(#paint8_linear)"/>
<path d="M50.2739 53.3325L35.0501 62.2389C34.1646 62.7695 32.695 62.7695 31.8094 62.2389L16.4914 53.3325C16.0769 53.0862 15.8508 52.783 15.8131 52.4609V52.7451C15.8131 52.7451 15.8131 52.7451 15.8131 52.7641V52.8209C15.8508 53.1431 16.0581 53.4462 16.4914 53.6926L31.8094 62.599C32.7138 63.1296 34.1646 63.1296 35.0501 62.599L50.2739 53.6926C50.6884 53.4462 50.9145 53.1431 50.9334 52.8209V52.7641C50.9334 52.7451 50.9334 52.7451 50.9334 52.7262V52.4609C50.8957 52.7641 50.6884 53.0862 50.2739 53.3325Z" fill="#76B1FF"/>
<path d="M50.2739 53.0411L35.0501 61.9475C34.1646 62.4781 32.695 62.4781 31.8094 61.9475L16.4914 53.0411C16.0769 52.7947 15.8508 52.4916 15.8131 52.1694V52.4537C15.8131 52.4537 15.8131 52.4537 15.8131 52.4726V52.5295C15.8508 52.8516 16.0581 53.1548 16.4914 53.4011L31.8094 62.3075C32.7138 62.8381 34.1646 62.8381 35.0501 62.3075L50.2739 53.4011C50.6884 53.1548 50.9145 52.8516 50.9334 52.5295V52.4726C50.9334 52.4537 50.9334 52.4537 50.9334 52.4347V52.1694C50.8957 52.4726 50.6884 52.7947 50.2739 53.0411Z" fill="url(#paint9_linear)"/>
<mask id="mask2" style="mask-type:alpha" maskUnits="userSpaceOnUse" x="13" y="47" width="41" height="14">
<rect x="13" y="47.7737" width="40.7914" height="12.6594" fill="#E6F0FF"/>
</mask>
<g mask="url(#mask2)">
<path fill-rule="evenodd" clip-rule="evenodd" d="M34.9698 38.1478L50.297 47.0158C51.202 47.5441 51.202 48.3931 50.3159 48.9026L35.0641 57.7705C34.178 58.2988 32.7264 58.2988 31.8214 57.7705L16.4942 48.9026C15.5893 48.3743 15.5893 47.5441 16.4754 47.0158L31.7272 38.1478C32.6132 37.6195 34.0649 37.6195 34.9698 38.1478ZM34.4319 41.0095L45.2722 47.2737C45.9132 47.6322 45.9132 48.236 45.2722 48.6134L34.5073 54.8775C33.8663 55.236 32.8483 55.236 32.2073 54.8775L21.3858 48.6134C20.7637 48.236 20.7448 47.6322 21.3858 47.2737L32.1319 41.0095C32.7729 40.6511 33.7909 40.6511 34.4319 41.0095Z" fill="url(#paint10_linear)"/>
</g>
<path d="M50.9334 52.2599C50.9334 52.241 50.9334 52.241 50.9334 52.2222V43.1419H47.1979L34.9457 51.484C34.0418 50.957 32.5918 50.957 31.7067 51.484L19.4175 43.1419H15.8131V52.2222V52.2975C15.8508 52.6175 16.0579 52.9186 16.4911 53.1633L31.8008 62.0091C32.7047 62.5361 34.1547 62.5361 35.0398 62.0091L50.2554 53.1633C50.6697 52.9186 50.8957 52.6175 50.9145 52.2975L50.9334 52.2599Z" fill="url(#paint11_linear)"/>
<path d="M50.2739 48.6031L35.0501 57.5095C34.1646 58.0401 32.695 58.0401 31.8094 57.5095L16.4914 48.6031C16.0769 48.3568 15.8508 48.0536 15.8131 47.7314V48.0157C15.8131 48.0157 15.8131 48.0157 15.8131 48.0346V48.0915C15.8508 48.4136 16.0581 48.7168 16.4914 48.9632L31.8094 57.8695C32.7138 58.4001 34.1646 58.4001 35.0501 57.8695L50.2739 48.9632C50.6884 48.7168 50.9145 48.4136 50.9334 48.0915V48.0346C50.9334 48.0157 50.9334 48.0157 50.9334 47.9967V47.7314C50.8957 48.0346 50.6884 48.3568 50.2739 48.6031Z" fill="#76B1FF"/>
<path d="M50.2739 48.3117L35.0501 57.218C34.1646 57.7486 32.695 57.7486 31.8094 57.218L16.4914 48.3117C16.0769 48.0653 15.8508 47.7621 15.8131 47.44V47.7242C15.8131 47.7242 15.8131 47.7242 15.8131 47.7432V47.8C15.8508 48.1222 16.0581 48.4254 16.4914 48.6717L31.8094 57.5781C32.7138 58.1087 34.1646 58.1087 35.0501 57.5781L50.2739 48.6717C50.6884 48.4254 50.9145 48.1222 50.9334 47.8V47.7432C50.9334 47.7242 50.9334 47.7242 50.9334 47.7053V47.44C50.8957 47.7432 50.6884 48.0653 50.2739 48.3117Z" fill="url(#paint12_linear)"/>
<mask id="mask3" style="mask-type:alpha" maskUnits="userSpaceOnUse" x="13" y="43" width="41" height="13">
<rect x="13" y="43.0443" width="40.7914" height="12.6594" fill="#E6F0FF"/>
</mask>
<g mask="url(#mask3)">
<path fill-rule="evenodd" clip-rule="evenodd" d="M34.9698 33.4184L50.297 42.2863C51.202 42.8146 51.202 43.6637 50.3159 44.1731L35.0641 53.0411C34.178 53.5694 32.7264 53.5694 31.8214 53.0411L16.4942 44.1731C15.5893 43.6448 15.5893 42.8146 16.4754 42.2863L31.7272 33.4184C32.6132 32.8901 34.0649 32.8901 34.9698 33.4184ZM34.4319 36.2801L45.2722 42.5443C45.9132 42.9028 45.9132 43.5066 45.2722 43.8839L34.5073 50.1481C33.8663 50.5066 32.8483 50.5066 32.2073 50.1481L21.3858 43.8839C20.7637 43.5066 20.7448 42.9028 21.3858 42.5443L32.1319 36.2801C32.7729 35.9216 33.7909 35.9216 34.4319 36.2801Z" fill="url(#paint13_linear)"/>
</g>
<path d="M50.9334 47.4539C50.9334 47.4351 50.9334 47.4351 50.9334 47.4163V38.336H47.1979L34.9457 46.678C34.0418 46.151 32.5918 46.151 31.7067 46.678L19.4175 38.336H15.8131V47.4163V47.4915C15.8508 47.8115 16.0579 48.1126 16.4911 48.3573L31.8008 57.2032C32.7047 57.7302 34.1547 57.7302 35.0398 57.2032L50.2554 48.3573C50.6697 48.1126 50.8957 47.8115 50.9145 47.4915L50.9334 47.4539Z" fill="url(#paint14_linear)"/>
<path d="M50.2739 43.7972L35.0501 52.7035C34.1646 53.2341 32.695 53.2341 31.8094 52.7035L16.4914 43.7972C16.0769 43.5508 15.8508 43.2476 15.8131 42.9255V43.2097C15.8131 43.2097 15.8131 43.2097 15.8131 43.2287V43.2855C15.8508 43.6077 16.0581 43.9109 16.4914 44.1572L31.8094 53.0636C32.7138 53.5942 34.1646 53.5942 35.0501 53.0636L50.2739 44.1572C50.6884 43.9109 50.9145 43.6077 50.9334 43.2855V43.2287C50.9334 43.2097 50.9334 43.2097 50.9334 43.1908V42.9255C50.8957 43.2287 50.6884 43.5508 50.2739 43.7972Z" fill="#76B1FF"/>
<path d="M50.2739 43.5057L35.0501 52.4121C34.1646 52.9427 32.695 52.9427 31.8094 52.4121L16.4914 43.5057C16.0769 43.2594 15.8508 42.9562 15.8131 42.634V42.9183C15.8131 42.9183 15.8131 42.9183 15.8131 42.9372V42.9941C15.8508 43.3162 16.0581 43.6194 16.4914 43.8658L31.8094 52.7721C32.7138 53.3027 34.1646 53.3027 35.0501 52.7721L50.2739 43.8658C50.6884 43.6194 50.9145 43.3162 50.9334 42.9941V42.9372C50.9334 42.9183 50.9334 42.9183 50.9334 42.8993V42.634C50.8957 42.9372 50.6884 43.2594 50.2739 43.5057Z" fill="url(#paint15_linear)"/>
<mask id="mask4" style="mask-type:alpha" maskUnits="userSpaceOnUse" x="13" y="38" width="41" height="13">
<rect x="13" y="38.2383" width="40.7914" height="12.6594" fill="#E6F0FF"/>
</mask>
<g mask="url(#mask4)">
<path fill-rule="evenodd" clip-rule="evenodd" d="M34.9698 28.6124L50.297 37.4804C51.202 38.0087 51.202 38.8578 50.3159 39.3672L35.0641 48.2352C34.178 48.7635 32.7264 48.7635 31.8214 48.2352L16.4942 39.3672C15.5893 38.8389 15.5893 38.0087 16.4754 37.4804L31.7272 28.6124C32.6132 28.0841 34.0649 28.0841 34.9698 28.6124ZM34.4319 31.4741L45.2722 37.7383C45.9132 38.0968 45.9132 38.7006 45.2722 39.078L34.5073 45.3421C33.8663 45.7006 32.8483 45.7006 32.2073 45.3421L21.3858 39.078C20.7637 38.7006 20.7448 38.0968 21.3858 37.7383L32.1319 31.4741C32.7729 31.1157 33.7909 31.1157 34.4319 31.4741Z" fill="url(#paint16_linear)"/>
</g>
<path d="M50.9334 42.7245C50.9334 42.7056 50.9334 42.7056 50.9334 42.6868V33.6065H47.1979L34.9457 41.9486C34.0418 41.4216 32.5918 41.4216 31.7067 41.9486L19.4175 33.6065H15.8131V42.6868V42.7621C15.8508 43.0821 16.0579 43.3832 16.4911 43.6279L31.8008 52.4738C32.7047 53.0007 34.1547 53.0007 35.0398 52.4738L50.2554 43.6279C50.6697 43.3832 50.8957 43.0821 50.9145 42.7621L50.9334 42.7245Z" fill="url(#paint17_linear)"/>
<path d="M50.2739 39.0677L35.0501 47.9741C34.1646 48.5047 32.695 48.5047 31.8094 47.9741L16.4914 39.0677C16.0769 38.8214 15.8508 38.5182 15.8131 38.1961V38.4803C15.8131 38.4803 15.8131 38.4803 15.8131 38.4993V38.5561C15.8508 38.8782 16.0581 39.1814 16.4914 39.4278L31.8094 48.3342C32.7138 48.8648 34.1646 48.8648 35.0501 48.3342L50.2739 39.4278C50.6884 39.1814 50.9145 38.8782 50.9334 38.5561V38.4993C50.9334 38.4803 50.9334 38.4803 50.9334 38.4614V38.1961C50.8957 38.4993 50.6884 38.8214 50.2739 39.0677Z" fill="#76B1FF"/>
<path d="M50.2739 38.7763L35.0501 47.6827C34.1646 48.2133 32.695 48.2133 31.8094 47.6827L16.4914 38.7763C16.0769 38.5299 15.8508 38.2267 15.8131 37.9046V38.1888C15.8131 38.1888 15.8131 38.1888 15.8131 38.2078V38.2646C15.8508 38.5868 16.0581 38.89 16.4914 39.1363L31.8094 48.0427C32.7138 48.5733 34.1646 48.5733 35.0501 48.0427L50.2739 39.1363C50.6884 38.89 50.9145 38.5868 50.9334 38.2646V38.2078C50.9334 38.1888 50.9334 38.1888 50.9334 38.1699V37.9046C50.8957 38.2078 50.6884 38.5299 50.2739 38.7763Z" fill="url(#paint18_linear)"/>
<mask id="mask5" style="mask-type:alpha" maskUnits="userSpaceOnUse" x="13" y="33" width="41" height="14">
<rect x="13" y="33.5089" width="40.7914" height="12.6594" fill="#E6F0FF"/>
</mask>
<g mask="url(#mask5)">
<path fill-rule="evenodd" clip-rule="evenodd" d="M34.9698 23.883L50.297 32.751C51.202 33.2793 51.202 34.1283 50.3159 34.6378L35.0641 43.5057C34.178 44.034 32.7264 44.034 31.8214 43.5057L16.4942 34.6378C15.5893 34.1095 15.5893 33.2793 16.4754 32.751L31.7272 23.883C32.6132 23.3547 34.0649 23.3547 34.9698 23.883ZM34.4319 26.7447L45.2722 33.0089C45.9132 33.3674 45.9132 33.9712 45.2722 34.3485L34.5073 40.6127C33.8663 40.9712 32.8483 40.9712 32.2073 40.6127L21.3858 34.3485C20.7637 33.9712 20.7448 33.3674 21.3858 33.0089L32.1319 26.7447C32.7729 26.3862 33.7909 26.3862 34.4319 26.7447Z" fill="url(#paint19_linear)"/>
</g>
<path d="M50.9334 37.995C50.9334 37.9762 50.9334 37.9762 50.9334 37.9574V28.8771H47.1979L34.9457 37.2191C34.0418 36.6921 32.5918 36.6921 31.7067 37.2191L19.4175 28.8771H15.8131V37.9574V38.0327C15.8508 38.3526 16.0579 38.6538 16.4911 38.8984L31.8008 47.7443C32.7047 48.2713 34.1547 48.2713 35.0398 47.7443L50.2554 38.8984C50.6697 38.6538 50.8957 38.3526 50.9145 38.0327L50.9334 37.995Z" fill="url(#paint20_linear)"/>
<path d="M50.2739 34.3383L35.0501 43.2447C34.1646 43.7753 32.695 43.7753 31.8094 43.2447L16.4914 34.3383C16.0769 34.0919 15.8508 33.7887 15.8131 33.4666V33.7508C15.8131 33.7508 15.8131 33.7508 15.8131 33.7698V33.8266C15.8508 34.1488 16.0581 34.452 16.4914 34.6983L31.8094 43.6047C32.7138 44.1353 34.1646 44.1353 35.0501 43.6047L50.2739 34.6983C50.6884 34.452 50.9145 34.1488 50.9334 33.8266V33.7698C50.9334 33.7508 50.9334 33.7508 50.9334 33.7319V33.4666C50.8957 33.7698 50.6884 34.0919 50.2739 34.3383Z" fill="#76B1FF"/>
<path d="M50.2739 34.0468L35.0501 42.9532C34.1646 43.4838 32.695 43.4838 31.8094 42.9532L16.4914 34.0468C16.0769 33.8005 15.8508 33.4973 15.8131 33.1752V33.4594C15.8131 33.4594 15.8131 33.4594 15.8131 33.4784V33.5352C15.8508 33.8573 16.0581 34.1605 16.4914 34.4069L31.8094 43.3133C32.7138 43.8439 34.1646 43.8439 35.0501 43.3133L50.2739 34.4069C50.6884 34.1605 50.9145 33.8573 50.9334 33.5352V33.4784C50.9334 33.4594 50.9334 33.4594 50.9334 33.4405V33.1752C50.8957 33.4784 50.6884 33.8005 50.2739 34.0468Z" fill="url(#paint21_linear)"/>
<mask id="mask6" style="mask-type:alpha" maskUnits="userSpaceOnUse" x="13" y="28" width="41" height="14">
<rect x="13" y="28.7795" width="40.7914" height="12.6594" fill="#E6F0FF"/>
</mask>
<g mask="url(#mask6)">
<path fill-rule="evenodd" clip-rule="evenodd" d="M34.9698 19.1535L50.297 28.0215C51.202 28.5498 51.202 29.3989 50.3159 29.9083L35.0641 38.7763C34.178 39.3046 32.7264 39.3046 31.8214 38.7763L16.4942 29.9083C15.5893 29.38 15.5893 28.5498 16.4754 28.0215L31.7272 19.1535C32.6132 18.6252 34.0649 18.6252 34.9698 19.1535ZM34.4319 22.0153L45.2722 28.2795C45.9132 28.638 45.9132 29.2418 45.2722 29.6191L34.5073 35.8833C33.8663 36.2418 32.8483 36.2418 32.2073 35.8833L21.3858 29.6191C20.7637 29.2418 20.7448 28.638 21.3858 28.2795L32.1319 22.0153C32.7729 21.6568 33.7909 21.6568 34.4319 22.0153Z" fill="url(#paint22_linear)"/>
</g>
<path d="M66.9748 59.4413L55.7434 52.6585C55.0793 52.2704 54.0245 52.2704 53.3604 52.6585L42.2266 59.4413C41.5625 59.8294 41.582 60.4832 42.2266 60.8918L53.4385 67.6745C54.1026 68.0627 55.1574 68.0627 55.8215 67.6745L66.9748 60.8918C67.6389 60.4832 67.6389 59.8294 66.9748 59.4413Z" fill="url(#paint23_linear)"/>
<path d="M50.9334 33.2656C50.9334 33.2468 50.9334 33.2468 50.9334 33.228V24.1477H47.1979L34.9457 32.4897C34.0418 31.9627 32.5918 31.9627 31.7067 32.4897L19.4175 24.1477H15.8131V33.228V33.3032C15.8508 33.6232 16.0579 33.9243 16.4911 34.169L31.8008 43.0149C32.7047 43.5419 34.1547 43.5419 35.0398 43.0149L50.2554 34.169C50.6697 33.9243 50.8957 33.6232 50.9145 33.3032L50.9334 33.2656Z" fill="url(#paint24_linear)"/>
<path d="M50.2739 29.6089L35.0501 38.5153C34.1646 39.0458 32.695 39.0458 31.8094 38.5153L16.4914 29.6089C16.0769 29.3625 15.8508 29.0593 15.8131 28.7372V29.0214C15.8131 29.0214 15.8131 29.0214 15.8131 29.0404V29.0972C15.8508 29.4194 16.0581 29.7226 16.4914 29.9689L31.8094 38.8753C32.7138 39.4059 34.1646 39.4059 35.0501 38.8753L50.2739 29.9689C50.6884 29.7226 50.9145 29.4194 50.9334 29.0972V29.0404C50.9334 29.0214 50.9334 29.0214 50.9334 29.0025V28.7372C50.8957 29.0404 50.6884 29.3625 50.2739 29.6089Z" fill="#76B1FF"/>
<path d="M50.2739 29.3174L35.0501 38.2238C34.1646 38.7544 32.695 38.7544 31.8094 38.2238L16.4914 29.3174C16.0769 29.0711 15.8508 28.7679 15.8131 28.4457V28.73C15.8131 28.73 15.8131 28.73 15.8131 28.7489V28.8058C15.8508 29.1279 16.0581 29.4311 16.4914 29.6775L31.8094 38.5838C32.7138 39.1144 34.1646 39.1144 35.0501 38.5838L50.2739 29.6775C50.6884 29.4311 50.9145 29.1279 50.9334 28.8058V28.7489C50.9334 28.73 50.9334 28.73 50.9334 28.711V28.4457C50.8957 28.7489 50.6884 29.0711 50.2739 29.3174Z" fill="url(#paint25_linear)"/>
<mask id="mask7" style="mask-type:alpha" maskUnits="userSpaceOnUse" x="13" y="24" width="41" height="13">
<rect x="13" y="24.05" width="40.7914" height="12.6594" fill="#E6F0FF"/>
</mask>
<g mask="url(#mask7)">
<path fill-rule="evenodd" clip-rule="evenodd" d="M34.9698 14.4241L50.297 23.2921C51.202 23.8204 51.202 24.6694 50.3159 25.1789L35.0641 34.0469C34.178 34.5752 32.7264 34.5752 31.8214 34.0469L16.4942 25.1789C15.5893 24.6506 15.5893 23.8204 16.4754 23.2921L31.7272 14.4241C32.6132 13.8958 34.0649 13.8958 34.9698 14.4241ZM34.4319 17.2859L45.2722 23.55C45.9132 23.9085 45.9132 24.5123 45.2722 24.8897L34.5073 31.1539C33.8663 31.5124 32.8483 31.5124 32.2073 31.1539L21.3858 24.8897C20.7637 24.5123 20.7448 23.9085 21.3858 23.55L32.1319 17.2859C32.7729 16.9274 33.7909 16.9274 34.4319 17.2859Z" fill="url(#paint26_linear)"/>
</g>
<path fill-rule="evenodd" clip-rule="evenodd" d="M34.9698 14.3962L50.297 23.2642C51.202 23.7925 51.202 24.6416 50.3159 25.151L35.0641 34.019C34.178 34.5473 32.7264 34.5473 31.8214 34.019L16.4942 25.151C15.5893 24.6227 15.5893 23.7925 16.4754 23.2642L31.7272 14.3962C32.6132 13.8679 34.0649 13.8679 34.9698 14.3962ZM34.4318 17.258L45.2721 23.5222C45.9131 23.8807 45.9131 24.4844 45.2721 24.8618L34.5072 31.126C33.8662 31.4845 32.8482 31.4845 32.2072 31.126L21.3858 24.8618C20.7636 24.4844 20.7448 23.8807 21.3858 23.5222L32.1318 17.258C32.7728 16.8995 33.7908 16.8995 34.4318 17.258Z" fill="url(#paint27_linear)"/>
<path d="M48.8505 27.3508C48.8505 27.1959 48.6819 27.0998 48.5486 27.1787L37.0981 33.9578C37.0373 33.9938 37 34.0592 37 34.1299L37 35.6992C37 35.8541 37.1686 35.9502 37.3019 35.8713L48.7523 29.0922C48.8132 29.0562 48.8505 28.9908 48.8505 28.9201V27.3508Z" fill="#CCE2FF"/>
<path d="M23 31.6435C23 31.7984 22.8314 31.8945 22.6981 31.8156L18.0981 29.0922C18.0373 29.0562 18 28.9908 18 28.9201L18 27.3508C18 27.1959 18.1686 27.0998 18.3019 27.1787L22.9019 29.9021C22.9627 29.9381 23 30.0035 23 30.0742V31.6435Z" fill="#CCE2FF"/>
<path d="M23 45.9492C23 46.1041 22.8314 46.2002 22.6981 46.1213L18.0981 43.3979C18.0373 43.3619 18 43.2965 18 43.2258L18 41.6565C18 41.5016 18.1686 41.4055 18.3019 41.4844L22.9019 44.2078C22.9627 44.2438 23 44.3092 23 44.3799V45.9492Z" fill="#CCE2FF"/>
<path d="M29.8223 35.6497C29.8223 35.8045 29.6539 35.9006 29.5206 35.822L24.5983 32.9168C24.5374 32.8808 24.5 32.8153 24.5 32.7446V31.1598C24.5 31.0048 24.6686 30.9087 24.802 30.9877L29.7242 33.9049C29.785 33.9409 29.8223 34.0063 29.8223 34.0769V35.6497Z" fill="#CCE2FF"/>
<path d="M29.8223 49.9497C29.8223 50.1045 29.6539 50.2007 29.5206 50.122L24.5983 47.2168C24.5374 47.1808 24.5 47.1153 24.5 47.0446V45.4598C24.5 45.3048 24.6686 45.2087 24.802 45.2877L29.7242 48.2049C29.785 48.2409 29.8223 48.3063 29.8223 48.377V49.9497Z" fill="#CCE2FF"/>
<path d="M48.8505 36.8508C48.8505 36.6959 48.6819 36.5998 48.5486 36.6787L37.0981 43.4578C37.0373 43.4938 37 43.5592 37 43.6299L37 45.1992C37 45.3541 37.1686 45.4502 37.3019 45.3713L48.7523 38.5922C48.8132 38.5562 48.8505 38.4908 48.8505 38.4201V36.8508Z" fill="#CCE2FF"/>
<path d="M48.8505 46.3508C48.8505 46.1959 48.6819 46.0998 48.5486 46.1787L37.0981 52.9578C37.0373 52.9938 37 53.0592 37 53.1299L37 54.6992C37 54.8541 37.1686 54.9502 37.3019 54.8713L48.7523 48.0922C48.8132 48.0562 48.8505 47.9908 48.8505 47.9201V46.3508Z" fill="#CCE2FF"/>
<path d="M48.8505 32.1508C48.8505 31.9959 48.6819 31.8998 48.5486 31.9787L37.0981 38.7578C37.0373 38.7938 37 38.8592 37 38.9299L37 40.4992C37 40.6541 37.1686 40.7502 37.3019 40.6713L48.7523 33.8922C48.8132 33.8562 48.8505 33.7908 48.8505 33.7201V32.1508Z" fill="#CCE2FF"/>
<path d="M29.8505 40.6992C29.8505 40.8541 29.6819 40.9502 29.5486 40.8713L18.0981 34.0922C18.0373 34.0562 18 33.9908 18 33.9201L18 32.3508C18 32.1959 18.1686 32.0998 18.3019 32.1787L29.7523 38.9578C29.8132 38.9938 29.8505 39.0592 29.8505 39.1299V40.6992Z" fill="#CCE2FF"/>
<path d="M29.8505 59.6992C29.8505 59.8541 29.6819 59.9502 29.5486 59.8713L18.0981 53.0922C18.0373 53.0562 18 52.9908 18 52.9201L18 51.3508C18 51.1959 18.1686 51.0998 18.3019 51.1787L29.7523 57.9578C29.8132 57.9938 29.8505 58.0592 29.8505 58.1299V59.6992Z" fill="#CCE2FF"/>
<path d="M29.8505 65.2733C29.8505 65.4273 29.6837 65.5235 29.5503 65.4464L18.0999 58.8234C18.0381 58.7876 18 58.7217 18 58.6503L18 56.3508C18 56.1959 18.1686 56.0998 18.3019 56.1787L29.7523 62.9578C29.8132 62.9938 29.8505 63.0592 29.8505 63.1299V65.2733Z" fill="#CCE2FF"/>
<path d="M29.8505 54.7492C29.8505 54.9041 29.6819 55.0002 29.5486 54.9213L18.0981 48.1422C18.0373 48.1062 18 48.0408 18 47.9701L18 46.4008C18 46.2459 18.1686 46.1498 18.3019 46.2287L29.7523 53.0078C29.8132 53.0438 29.8505 53.1092 29.8505 53.1799V54.7492Z" fill="#CCE2FF"/>
<path d="M29.8505 45.2492C29.8505 45.4041 29.6819 45.5002 29.5486 45.4213L18.0981 38.6422C18.0373 38.6062 18 38.5408 18 38.4701L18 36.9008C18 36.7459 18.1686 36.6498 18.3019 36.7287L29.7523 43.5078C29.8132 43.5438 29.8505 43.6092 29.8505 43.6799V45.2492Z" fill="#CCE2FF"/>
<path d="M48.8505 41.7508C48.8505 41.5959 48.6819 41.4998 48.5486 41.5787L37.0981 48.3578C37.0373 48.3938 37 48.4592 37 48.5299L37 50.0992C37 50.2541 37.1686 50.3502 37.3019 50.2713L48.7523 43.4922C48.8132 43.4562 48.8505 43.3908 48.8505 43.3201V41.7508Z" fill="#CCE2FF"/>
<path d="M48.8505 51.2508C48.8505 51.0959 48.6819 50.9998 48.5486 51.0787L37.0981 57.8578C37.0373 57.8938 37 57.9592 37 58.0299L37 59.5992C37 59.7541 37.1686 59.8502 37.3019 59.7713L48.7523 52.9922C48.8132 52.9562 48.8505 52.8908 48.8505 52.8201V51.2508Z" fill="#CCE2FF"/>
<path d="M72.142 69.2933C72.142 69.2745 72.142 69.2745 72.142 69.2556V60.1754H68.4066L56.1543 68.5174C55.2504 67.9904 53.8004 67.9904 52.9154 68.5174L40.6262 60.1754H37.0218V69.2556V69.3309C37.0595 69.6509 37.2666 69.952 37.6997 70.1967L53.0095 79.0426C53.9134 79.5696 55.3634 79.5696 56.2485 79.0426L71.4641 70.1967C71.8784 69.952 72.1044 69.6509 72.1232 69.3309L72.142 69.2933Z" fill="url(#paint28_linear)"/>
<path d="M71.4826 65.6365L56.2588 74.5429C55.3732 75.0735 53.9036 75.0735 53.0181 74.5429L37.7001 65.6365C37.2856 65.3902 37.0595 65.087 37.0218 64.7649V65.0491C37.0218 65.0491 37.0218 65.0491 37.0218 65.068V65.1249C37.0595 65.447 37.2667 65.7502 37.7001 65.9966L53.0181 74.903C53.9225 75.4336 55.3732 75.4336 56.2588 74.903L71.4826 65.9966C71.8971 65.7502 72.1232 65.447 72.142 65.1249V65.068C72.142 65.0491 72.142 65.0491 72.142 65.0301V64.7649C72.1043 65.068 71.8971 65.3902 71.4826 65.6365Z" fill="#76B1FF"/>
<path d="M71.4826 65.3451L56.2588 74.2515C55.3732 74.7821 53.9036 74.7821 53.0181 74.2515L37.7001 65.3451C37.2856 65.0987 37.0595 64.7955 37.0218 64.4734V64.7577C37.0218 64.7577 37.0218 64.7577 37.0218 64.7766V64.8334C37.0595 65.1556 37.2667 65.4588 37.7001 65.7051L53.0181 74.6115C53.9225 75.1421 55.3732 75.1421 56.2588 74.6115L71.4826 65.7051C71.8971 65.4588 72.1232 65.1556 72.142 64.8334V64.7766C72.142 64.7577 72.142 64.7577 72.142 64.7387V64.4734C72.1043 64.7766 71.8971 65.0987 71.4826 65.3451Z" fill="url(#paint29_linear)"/>
<mask id="mask8" style="mask-type:alpha" maskUnits="userSpaceOnUse" x="34" y="60" width="41" height="13">
<rect x="34.2086" y="60.0777" width="40.7914" height="12.6594" fill="#E6F0FF"/>
</mask>
<g mask="url(#mask8)">
<path fill-rule="evenodd" clip-rule="evenodd" d="M56.1785 50.4518L71.5057 59.3198C72.4107 59.8481 72.4107 60.6971 71.5246 61.2066L56.2728 70.0745C55.3867 70.6028 53.935 70.6028 53.0301 70.0745L37.7029 61.2066C36.798 60.6783 36.798 59.8481 37.684 59.3198L52.9358 50.4518C53.8219 49.9235 55.2736 49.9235 56.1785 50.4518ZM55.6405 53.3135L66.4808 59.5777C67.1218 59.9362 67.1218 60.54 66.4808 60.9173L55.7159 67.1815C55.075 67.54 54.0569 67.54 53.4159 67.1815L42.5945 60.9173C41.9723 60.54 41.9535 59.9362 42.5945 59.5777L53.3405 53.3135C53.9815 52.955 54.9995 52.955 55.6405 53.3135Z" fill="url(#paint30_linear)"/>
</g>
<path fill-rule="evenodd" clip-rule="evenodd" d="M56.1785 50.4239L71.5057 59.2919C72.4106 59.8202 72.4106 60.6692 71.5245 61.1787L56.2727 70.0466C55.3867 70.575 53.935 70.575 53.0301 70.0466L37.7029 61.1787C36.7979 60.6504 36.7979 59.8202 37.684 59.2919L52.9358 50.4239C53.8219 49.8956 55.2735 49.8956 56.1785 50.4239ZM55.6405 53.2856L66.4808 59.5498C67.1217 59.9083 67.1217 60.5121 66.4808 60.8895L55.7159 67.1536C55.0749 67.5121 54.0568 67.5121 53.4159 67.1536L42.5944 60.8895C41.9723 60.5121 41.9534 59.9083 42.5944 59.5498L53.3404 53.2856C53.9814 52.9271 54.9995 52.9271 55.6405 53.2856Z" fill="url(#paint31_linear)"/>
<path d="M39 56.1V58.5" stroke="#4491F2" stroke-width="0.5"/>
<path d="M46 52V54.4" stroke="#4491F2" stroke-width="0.5"/>
<path d="M42 54.35V56.75" stroke="#4491F2" stroke-width="0.5"/>
<path d="M43 53.8V56.2" stroke="#4491F2" stroke-width="0.5"/>
<path d="M39 32.6V35" stroke="#5EA6F7" stroke-width="0.5"/>
<path d="M39 42.1V44.5" stroke="#4491F2" stroke-width="0.5"/>
<path d="M46 28.5V30.9" stroke="#5EA6F7" stroke-width="0.5"/>
<path d="M46 38V40.4" stroke="#4491F2" stroke-width="0.5"/>
<path d="M42 30.85V33.25" stroke="#5EA6F7" stroke-width="0.5"/>
<path d="M42 40.35V42.75" stroke="#4491F2" stroke-width="0.5"/>
<path d="M43 30.3V32.7" stroke="#5EA6F7" stroke-width="0.5"/>
<path d="M20 35.4V33" stroke="#4E99F4" stroke-width="0.5"/>
<path d="M27 39.5V37.1" stroke="#4E99F4" stroke-width="0.5"/>
<path d="M23 37.15V34.75" stroke="#4E99F4" stroke-width="0.5"/>
<path d="M24 37.7V35.3" stroke="#4E99F4" stroke-width="0.5"/>
<path d="M20 49.4V47" stroke="#4E99F4" stroke-width="0.5"/>
<path d="M27 53.5V51.1" stroke="#4E99F4" stroke-width="0.5"/>
<path d="M23 51.15V48.75" stroke="#4E99F4" stroke-width="0.5"/>
<path d="M24 51.7V49.3" stroke="#4E99F4" stroke-width="0.5"/>
<path fill-rule="evenodd" clip-rule="evenodd" d="M19.75 57V59.78L20.25 60.07V57H19.75Z" fill="#4E99F4"/>
<path fill-rule="evenodd" clip-rule="evenodd" d="M26.75 61.1V63.84L27.25 64.12V61.1H26.75Z" fill="#4E99F4"/>
<path fill-rule="evenodd" clip-rule="evenodd" d="M22.75 58.75V61.52L23.25 61.81V58.75H22.75Z" fill="#4E99F4"/>
<path fill-rule="evenodd" clip-rule="evenodd" d="M23.75 59.3V62.1L24.25 62.39V59.3H23.75Z" fill="#4E99F4"/>
<path d="M43 39.8V42.2" stroke="#4491F2" stroke-width="0.5"/>
<path d="M69.8505 63.5508C69.8505 63.3959 69.6819 63.2998 69.5486 63.3787L58.0981 70.1578C58.0373 70.1938 58 70.2592 58 70.3299L58 71.8992C58 72.0541 58.1686 72.1502 58.3019 72.0713L69.7523 65.2922C69.8132 65.2562 69.8505 65.1908 69.8505 65.1201V63.5508Z" fill="#CCE2FF"/>
<path d="M44 67.7492C44 67.9041 43.8314 68.0002 43.6981 67.9213L39.0981 65.1979C39.0373 65.1619 39 65.0965 39 65.0258L39 63.4565C39 63.3016 39.1686 63.2055 39.3019 63.2844L43.9019 66.0078C43.9627 66.0438 44 66.1092 44 66.1799V67.7492Z" fill="#CCE2FF"/>
<path d="M50.8223 71.7497C50.8223 71.9045 50.6539 72.0007 50.5206 71.922L45.5983 69.0168C45.5374 68.9809 45.5 68.9154 45.5 68.8446V67.2598C45.5 67.1048 45.6686 67.0087 45.802 67.0877L50.7242 70.0049C50.785 70.0409 50.8223 70.1063 50.8223 70.177V71.7497Z" fill="#CCE2FF"/>
<path d="M60 68.8V71.2" stroke="#5EA6F7" stroke-width="0.5"/>
<path d="M67 64.7V67.1" stroke="#5EA6F7" stroke-width="0.5"/>
<path d="M63 67.05V69.45" stroke="#5EA6F7" stroke-width="0.5"/>
<path d="M64 66.5V68.9" stroke="#5EA6F7" stroke-width="0.5"/>
<path d="M58 77.6733C58 77.8273 58.1668 77.9235 58.3001 77.8464L69.7506 71.2234C69.8124 71.1876 69.8505 71.1217 69.8505 71.0503V68.7508C69.8505 68.5959 69.6819 68.4998 69.5486 68.5787L58.0981 75.3578C58.0373 75.3938 58 75.4592 58 75.5299V77.6733Z" fill="#CCE2FF"/>
<path fill-rule="evenodd" clip-rule="evenodd" d="M68.1005 69.4V72.18L67.6005 72.47V69.4H68.1005Z" fill="#4E99F4"/>
<path fill-rule="evenodd" clip-rule="evenodd" d="M61.1005 73.5V76.24L60.6005 76.52V73.5H61.1005Z" fill="#4E99F4"/>
<path fill-rule="evenodd" clip-rule="evenodd" d="M65.1005 71.15V73.92L64.6005 74.21V71.15H65.1005Z" fill="#4E99F4"/>
<path fill-rule="evenodd" clip-rule="evenodd" d="M64.1005 71.7V74.5L63.6005 74.79V71.7H64.1005Z" fill="#4E99F4"/>
</g>
<defs>
<filter id="filter0_f" x="-33.8126" y="-26.3013" width="134.417" height="121.158" filterUnits="userSpaceOnUse" color-interpolation-filters="sRGB">
<feFlood flood-opacity="0" result="BackgroundImageFix"/>
<feBlend mode="normal" in="SourceGraphic" in2="BackgroundImageFix" result="shape"/>
<feGaussianBlur stdDeviation="26" result="effect1_foregroundBlur"/>
</filter>
<linearGradient id="paint0_linear" x1="33.3957" y1="25.6987" x2="33.3957" y2="44.7614" gradientUnits="userSpaceOnUse">
<stop stop-color="#8CC9FF"/>
<stop offset="0.980943" stop-color="#1C73DB"/>
</linearGradient>
<linearGradient id="paint1_linear" x1="16.7927" y1="22.7174" x2="51.9513" y2="22.7174" gradientUnits="userSpaceOnUse">
<stop stop-color="#0454BD"/>
<stop offset="0.488564" stop-color="#3A9AFF"/>
<stop offset="1" stop-color="#0454BD"/>
</linearGradient>
<linearGradient id="paint2_linear" x1="33.3733" y1="34.0346" x2="33.3733" y2="57.5985" gradientUnits="userSpaceOnUse">
<stop stop-color="#84C4FF"/>
<stop offset="1" stop-color="#2F80ED"/>
</linearGradient>
<linearGradient id="paint3_linear" x1="33.3733" y1="44.687" x2="33.3733" y2="54.5941" gradientUnits="userSpaceOnUse">
<stop stop-color="#0F65D9"/>
<stop offset="1" stop-color="#0085FF"/>
</linearGradient>
<linearGradient id="paint4_linear" x1="33.3956" y1="28.2207" x2="33.3956" y2="52.7639" gradientUnits="userSpaceOnUse">
<stop stop-color="#E6F0FF"/>
<stop offset="1" stop-color="#80B6FF"/>
</linearGradient>
<linearGradient id="paint5_linear" x1="33.3733" y1="43.57" x2="33.3733" y2="67.1339" gradientUnits="userSpaceOnUse">
<stop stop-color="#84C4FF"/>
<stop offset="1" stop-color="#2F80ED"/>
</linearGradient>
<linearGradient id="paint6_linear" x1="33.3733" y1="54.2223" x2="33.3733" y2="64.1295" gradientUnits="userSpaceOnUse">
<stop stop-color="#0F65D9"/>
<stop offset="1" stop-color="#0085FF"/>
</linearGradient>
<linearGradient id="paint7_linear" x1="33.3956" y1="37.7561" x2="33.3956" y2="62.2993" gradientUnits="userSpaceOnUse">
<stop stop-color="#E6F0FF"/>
<stop offset="1" stop-color="#80B6FF"/>
</linearGradient>
<linearGradient id="paint8_linear" x1="33.3733" y1="43.57" x2="33.3733" y2="67.1339" gradientUnits="userSpaceOnUse">
<stop stop-color="#84C4FF"/>
<stop offset="1" stop-color="#2F80ED"/>
</linearGradient>
<linearGradient id="paint9_linear" x1="33.3733" y1="54.2223" x2="33.3733" y2="64.1295" gradientUnits="userSpaceOnUse">
<stop stop-color="#0F65D9"/>
<stop offset="1" stop-color="#0085FF"/>
</linearGradient>
<linearGradient id="paint10_linear" x1="33.3956" y1="37.7561" x2="33.3956" y2="62.2993" gradientUnits="userSpaceOnUse">
<stop stop-color="#E6F0FF"/>
<stop offset="1" stop-color="#80B6FF"/>
</linearGradient>
<linearGradient id="paint11_linear" x1="33.3733" y1="38.8406" x2="33.3733" y2="62.4044" gradientUnits="userSpaceOnUse">
<stop stop-color="#84C4FF"/>
<stop offset="1" stop-color="#2F80ED"/>
</linearGradient>
<linearGradient id="paint12_linear" x1="33.3733" y1="49.4929" x2="33.3733" y2="59.4001" gradientUnits="userSpaceOnUse">
<stop stop-color="#0F65D9"/>
<stop offset="1" stop-color="#0085FF"/>
</linearGradient>
<linearGradient id="paint13_linear" x1="33.3956" y1="33.0267" x2="33.3956" y2="57.5699" gradientUnits="userSpaceOnUse">
<stop stop-color="#E6F0FF"/>
<stop offset="1" stop-color="#80B6FF"/>
</linearGradient>
<linearGradient id="paint14_linear" x1="33.3733" y1="34.0346" x2="33.3733" y2="57.5985" gradientUnits="userSpaceOnUse">
<stop stop-color="#84C4FF"/>
<stop offset="1" stop-color="#2F80ED"/>
</linearGradient>
<linearGradient id="paint15_linear" x1="33.3733" y1="44.687" x2="33.3733" y2="54.5941" gradientUnits="userSpaceOnUse">
<stop stop-color="#0F65D9"/>
<stop offset="1" stop-color="#0085FF"/>
</linearGradient>
<linearGradient id="paint16_linear" x1="33.3956" y1="28.2207" x2="33.3956" y2="52.7639" gradientUnits="userSpaceOnUse">
<stop stop-color="#E6F0FF"/>
<stop offset="1" stop-color="#80B6FF"/>
</linearGradient>
<linearGradient id="paint17_linear" x1="33.3733" y1="29.3052" x2="33.3733" y2="52.869" gradientUnits="userSpaceOnUse">
<stop stop-color="#84C4FF"/>
<stop offset="1" stop-color="#2F80ED"/>
</linearGradient>
<linearGradient id="paint18_linear" x1="33.3733" y1="39.9575" x2="33.3733" y2="49.8647" gradientUnits="userSpaceOnUse">
<stop stop-color="#0F65D9"/>
<stop offset="1" stop-color="#0085FF"/>
</linearGradient>
<linearGradient id="paint19_linear" x1="33.3956" y1="23.4913" x2="33.3956" y2="48.0345" gradientUnits="userSpaceOnUse">
<stop stop-color="#E6F0FF"/>
<stop offset="1" stop-color="#80B6FF"/>
</linearGradient>
<linearGradient id="paint20_linear" x1="33.3733" y1="24.5757" x2="33.3733" y2="48.1396" gradientUnits="userSpaceOnUse">
<stop stop-color="#84C4FF"/>
<stop offset="1" stop-color="#2F80ED"/>
</linearGradient>
<linearGradient id="paint21_linear" x1="33.3733" y1="35.2281" x2="33.3733" y2="45.1353" gradientUnits="userSpaceOnUse">
<stop stop-color="#0F65D9"/>
<stop offset="1" stop-color="#0085FF"/>
</linearGradient>
<linearGradient id="paint22_linear" x1="33.3956" y1="18.7619" x2="33.3956" y2="43.3051" gradientUnits="userSpaceOnUse">
<stop stop-color="#E6F0FF"/>
<stop offset="1" stop-color="#80B6FF"/>
</linearGradient>
<linearGradient id="paint23_linear" x1="38.0013" y1="58.7451" x2="73.16" y2="58.7451" gradientUnits="userSpaceOnUse">
<stop stop-color="#0454BD"/>
<stop offset="0.488564" stop-color="#3A9AFF"/>
<stop offset="1" stop-color="#0454BD"/>
</linearGradient>
<linearGradient id="paint24_linear" x1="33.3733" y1="19.8463" x2="33.3733" y2="43.4102" gradientUnits="userSpaceOnUse">
<stop stop-color="#84C4FF"/>
<stop offset="1" stop-color="#2F80ED"/>
</linearGradient>
<linearGradient id="paint25_linear" x1="33.3733" y1="30.4987" x2="33.3733" y2="40.4058" gradientUnits="userSpaceOnUse">
<stop stop-color="#0F65D9"/>
<stop offset="1" stop-color="#0085FF"/>
</linearGradient>
<linearGradient id="paint26_linear" x1="33.3956" y1="14.0324" x2="33.3956" y2="38.5756" gradientUnits="userSpaceOnUse">
<stop stop-color="#E6F0FF"/>
<stop offset="1" stop-color="#80B6FF"/>
</linearGradient>
<linearGradient id="paint27_linear" x1="33.3957" y1="14.0046" x2="33.3957" y2="38.5477" gradientUnits="userSpaceOnUse">
<stop stop-color="#BFDAFF"/>
<stop offset="1" stop-color="#C7DFFF"/>
</linearGradient>
<linearGradient id="paint28_linear" x1="54.5819" y1="55.874" x2="54.5819" y2="79.4379" gradientUnits="userSpaceOnUse">
<stop stop-color="#84C4FF"/>
<stop offset="1" stop-color="#2F80ED"/>
</linearGradient>
<linearGradient id="paint29_linear" x1="54.5819" y1="66.5263" x2="54.5819" y2="76.4335" gradientUnits="userSpaceOnUse">
<stop stop-color="#0F65D9"/>
<stop offset="1" stop-color="#0085FF"/>
</linearGradient>
<linearGradient id="paint30_linear" x1="54.6043" y1="50.0601" x2="54.6043" y2="74.6033" gradientUnits="userSpaceOnUse">
<stop stop-color="#E6F0FF"/>
<stop offset="1" stop-color="#80B6FF"/>
</linearGradient>
<linearGradient id="paint31_linear" x1="54.6043" y1="50.0322" x2="54.6043" y2="74.5754" gradientUnits="userSpaceOnUse">
<stop stop-color="#BFDAFF"/>
<stop offset="1" stop-color="#C7DFFF"/>
</linearGradient>
<clipPath id="clip0">
<rect width="90" height="90" fill="white"/>
</clipPath>
</defs>
</svg>
