<svg width="90" height="90" viewBox="0 0 90 90" fill="none" xmlns="http://www.w3.org/2000/svg">
<rect width="90" height="90" fill="white"/>
<path d="M74.8307 54.5884C74.8307 54.5566 74.8307 54.5566 74.8307 54.5248V39.1652H68.4662L47.5909 53.276C46.0509 52.3846 43.5804 52.3846 42.0724 53.276L21.1343 39.1652H14.9931V54.5248V54.6521C15.0573 55.1933 15.4102 55.7027 16.1481 56.1166L42.2328 71.0797C43.7729 71.9711 46.2434 71.9711 47.7514 71.0797L73.6756 56.1166C74.3815 55.7027 74.7665 55.1933 74.7986 54.6521L74.8307 54.5884Z" fill="url(#paint0_linear)"/>
<path d="M73.7071 48.4029L47.7689 63.4684C46.2601 64.3659 43.7562 64.3659 42.2474 63.4684L16.1487 48.4029C15.4425 47.9862 15.0573 47.4734 14.9931 46.9284V47.4092C14.9931 47.4092 14.9931 47.4092 14.9931 47.4413V47.5375C15.0573 48.0824 15.4104 48.5953 16.1487 49.012L42.2474 64.0774C43.7883 64.9749 46.2601 64.9749 47.7689 64.0774L73.7071 49.012C74.4133 48.5953 74.7985 48.0824 74.8306 47.5375V47.4413C74.8306 47.4092 74.8306 47.4092 74.8306 47.3772V46.9284C74.7664 47.4413 74.4133 47.9862 73.7071 48.4029Z" fill="#76B1FF"/>
<path d="M73.7071 47.9099L47.7689 62.9754C46.2601 63.8729 43.7562 63.8729 42.2474 62.9754L16.1487 47.9099C15.4425 47.4932 15.0573 46.9804 14.9931 46.4354V46.9163C14.9931 46.9163 14.9931 46.9163 14.9931 46.9483V47.0445C15.0573 47.5894 15.4104 48.1023 16.1487 48.519L42.2474 63.5844C43.7883 64.4819 46.2601 64.4819 47.7689 63.5844L73.7071 48.519C74.4133 48.1023 74.7985 47.5894 74.8306 47.0445V46.9483C74.8306 46.9163 74.8306 46.9163 74.8306 46.8842V46.4354C74.7664 46.9483 74.4133 47.4932 73.7071 47.9099Z" fill="url(#paint1_linear)"/>
<mask id="mask0" style="mask-type:alpha" maskUnits="userSpaceOnUse" x="10" y="39" width="70" height="22">
<rect x="10.2" y="39" width="69.5" height="21.4138" fill="#E6F0FF"/>
</mask>
<g mask="url(#mask0)">
<path fill-rule="evenodd" clip-rule="evenodd" d="M47.6321 22.7174L73.7465 37.7179C75.2883 38.6115 75.2883 40.0477 73.7786 40.9095L47.7927 55.91C46.2831 56.8036 43.8097 56.8036 42.2679 55.91L16.1535 40.9095C14.6117 40.0158 14.6117 38.6115 16.1214 37.7179L42.1073 22.7174C43.617 21.8238 46.0903 21.8238 47.6321 22.7174ZM46.7155 27.5581L65.1851 38.1542C66.2772 38.7606 66.2772 39.7819 65.1851 40.4203L46.844 51.0163C45.7518 51.6227 44.0173 51.6227 42.9252 51.0163L24.4877 40.4203C23.4277 39.7819 23.3956 38.7606 24.4877 38.1542L42.7967 27.5581C43.8888 26.9517 45.6234 26.9517 46.7155 27.5581Z" fill="url(#paint2_linear)"/>
</g>
<path d="M74.8885 39.342C74.8885 39.5093 74.8327 39.6766 74.777 39.8996C74.7212 40.0112 74.6654 40.1784 74.6097 40.29C74.5539 40.4015 74.4424 40.5688 74.3309 40.6803C74.2751 40.7361 74.1636 40.8476 74.1078 40.9033C73.9963 40.9591 73.9405 41.0706 73.829 41.1264C73.7175 41.1822 73.6059 41.2937 73.4944 41.3494L48.5688 55.8476C46.6729 56.9628 43.4944 56.9628 41.5428 55.8476L16.4498 41.3494C16.3383 41.2937 16.2268 41.1822 16.1152 41.1264C16.0037 41.0706 15.8922 40.9591 15.8364 40.9033C15.6134 40.6803 15.4461 40.513 15.2788 40.29C15.1115 40.0112 15 39.6766 15 39.342C15 38.6171 15.5019 37.8922 16.4498 37.3346L41.3755 22.8364C43.2714 21.7212 46.4498 21.7212 48.3457 22.8364L73.4387 37.3346C74.3866 37.8922 74.8885 38.6171 74.8885 39.342Z" fill="url(#paint3_linear)"/>
<path d="M54.605 33.783C49.2348 30.732 40.5144 30.732 35.1442 33.783C29.774 36.8339 29.8232 41.822 35.1934 44.8729C40.5636 47.9238 49.2841 47.9238 54.6543 44.8729C60.0245 41.822 60.0245 36.8823 54.605 33.783Z" fill="url(#paint4_linear)"/>
<path d="M58.6758 31.3333V34.0307C58.6758 36.0375 57.3491 38.0444 54.6739 39.5765C49.3236 42.6623 40.602 42.6623 35.2082 39.5765C32.4895 38.0228 31.1411 35.9944 31.1411 33.9444V31.2686C31.1411 29.2617 32.4678 27.2333 35.1429 25.7012C40.4933 22.6154 49.2148 22.6154 54.6087 25.7012C57.3273 27.2549 58.6758 29.3049 58.6758 31.3333Z" fill="url(#paint5_linear)"/>
<path d="M54.6033 25.7073C59.9972 28.7931 60.0189 33.7994 54.6685 36.8852C49.3182 39.971 40.5967 39.971 35.2028 36.8852C29.809 33.7994 29.7872 28.7931 35.1376 25.7073C40.4879 22.6215 49.2094 22.6215 54.6033 25.7073Z" fill="url(#paint6_linear)"/>
<path d="M52 27.5373L51.0508 27L49.4492 27.8955C47.7881 27.1791 45.8305 27.2388 44.5847 27.9552C43.2203 28.7313 43.5169 29.7463 44.4661 31.0597C45.178 32.0149 45.2373 32.6716 44.4068 33.209C43.5169 33.7463 42.1525 33.6866 41.0254 33.0299C40.1356 32.4925 39.6017 31.8955 39.4237 31.2985L38 31.7164C38.178 32.2537 38.8305 32.9701 39.7203 33.5075L38.1186 34.403L39.1271 35L40.7288 34.0448C42.6271 34.8209 44.6441 34.6418 45.8898 33.9254C47.2542 33.0896 47.2542 32.1343 46.3051 30.8209C45.4746 29.6866 45.2966 29.1493 46.1271 28.6716C46.7797 28.3134 47.9068 28.1343 49.1525 28.8507C50.161 29.4478 50.4576 29.9851 50.5763 30.2836L52 29.9254C51.822 29.5075 51.4068 28.9701 50.5169 28.4328L52 27.5373Z" fill="#3887EF"/>
<defs>
<linearGradient id="paint0_linear" x1="44.9119" y1="31.8892" x2="44.9119" y2="71.7483" gradientUnits="userSpaceOnUse">
<stop stop-color="#84C4FF"/>
<stop offset="1" stop-color="#2F80ED"/>
</linearGradient>
<linearGradient id="paint1_linear" x1="44.9119" y1="49.908" x2="44.9119" y2="66.6664" gradientUnits="userSpaceOnUse">
<stop stop-color="#0F65D9"/>
<stop offset="1" stop-color="#0085FF"/>
</linearGradient>
<linearGradient id="paint2_linear" x1="44.95" y1="22.0549" x2="44.95" y2="63.5705" gradientUnits="userSpaceOnUse">
<stop stop-color="#E6F0FF"/>
<stop offset="1" stop-color="#80B6FF"/>
</linearGradient>
<linearGradient id="paint3_linear" x1="44.9443" y1="22.0077" x2="44.9443" y2="63.7049" gradientUnits="userSpaceOnUse">
<stop stop-color="#E6F0FF"/>
<stop offset="1" stop-color="#80B6FF"/>
</linearGradient>
<linearGradient id="paint4_linear" x1="27.1457" y1="37.9003" x2="64.7601" y2="37.9003" gradientUnits="userSpaceOnUse">
<stop stop-color="#0454BD"/>
<stop offset="0.488564" stop-color="#3A9AFF"/>
<stop offset="1" stop-color="#0454BD"/>
</linearGradient>
<linearGradient id="paint5_linear" x1="33.7255" y1="33.7979" x2="53.3285" y2="45.7467" gradientUnits="userSpaceOnUse">
<stop stop-color="#3686EF"/>
<stop offset="0.507111" stop-color="#BAD8FF"/>
<stop offset="1" stop-color="#65ABF9"/>
</linearGradient>
<linearGradient id="paint6_linear" x1="44.9031" y1="23.393" x2="44.9031" y2="39.1996" gradientUnits="userSpaceOnUse">
<stop stop-color="#BDD9FF"/>
<stop offset="1" stop-color="white"/>
</linearGradient>
</defs>
</svg>
