<svg width="479" height="294" viewBox="0 0 479 294" fill="none" xmlns="http://www.w3.org/2000/svg">
<g filter="url(#filter0_d_1_380)">
<path d="M265.016 235.379L172.601 181.246C168.4 178.918 161.717 178.918 157.707 181.246L91.0793 224.303C86.8786 226.631 87.0696 230.706 91.0793 233.034L183.495 287.167C187.696 289.495 194.379 289.495 198.388 287.167L264.825 244.11C269.026 241.782 269.026 237.707 265.016 235.379Z" fill="url(#paint0_linear_1_380)"/>
</g>
<path d="M194.63 256.184L142.642 225.875C142.111 225.607 141.05 225.607 140.52 225.875L138.398 227.217C137.867 227.485 137.867 228.021 138.398 228.289L190.121 258.598C190.652 258.866 191.713 258.866 192.243 258.598L194.365 257.257C195.161 256.989 195.161 256.452 194.63 256.184Z" fill="#71ACF6"/>
<path d="M170.639 255.922L145.789 240.932C145.271 240.664 144.236 240.664 143.718 240.932L141.388 242.27C140.871 242.538 140.871 243.341 141.388 243.608L166.239 258.598C166.756 258.866 167.792 258.866 168.309 258.598L170.38 257.528C171.157 256.992 171.157 256.457 170.639 255.922Z" fill="#71ACF6"/>
<path d="M205.426 214.03C204.819 213.73 204.516 213.431 203.606 213.431L185.708 210.735C184.495 210.435 182.978 210.735 182.068 211.334L169.024 218.822C168.114 219.421 167.81 220.319 168.114 220.918L172.967 231.102C173.271 231.401 173.574 231.701 173.877 232C174.181 232.6 174.787 232.6 175.394 232.899L193.292 235.595C194.505 235.894 196.022 235.595 196.932 234.996L209.976 227.508C210.886 226.909 211.19 226.01 210.886 225.411L206.033 215.228C206.336 214.629 206.033 214.329 205.426 214.03Z" fill="#71ACF6"/>
<g filter="url(#filter1_d_1_380)">
<path d="M178.016 216.798L85.6006 163.162C81.3999 160.855 74.717 160.855 70.7072 163.162L4.07934 205.824C-0.121363 208.131 0.0695782 212.168 4.07934 214.475L96.4949 268.111C100.696 270.418 107.379 270.418 111.388 268.111L177.825 225.449C182.026 223.142 182.026 219.105 178.016 216.798Z" fill="url(#paint1_linear_1_380)"/>
</g>
<g filter="url(#filter2_d_1_380)">
<path d="M475.016 201.741L382.601 148.105C378.4 145.798 371.717 145.798 367.707 148.105L301.079 190.767C296.879 193.074 297.07 197.111 301.079 199.418L393.495 253.054C397.696 255.361 404.379 255.361 408.388 253.054L474.825 210.392C479.026 208.085 479.026 204.048 475.016 201.741Z" fill="url(#paint2_linear_1_380)"/>
</g>
<path d="M107.63 237.191L55.6418 207.801C55.1113 207.541 54.0503 207.541 53.5199 207.801L51.3979 209.101C50.8674 209.362 50.8674 209.882 51.3979 210.142L103.121 239.532C103.652 239.792 104.713 239.792 105.243 239.532L107.365 238.232C108.161 237.972 108.161 237.451 107.63 237.191Z" fill="#71ACF6"/>
<path d="M404.63 222.135L352.642 192.744C352.111 192.484 351.05 192.484 350.52 192.744L348.398 194.045C347.867 194.305 347.867 194.825 348.398 195.085L400.121 224.475C400.652 224.736 401.713 224.736 402.243 224.475L404.365 223.175C405.161 222.915 405.161 222.395 404.63 222.135Z" fill="#71ACF6"/>
<path d="M84.6272 236.85L58.9485 221.86C58.4135 221.592 57.3436 221.592 56.8086 221.86L54.4012 223.198C53.8663 223.466 53.8663 224.269 54.4012 224.537L80.0799 239.527C80.6149 239.794 81.6848 239.794 82.2198 239.527L84.3597 238.456C85.1621 237.921 85.1621 237.385 84.6272 236.85Z" fill="#71ACF6"/>
<path d="M381.627 221.793L355.948 206.803C355.414 206.535 354.344 206.535 353.809 206.803L351.401 208.141C350.866 208.409 350.866 209.212 351.401 209.48L377.08 224.47C377.615 224.737 378.685 224.737 379.22 224.47L381.36 223.399C382.162 222.864 382.162 222.328 381.627 221.793Z" fill="#71ACF6"/>
<path d="M118.556 194.958C117.963 194.658 117.667 194.359 116.778 194.359L99.2963 191.663C98.1111 191.363 96.6296 191.663 95.7407 192.262L83 199.75C82.1111 200.349 81.8148 201.247 82.1111 201.846L86.8519 212.03C87.1481 212.329 87.4444 212.629 87.7407 212.928C88.037 213.527 88.6296 213.527 89.2222 213.827L106.704 216.523C107.889 216.822 109.37 216.523 110.259 215.924L123 208.436C123.889 207.837 124.185 206.938 123.889 206.339L119.148 196.156C119.444 195.557 119.148 195.257 118.556 194.958Z" fill="#71ACF6"/>
<path d="M415.556 179.901C414.963 179.601 414.667 179.302 413.778 179.302L396.296 176.606C395.111 176.307 393.63 176.606 392.741 177.205L380 184.693C379.111 185.292 378.815 186.19 379.111 186.79L383.852 196.973C384.148 197.273 384.444 197.572 384.741 197.872C385.037 198.471 385.63 198.471 386.222 198.77L403.704 201.466C404.889 201.765 406.37 201.466 407.259 200.867L420 193.379C420.889 192.78 421.185 191.881 420.889 191.282L416.148 181.099C416.444 180.5 416.148 180.2 415.556 179.901Z" fill="#71ACF6"/>
<g opacity="0.5" filter="url(#filter3_f_1_380)">
<path d="M296.915 262.496L374.193 207.452C376.496 205.812 376.416 202.363 374.038 200.832L258.591 126.456C257.224 125.576 255.459 125.61 254.128 126.544L171.095 184.762C168.711 186.434 168.855 190.012 171.365 191.486L292.568 262.687C293.928 263.486 295.631 263.411 296.915 262.496Z" fill="#509AF8"/>
</g>
<path d="M359.362 96.7117V106.941V122.063V178.272C359.362 179.576 358.789 180.815 357.796 181.66L349.132 189.027L344.24 189.224L238.83 128.068L231.491 115.392V58.4616V42.8947V9.75943C231.491 7.53559 232.381 5.75651 233.715 5.08936L241.499 0.641676C242.833 -0.247861 244.834 -0.247861 246.836 0.864061L274.067 17.8585C277.389 19.9316 279.633 23.3593 280.204 27.2332L282.64 43.7673L352.023 83.8134C356.026 86.2596 359.362 92.0416 359.362 96.7117Z" fill="url(#paint3_linear_1_380)"/>
<mask id="mask0_1_380" style="mask-type:alpha" maskUnits="userSpaceOnUse" x="231" y="4" width="121" height="186">
<path d="M351.356 101.185V111.414V126.537V184.801C351.456 188.479 347.555 190.899 344.304 189.178L344.018 189.026L238.83 128.093L231.491 115.417V58.4869V42.92V9.78476C231.491 7.56092 232.381 5.78184 233.715 5.11469C233.937 5.11469 233.937 4.89231 234.16 4.89231C234.382 4.89231 234.382 4.89231 234.605 4.66992H234.827H235.049C236.161 4.66992 237.496 4.89231 238.83 5.55946L263.993 20.1099C268.743 22.8562 271.96 27.6402 272.711 33.0749L274.856 48.5909L344.018 88.5088C348.243 90.955 351.356 96.5146 351.356 101.185Z" fill="url(#paint4_linear_1_380)"/>
</mask>
<g mask="url(#mask0_1_380)">
<path d="M351.356 101.185V111.414V171.013V184.801L351.579 192.362L344.018 189.027L238.83 128.093L231.491 115.417V102.964V42.92V9.78476C231.491 7.56092 232.381 5.78184 233.715 5.11469C233.937 5.11469 233.937 4.89231 234.16 4.89231C234.382 4.89231 234.382 4.89231 234.605 4.66992H234.827H235.049C236.161 4.66992 237.496 4.89231 238.83 5.55946L271.52 24.8402L274.856 48.5909L344.018 88.5088C348.243 90.955 351.356 96.5146 351.356 101.185Z" fill="url(#paint5_linear_1_380)"/>
<g filter="url(#filter4_f_1_380)">
<path d="M340.238 112.082V122.311V137.433V195.698L332.899 199.923L227.711 138.99L220.372 126.314V69.3839V53.817V20.6817C220.372 18.4579 221.262 16.6788 222.596 16.0117C222.819 16.0117 222.819 15.7893 223.041 15.7893C223.263 15.7893 223.263 15.7893 223.486 15.5669H223.708H223.931C225.043 15.5669 226.377 15.7893 227.711 16.4564L246.836 27.4948L265.961 60.7715L332.899 99.4057C337.124 101.852 340.238 107.412 340.238 112.082Z" fill="#509AF8"/>
</g>
</g>
<path d="M328.228 118.95V129.18V144.302V200.51C328.228 201.815 327.655 203.053 326.662 203.899L317.998 211.265L313.106 211.462L207.696 150.306L200.357 137.63V80.6999V65.133V31.9977C200.357 29.7739 201.247 27.9948 202.581 27.3276L210.364 22.88C211.699 21.9904 213.7 21.9904 215.702 23.1023L242.933 40.0968C246.255 42.1699 248.499 45.5976 249.07 49.4715L251.506 66.0056L320.889 106.052C324.892 108.498 328.228 114.28 328.228 118.95Z" fill="url(#paint6_linear_1_380)"/>
<mask id="mask1_1_380" style="mask-type:alpha" maskUnits="userSpaceOnUse" x="200" y="26" width="121" height="186">
<path d="M320.222 123.423V133.653V148.775V207.039C320.322 210.717 316.421 213.138 313.17 211.416L312.883 211.265L207.696 150.331L200.357 137.656V80.7252V65.1583V32.023C200.357 29.7992 201.247 28.0201 202.581 27.353C202.803 27.353 202.803 27.1306 203.026 27.1306C203.248 27.1306 203.248 27.1306 203.47 26.9082H203.693H203.915C205.027 26.9082 206.361 27.1306 207.696 27.7977L232.859 42.3482C237.609 45.0945 240.826 49.8785 241.577 55.3131L243.722 70.8292L312.883 110.747C317.109 113.193 320.222 118.753 320.222 123.423Z" fill="url(#paint7_linear_1_380)"/>
</mask>
<g mask="url(#mask1_1_380)">
<path d="M320.222 123.423V133.653V193.252V207.039L320.445 214.601L312.883 211.265L207.696 150.331L200.357 137.656V125.202V65.1583V32.023C200.357 29.7992 201.247 28.0201 202.581 27.353C202.803 27.353 202.803 27.1306 203.026 27.1306C203.248 27.1306 203.248 27.1306 203.47 26.9082H203.693H203.915C205.027 26.9082 206.361 27.1306 207.696 27.7977L240.386 47.0785L243.722 70.8292L312.883 110.747C317.109 113.193 320.222 118.753 320.222 123.423Z" fill="url(#paint8_linear_1_380)"/>
<g filter="url(#filter5_f_1_380)">
<path d="M309.103 134.32V144.55V159.672V217.937L301.764 222.162L196.577 161.229L189.238 148.553V91.6225V76.0556V65.1588C189.238 62.9349 190.127 61.1559 191.462 60.4887C191.684 60.4887 191.684 60.2663 191.907 60.2663C192.129 60.2663 192.129 60.2663 192.351 60.0439H192.574H192.796C193.908 60.0439 195.242 60.2663 196.577 60.9335L301.764 121.644C305.99 124.091 309.103 129.65 309.103 134.32Z" fill="#509AF8"/>
</g>
</g>
<path d="M294.871 138.965V149.194V164.317V222.345C294.871 223.876 294.084 225.299 292.787 226.113L284.238 231.477H279.749L174.339 170.321L167 157.645V100.715V85.1477V74.2509C167 72.027 167.89 70.248 169.224 69.5808L177.007 65.1331C178.342 64.2436 180.343 64.2436 182.345 65.3555L287.532 126.066C291.535 128.513 294.871 134.295 294.871 138.965Z" fill="url(#paint9_linear_1_380)"/>
<path d="M286.865 143.438V153.668V168.79V227.054C286.963 230.783 282.964 233.201 279.708 231.381L279.526 231.28L174.339 170.346L173.754 169.975C169.548 167.298 167 162.657 167 157.671V100.74V85.1733V74.2765C167 72.0526 167.89 70.2735 169.224 69.6064C169.446 69.6064 169.446 69.384 169.669 69.384C169.891 69.384 169.891 69.384 170.113 69.1616H170.336H170.558C171.67 69.1616 173.004 69.384 174.339 70.0512L279.526 130.762C283.752 133.208 286.865 138.768 286.865 143.438Z" fill="url(#paint10_linear_1_380)"/>
<path d="M205.028 113.638L181.455 100.073L180.343 100.74V119.42L181.455 121.422L205.028 134.987L206.14 134.32V115.417L205.028 113.638Z" fill="#71ACF6"/>
<path d="M236.161 131.429L212.588 117.864L211.476 118.531V137.211L212.588 139.212L236.161 152.778L237.273 152.111V133.208L236.161 131.429Z" fill="#71ACF6"/>
<path d="M267.295 149.22L243.722 135.654L242.61 136.321V155.002L243.722 157.003L267.295 170.569L268.407 169.901V150.999L267.295 149.22Z" fill="#71ACF6"/>
<defs>
<filter id="filter0_d_1_380" x="87" y="179.5" width="182" height="111.413" filterUnits="userSpaceOnUse" color-interpolation-filters="sRGB">
<feFlood flood-opacity="0" result="BackgroundImageFix"/>
<feColorMatrix in="SourceAlpha" type="matrix" values="0 0 0 0 0 0 0 0 0 0 0 0 0 0 0 0 0 0 127 0" result="hardAlpha"/>
<feOffset dy="1"/>
<feGaussianBlur stdDeviation="0.5"/>
<feColorMatrix type="matrix" values="0 0 0 0 0.840451 0 0 0 0 0.898858 0 0 0 0 0.979167 0 0 0 1 0"/>
<feBlend mode="normal" in2="BackgroundImageFix" result="effect1_dropShadow_1_380"/>
<feBlend mode="normal" in="SourceGraphic" in2="effect1_dropShadow_1_380" result="shape"/>
</filter>
<filter id="filter1_d_1_380" x="0" y="161.432" width="182" height="110.409" filterUnits="userSpaceOnUse" color-interpolation-filters="sRGB">
<feFlood flood-opacity="0" result="BackgroundImageFix"/>
<feColorMatrix in="SourceAlpha" type="matrix" values="0 0 0 0 0 0 0 0 0 0 0 0 0 0 0 0 0 0 127 0" result="hardAlpha"/>
<feOffset dy="1"/>
<feGaussianBlur stdDeviation="0.5"/>
<feColorMatrix type="matrix" values="0 0 0 0 0.840451 0 0 0 0 0.898858 0 0 0 0 0.979167 0 0 0 1 0"/>
<feBlend mode="normal" in2="BackgroundImageFix" result="effect1_dropShadow_1_380"/>
<feBlend mode="normal" in="SourceGraphic" in2="effect1_dropShadow_1_380" result="shape"/>
</filter>
<filter id="filter2_d_1_380" x="297" y="146.375" width="182" height="110.409" filterUnits="userSpaceOnUse" color-interpolation-filters="sRGB">
<feFlood flood-opacity="0" result="BackgroundImageFix"/>
<feColorMatrix in="SourceAlpha" type="matrix" values="0 0 0 0 0 0 0 0 0 0 0 0 0 0 0 0 0 0 127 0" result="hardAlpha"/>
<feOffset dy="1"/>
<feGaussianBlur stdDeviation="0.5"/>
<feColorMatrix type="matrix" values="0 0 0 0 0.840451 0 0 0 0 0.898858 0 0 0 0 0.979167 0 0 0 1 0"/>
<feBlend mode="normal" in2="BackgroundImageFix" result="effect1_dropShadow_1_380"/>
<feBlend mode="normal" in="SourceGraphic" in2="effect1_dropShadow_1_380" result="shape"/>
</filter>
<filter id="filter3_f_1_380" x="139.391" y="95.8191" width="266.481" height="197.419" filterUnits="userSpaceOnUse" color-interpolation-filters="sRGB">
<feFlood flood-opacity="0" result="BackgroundImageFix"/>
<feBlend mode="normal" in="SourceGraphic" in2="BackgroundImageFix" result="shape"/>
<feGaussianBlur stdDeviation="15" result="effect1_foregroundBlur_1_380"/>
</filter>
<filter id="filter4_f_1_380" x="215.372" y="10.5669" width="129.865" height="194.356" filterUnits="userSpaceOnUse" color-interpolation-filters="sRGB">
<feFlood flood-opacity="0" result="BackgroundImageFix"/>
<feBlend mode="normal" in="SourceGraphic" in2="BackgroundImageFix" result="shape"/>
<feGaussianBlur stdDeviation="2.5" result="effect1_foregroundBlur_1_380"/>
</filter>
<filter id="filter5_f_1_380" x="184.238" y="55.0439" width="129.865" height="172.118" filterUnits="userSpaceOnUse" color-interpolation-filters="sRGB">
<feFlood flood-opacity="0" result="BackgroundImageFix"/>
<feBlend mode="normal" in="SourceGraphic" in2="BackgroundImageFix" result="shape"/>
<feGaussianBlur stdDeviation="2.5" result="effect1_foregroundBlur_1_380"/>
</filter>
<linearGradient id="paint0_linear_1_380" x1="207.41" y1="148.634" x2="207.41" y2="288.913" gradientUnits="userSpaceOnUse">
<stop stop-color="white"/>
<stop offset="1" stop-color="#F4F9FF"/>
</linearGradient>
<linearGradient id="paint1_linear_1_380" x1="120.41" y1="130.849" x2="120.41" y2="269.841" gradientUnits="userSpaceOnUse">
<stop stop-color="white"/>
<stop offset="1" stop-color="#F4F9FF"/>
</linearGradient>
<linearGradient id="paint2_linear_1_380" x1="417.41" y1="115.792" x2="417.41" y2="254.784" gradientUnits="userSpaceOnUse">
<stop stop-color="white"/>
<stop offset="1" stop-color="#F4F9FF"/>
</linearGradient>
<linearGradient id="paint3_linear_1_380" x1="300.43" y1="6.64601" x2="360.474" y2="185.665" gradientUnits="userSpaceOnUse">
<stop stop-color="#BFE0FF"/>
<stop offset="1" stop-color="#2F80ED"/>
</linearGradient>
<linearGradient id="paint4_linear_1_380" x1="291.424" y1="26.9346" x2="291.424" y2="168.363" gradientUnits="userSpaceOnUse">
<stop stop-color="#E6F0FF"/>
<stop offset="1" stop-color="#80B6FF"/>
</linearGradient>
<linearGradient id="paint5_linear_1_380" x1="291.424" y1="26.9346" x2="291.424" y2="168.363" gradientUnits="userSpaceOnUse">
<stop stop-color="#E6F0FF"/>
<stop offset="1" stop-color="#80B6FF"/>
</linearGradient>
<linearGradient id="paint6_linear_1_380" x1="269.296" y1="28.8843" x2="329.34" y2="207.904" gradientUnits="userSpaceOnUse">
<stop stop-color="#BFE0FF"/>
<stop offset="1" stop-color="#2F80ED"/>
</linearGradient>
<linearGradient id="paint7_linear_1_380" x1="260.29" y1="49.1729" x2="260.29" y2="190.601" gradientUnits="userSpaceOnUse">
<stop stop-color="#E6F0FF"/>
<stop offset="1" stop-color="#80B6FF"/>
</linearGradient>
<linearGradient id="paint8_linear_1_380" x1="260.29" y1="49.1729" x2="260.29" y2="190.601" gradientUnits="userSpaceOnUse">
<stop stop-color="#E6F0FF"/>
<stop offset="1" stop-color="#80B6FF"/>
</linearGradient>
<linearGradient id="paint9_linear_1_380" x1="235.939" y1="48.899" x2="295.983" y2="227.918" gradientUnits="userSpaceOnUse">
<stop stop-color="#BFE0FF"/>
<stop offset="1" stop-color="#2F80ED"/>
</linearGradient>
<linearGradient id="paint10_linear_1_380" x1="226.933" y1="69.1879" x2="226.933" y2="210.616" gradientUnits="userSpaceOnUse">
<stop stop-color="#E6F0FF"/>
<stop offset="1" stop-color="#80B6FF"/>
</linearGradient>
</defs>
</svg>
