<svg width="41" height="35" viewBox="0 0 41 35" fill="none" xmlns="http://www.w3.org/2000/svg">
<path fill-rule="evenodd" clip-rule="evenodd" d="M31.406 34.5884C31.956 34.9779 32.665 35.0753 33.297 34.8361C33.9291 34.5952 34.3938 34.0554 34.5339 33.4011C36.0184 26.4245 39.6194 8.76583 40.9707 2.41952C41.0732 1.9412 40.9024 1.44408 40.5265 1.12463C40.1507 0.805183 39.6297 0.712935 39.165 0.885473C32.0022 3.53675 9.94295 11.8134 0.926575 15.1497C0.354297 15.3616 -0.0181116 15.9116 0.000679651 16.5147C0.0211792 17.1194 0.427753 17.6438 1.0137 17.8198C5.05723 19.0293 10.3649 20.7119 10.3649 20.7119C10.3649 20.7119 12.8453 28.2028 14.1385 32.0123C14.3008 32.4906 14.6749 32.8665 15.1686 32.9963C15.6606 33.1244 16.1868 32.9894 16.5541 32.6427C18.6313 30.6815 21.8429 27.6493 21.8429 27.6493C21.8429 27.6493 27.945 32.1233 31.406 34.5884ZM12.5975 19.7647L15.4657 29.2253L16.1029 23.2343C16.1029 23.2343 27.1846 13.2391 33.5019 7.54189C33.6864 7.37448 33.712 7.09432 33.5583 6.89786C33.4062 6.70141 33.1261 6.65528 32.9159 6.78853C25.5942 11.4641 12.5975 19.7647 12.5975 19.7647Z" fill="#139BD0"/>
</svg>
