<svg width="90" height="90" viewBox="0 0 90 90" fill="none" xmlns="http://www.w3.org/2000/svg">
<rect width="90" height="90" fill="white"/>
<path opacity="0.5" d="M32.5042 14.7166C33.6646 12.3282 36.3658 11.1099 38.9242 11.821L55.6897 16.481C57.3698 16.9479 58.7289 18.184 59.3528 19.8124L69.6023 46.5654C70.1467 47.9861 70.0781 49.5689 69.4131 50.9372L60.4961 69.2843C59.3355 71.6723 56.6346 72.8903 54.0765 72.1792L37.31 67.5189C35.63 67.052 34.271 65.8162 33.6471 64.188L23.3978 37.4433C22.8534 36.0227 22.9217 34.4401 23.5866 33.0717L32.5042 14.7166Z" fill="url(#paint0_linear)" stroke="url(#paint1_linear)"/>
<path d="M21.6432 27.3327C22.6644 25.2357 27.5013 24.1573 29.749 24.7805L36.8217 26.7417C38.2992 27.1515 39.495 28.2374 40.0447 29.6688L45.0747 42.7669C45.5555 44.0188 45.495 45.414 44.9077 46.6195L40.9456 54.7523C39.9242 56.8489 33 58.5 32.1234 57.9673L28.2311 55.3336C26.7537 54.9239 25.558 53.8381 25.0083 52.4069L19.9785 39.3131C19.4977 38.0614 19.558 36.6663 20.1451 35.4608L21.6432 27.3327Z" fill="url(#paint2_linear)"/>
<path d="M20.4593 29.0001C21.7261 26.3989 24.6688 25.0722 27.4569 25.8453L33.0322 27.3913C34.865 27.8995 36.3483 29.2466 37.0301 31.0221L41.6688 43.1013C42.2652 44.654 42.1901 46.3847 41.4616 47.88L38.1447 54.6885C36.8777 57.2893 33.9353 58.6156 31.1475 57.8426L25.5712 56.2963C23.7386 55.7881 22.2554 54.4413 21.5735 52.666L16.9351 40.5911C16.3386 39.0384 16.4135 37.3079 17.1417 35.8125L20.4593 29.0001Z" fill="url(#paint3_linear)"/>
<path d="M46.6345 12.8216C47.6558 10.7246 52.4926 9.64615 54.7403 10.2694L61.813 12.2306C63.2905 12.6403 64.4863 13.7263 65.036 15.1577L70.0661 28.2558C70.5468 29.5076 70.4863 30.9028 69.899 32.1083L65.9369 40.2411C64.9155 42.3378 58 44 57.1148 43.4562L53.2225 40.8224C51.7451 40.4128 50.5494 39.3269 49.9996 37.8958L44.9698 24.802C44.489 23.5503 44.5493 22.1551 45.1364 20.9496L46.6345 12.8216Z" fill="url(#paint4_linear)"/>
<path d="M45.4506 14.489C46.7174 11.8878 49.6601 10.5611 52.4482 11.3342L58.0235 12.8802C59.8563 13.3884 61.3396 14.7355 62.0215 16.511L66.6602 28.5901C67.2565 30.1429 67.1814 31.8736 66.453 33.3689L63.1361 40.1774C61.8691 42.7782 58.9266 44.1045 56.1388 43.3315L50.5625 41.7852C48.7299 41.277 47.2467 39.9302 46.5648 38.1549L41.9264 26.08C41.33 24.5273 41.4048 22.7968 42.133 21.3014L45.4506 14.489Z" fill="url(#paint5_linear)"/>
<path d="M48.247 48.2932C49.2683 46.1962 54.1051 45.1178 56.3528 45.7411L63.4255 47.7023C64.903 48.112 66.0988 49.198 66.6485 50.6293L71.6785 63.7275C72.1593 64.9793 72.0988 66.3745 71.5115 67.58L67.5494 75.7128C66.528 77.8095 60 79.5 58.7273 78.9278L54.8349 76.2941C53.3576 75.8844 52.1619 74.7986 51.6121 73.3674L46.5823 60.2736C46.1015 59.0219 46.1618 57.6268 46.7489 56.4213L48.247 48.2932Z" fill="url(#paint6_linear)"/>
<path d="M47.0631 49.9606C48.3299 47.3594 51.2726 46.0327 54.0607 46.8058L59.636 48.3518C61.4687 48.86 62.952 50.2071 63.6339 51.9826L68.2726 64.0618C68.8689 65.6146 68.7939 67.3452 68.0654 68.8406L64.7485 75.649C63.4815 78.2498 60.5391 79.5761 57.7513 78.8031L52.1749 77.2568C50.3423 76.7487 48.8592 75.4018 48.1772 73.6265L43.5388 61.5516C42.9424 59.999 43.0172 58.2684 43.7455 56.773L47.0631 49.9606Z" fill="url(#paint7_linear)"/>
<path d="M51.9148 27.1522C52.4563 27.7216 53.1419 28.1337 53.8989 28.3446C54.5561 28.5264 55.2576 28.4551 55.8648 28.1447C57.8601 29.6314 59.3688 32.4088 59.672 35.3669C59.6781 35.4025 59.6767 35.439 59.6678 35.474C59.6589 35.5091 59.6427 35.5418 59.6203 35.5702C59.603 35.595 59.5785 35.6138 59.5502 35.6242C59.5218 35.6345 59.491 35.636 59.4618 35.6282L54.1001 34.2493L48.5533 32.8124C48.4072 32.7639 48.323 32.5951 48.3383 32.4419C48.5287 29.6409 49.9536 27.6221 51.9148 27.1522Z" fill="white"/>
<path d="M53.735 18.9545C55.4359 19.3911 56.8485 21.5874 56.8883 23.869C56.9282 26.1506 55.5797 27.6282 53.8792 27.2161C52.1787 26.8041 50.7655 24.5771 50.7259 22.3078C50.6863 20.0384 52.034 18.5179 53.735 18.9545Z" fill="white"/>
<path d="M27.0698 41.7606C27.6113 42.33 28.2969 42.742 29.0538 42.953C29.7111 43.1348 30.4126 43.0634 31.0197 42.753C33.0151 44.2397 34.5238 47.0172 34.8269 49.9752C34.8331 50.0108 34.8316 50.0473 34.8227 50.0824C34.8138 50.1174 34.7977 50.1502 34.7753 50.1785C34.758 50.2033 34.7335 50.2221 34.7052 50.2325C34.6768 50.2429 34.6459 50.2443 34.6168 50.2365L29.2551 48.8577L23.7083 47.4207C23.5621 47.3722 23.4779 47.2034 23.4932 47.0502C23.6836 44.2492 25.1086 42.2304 27.0698 41.7606Z" fill="url(#paint8_linear)"/>
<path d="M28.8899 33.5628C30.5908 33.9994 32.0035 36.1957 32.0433 38.4773C32.0831 40.7589 30.7346 42.2365 29.0341 41.8244C27.3336 41.4124 25.9204 39.1854 25.8808 36.9161C25.8412 34.6468 27.189 33.1262 28.8899 33.5628Z" fill="url(#paint9_linear)"/>
<path d="M53.6736 62.7211C54.2151 63.2905 54.9007 63.7025 55.6577 63.9135C56.3149 64.0953 57.0164 64.0239 57.6236 63.7135C59.6189 65.2002 61.1276 67.9777 61.4308 70.9357C61.4369 70.9713 61.4355 71.0078 61.4266 71.0429C61.4177 71.0779 61.4015 71.1107 61.3791 71.1391C61.3618 71.1638 61.3373 71.1826 61.309 71.193C61.2806 71.2034 61.2498 71.2048 61.2206 71.197L55.8589 69.8182L50.3121 68.3812C50.166 68.3327 50.0817 68.1639 50.0971 68.0107C50.2874 65.2097 51.7124 63.1909 53.6736 62.7211Z" fill="white"/>
<path d="M55.4937 54.5233C57.1946 54.9599 58.6073 57.1562 58.6471 59.4378C58.6869 61.7194 57.3384 63.197 55.6379 62.785C53.9374 62.3729 52.5242 60.1459 52.4846 57.8766C52.445 55.6073 53.7928 54.0868 55.4937 54.5233Z" fill="white"/>
<defs>
<linearGradient id="paint0_linear" x1="46.5" y1="10.0143" x2="46.5" y2="86.9552" gradientUnits="userSpaceOnUse">
<stop stop-color="#F9FCFF"/>
<stop offset="1" stop-color="#D8E9FF"/>
</linearGradient>
<linearGradient id="paint1_linear" x1="37" y1="11.5" x2="57.5" y2="74" gradientUnits="userSpaceOnUse">
<stop stop-color="#B1D3FF"/>
<stop offset="1" stop-color="#3080EE"/>
</linearGradient>
<linearGradient id="paint2_linear" x1="33.5676" y1="19.2929" x2="54.8469" y2="65.9405" gradientUnits="userSpaceOnUse">
<stop stop-color="#BFE0FF"/>
<stop offset="0.184546" stop-color="#EBF5FF"/>
<stop offset="0.448898" stop-color="#A2CDFB"/>
<stop offset="0.63915" stop-color="#2F80ED"/>
</linearGradient>
<linearGradient id="paint3_linear" x1="29.3019" y1="24.5189" x2="29.3019" y2="66.1937" gradientUnits="userSpaceOnUse">
<stop stop-color="#E6F0FF"/>
<stop offset="1" stop-color="#80B6FF"/>
</linearGradient>
<linearGradient id="paint4_linear" x1="58.5589" y1="4.78173" x2="79.8382" y2="51.4293" gradientUnits="userSpaceOnUse">
<stop stop-color="#BFE0FF"/>
<stop offset="0.184546" stop-color="#EBF5FF"/>
<stop offset="0.448898" stop-color="#A2CDFB"/>
<stop offset="0.63915" stop-color="#2F80ED"/>
</linearGradient>
<linearGradient id="paint5_linear" x1="54.2932" y1="10.0077" x2="54.2932" y2="51.6826" gradientUnits="userSpaceOnUse">
<stop stop-color="#E6F0FF"/>
<stop offset="1" stop-color="#80B6FF"/>
</linearGradient>
<linearGradient id="paint6_linear" x1="60.1714" y1="40.2534" x2="81.4507" y2="86.901" gradientUnits="userSpaceOnUse">
<stop stop-color="#BFE0FF"/>
<stop offset="0.184546" stop-color="#EBF5FF"/>
<stop offset="0.448898" stop-color="#A2CDFB"/>
<stop offset="0.63915" stop-color="#2F80ED"/>
</linearGradient>
<linearGradient id="paint7_linear" x1="55.9056" y1="45.4794" x2="55.9056" y2="87.1542" gradientUnits="userSpaceOnUse">
<stop stop-color="#E6F0FF"/>
<stop offset="1" stop-color="#80B6FF"/>
</linearGradient>
<linearGradient id="paint8_linear" x1="29.4746" y1="40.3607" x2="33.2859" y2="53.7488" gradientUnits="userSpaceOnUse">
<stop stop-color="#9ED0FF"/>
<stop offset="0.63915" stop-color="#2F80ED"/>
</linearGradient>
<linearGradient id="paint9_linear" x1="29.1133" y1="32.145" x2="34.8018" y2="43.514" gradientUnits="userSpaceOnUse">
<stop stop-color="#9ED0FF"/>
<stop offset="0.63915" stop-color="#2F80ED"/>
</linearGradient>
</defs>
</svg>
