<svg width="45" height="35" viewBox="0 0 45 35" fill="none" xmlns="http://www.w3.org/2000/svg">
<path d="M38.0944 3.11672C35.2263 1.79538 32.1506 0.821871 28.9348 0.264302C28.8762 0.253541 28.8177 0.280433 28.7876 0.334218C28.392 1.04059 27.9539 1.96211 27.647 2.68642C24.1883 2.16651 20.7472 2.16651 17.3594 2.68642C17.0525 1.94601 16.5984 1.04059 16.2011 0.334218C16.1709 0.282228 16.1124 0.255335 16.0538 0.264302C12.8398 0.820089 9.76418 1.7936 6.89425 3.11672C6.86941 3.12748 6.84811 3.14543 6.83398 3.16872C1.00011 11.9196 -0.598032 20.4554 0.185963 28.8854C0.18951 28.9266 0.212568 28.9661 0.244496 28.9911C4.09352 31.8292 7.82195 33.5522 11.4811 34.6942C11.5397 34.7121 11.6018 34.6906 11.639 34.6422C12.5046 33.4554 13.2762 32.2039 13.9378 30.8879C13.9768 30.8109 13.9395 30.7194 13.8597 30.689C12.6359 30.2228 11.4705 29.6545 10.3495 29.0091C10.2608 28.9571 10.2537 28.8298 10.3353 28.7688C10.5712 28.5913 10.8072 28.4066 11.0324 28.2202C11.0732 28.1861 11.13 28.179 11.1779 28.2005C18.5424 31.5764 26.5154 31.5764 33.793 28.2005C33.841 28.1772 33.8977 28.1844 33.9403 28.2184C34.1656 28.4049 34.4015 28.5913 34.6392 28.7688C34.7207 28.8298 34.7154 28.9571 34.6267 29.0091C33.5057 29.667 32.3404 30.2228 31.1147 30.6872C31.0349 30.7177 30.9994 30.8109 31.0385 30.8879C31.7142 32.2021 32.4858 33.4535 33.3354 34.6404C33.3709 34.6906 33.4347 34.7121 33.4933 34.6942C37.1703 33.5522 40.8987 31.8292 44.7477 28.9911C44.7814 28.9661 44.8027 28.9284 44.8062 28.8872C45.7445 19.1412 43.2347 10.6754 38.1529 3.1705C38.1405 3.14543 38.1192 3.12748 38.0944 3.11672ZM15.0375 23.7524C12.8203 23.7524 10.9934 21.7086 10.9934 19.1986C10.9934 16.6886 12.7849 14.6448 15.0375 14.6448C17.3079 14.6448 19.1171 16.7065 19.0816 19.1986C19.0816 21.7086 17.2901 23.7524 15.0375 23.7524ZM29.9902 23.7524C27.773 23.7524 25.946 21.7086 25.946 19.1986C25.946 16.6886 27.7375 14.6448 29.9902 14.6448C32.2606 14.6448 34.0698 16.7065 34.0343 19.1986C34.0343 21.7086 32.2606 23.7524 29.9902 23.7524Z" fill="#5865F2"/>
</svg>
