<svg width="45" height="25" viewBox="0 0 45 25" fill="none" xmlns="http://www.w3.org/2000/svg">
<path d="M12.6916 0C19.7009 0 25.3827 5.57338 25.3827 12.448C25.3827 19.3227 19.7005 24.8956 12.6916 24.8956C5.68262 24.8956 0 19.3227 0 12.448C0 5.57338 5.68219 0 12.6916 0ZM32.9591 0.729173C36.4638 0.729173 39.3049 5.97535 39.3049 12.448H39.3053C39.3053 18.919 36.4642 24.1669 32.9595 24.1669C29.4548 24.1669 26.6137 18.919 26.6137 12.448C26.6137 5.97703 29.4544 0.729173 32.9591 0.729173ZM42.7682 1.94978C44.0005 1.94978 45 6.64992 45 12.448C45 18.2444 44.0009 22.9463 42.7682 22.9463C41.5354 22.9463 40.5368 18.2457 40.5368 12.448C40.5368 6.65034 41.5358 1.94978 42.7682 1.94978Z" fill="black"/>
</svg>
