<svg width="71" height="71" viewBox="0 0 71 71" fill="none" xmlns="http://www.w3.org/2000/svg">
    <circle cx="35.5" cy="35.5" r="35.5" fill="#F09135"/>
    <path d="M35.6034 20.2856C32.5532 20.2971 29.6312 21.5167 27.4744 23.6787C25.3175 25.8406 24.1008 28.7696 24.0894 31.827C24.0892 33.1018 24.2941 34.3682 24.6961 35.5776C24.8405 35.9734 25.1304 36.2989 25.5064 36.4874C25.8824 36.6758 26.3162 36.713 26.7187 36.5913C27.1093 36.4425 27.4285 36.1498 27.6111 35.773C27.7937 35.3962 27.8259 34.9637 27.701 34.5639C27.359 33.6234 27.2068 32.6242 27.2532 31.6243C27.301 30.0101 27.816 28.4447 28.7355 27.1187C29.6551 25.7926 30.9395 24.7633 32.4323 24.1559C33.925 23.5486 35.5618 23.3895 37.1432 23.6979C38.7246 24.0064 40.1824 24.7692 41.339 25.8934C42.4956 27.0176 43.3012 28.4546 43.6575 30.0295C44.0139 31.6044 43.9056 33.2492 43.346 34.7635C42.7864 36.2779 41.7995 37.5964 40.5056 38.5586C39.2117 39.5207 37.6666 40.0849 36.0585 40.1826C36.0585 40.1826 34.4477 40.2839 33.6386 40.3853C33.342 40.4273 33.0478 40.4853 32.7574 40.5591C32.7365 40.5747 32.7107 40.5824 32.6847 40.5805C32.6587 40.5787 32.6342 40.5675 32.6158 40.549C32.5973 40.5305 32.5861 40.5059 32.5843 40.4799C32.5824 40.4538 32.59 40.4279 32.6057 40.407L32.8585 39.0386L34.3754 32.1528C34.4626 31.7428 34.3837 31.3149 34.1561 30.9633C33.9285 30.6116 33.5709 30.3649 33.1619 30.2775C32.7529 30.1902 32.326 30.2692 31.9751 30.4974C31.6243 30.7255 31.3782 31.084 31.291 31.4939C31.291 31.4939 27.6794 48.3064 27.6794 48.4585C27.6296 48.6613 27.6217 48.8722 27.6561 49.0782C27.6905 49.2842 27.7665 49.481 27.8795 49.6566C27.9924 49.8322 28.1399 49.9828 28.3129 50.0992C28.4859 50.2156 28.6808 50.2954 28.8857 50.3337C29.0885 50.3825 29.2991 50.3893 29.5046 50.3539C29.7102 50.3185 29.9064 50.2416 30.0814 50.1278C30.2564 50.0141 30.4065 49.8658 30.5225 49.6921C30.6386 49.5184 30.7182 49.3228 30.7565 49.1173C30.8071 48.9146 31.2622 46.6845 31.2622 46.6845C31.4298 45.8637 31.8444 45.114 32.4501 44.5366C33.0559 43.9592 33.8236 43.5818 34.6499 43.4553C34.9966 43.4046 36.463 43.3032 36.463 43.3032C39.3933 43.0317 42.1085 41.6452 44.0502 39.4287C45.992 37.2123 47.0128 34.3343 46.9027 31.3866C46.7926 28.4389 45.5601 25.6455 43.4584 23.5807C41.3567 21.5159 38.5457 20.3368 35.6034 20.2856Z" fill="white"/>
    <path d="M38.4838 46.8652C38.2347 46.8146 37.9781 46.8138 37.7287 46.8629C37.4793 46.912 37.242 47.0101 37.0305 47.1514C36.8191 47.2927 36.6375 47.4746 36.4964 47.6864C36.3552 47.8983 36.2572 48.136 36.208 48.386C36.1545 48.6359 36.1515 48.8941 36.1992 49.1451C36.2469 49.3962 36.3444 49.6352 36.4859 49.8479C36.6273 50.0605 36.8099 50.2426 37.0227 50.3834C37.2356 50.5241 37.4745 50.6206 37.7252 50.6672C37.9743 50.724 38.2323 50.7293 38.4835 50.6827C38.7347 50.6361 38.9738 50.5387 39.1861 50.3963C39.3985 50.254 39.5796 50.0697 39.7185 49.8548C39.8573 49.6399 39.951 49.3988 39.9938 49.1464C40.0789 48.645 39.9701 48.1298 39.6896 47.706C39.409 47.2822 38.9778 46.9815 38.4838 46.8652Z" fill="#FAFAFA"/>
</svg>
