<svg width="48" height="43" viewBox="0 0 48 43" fill="none" xmlns="http://www.w3.org/2000/svg">
<path d="M47.9992 21.8251C47.8917 18.9007 45.4552 16.6171 42.5439 16.7164C41.254 16.7615 40.0268 17.2941 39.0952 18.1876C34.9925 15.3715 30.1733 13.8281 25.2197 13.7198L27.5576 2.3922L35.2702 4.0259C35.4852 6.02063 37.2589 7.46479 39.2385 7.24817C41.2182 7.03154 42.6514 5.2444 42.4364 3.24966C42.2214 1.25493 40.4478 -0.189227 38.4681 0.0273959C37.3305 0.144733 36.3093 0.812654 35.745 1.80551L26.9127 0.0273959C26.3125 -0.107994 25.7123 0.271097 25.578 0.884862C25.578 0.893888 25.578 0.893888 25.578 0.902914L22.9175 13.5032C17.9012 13.5844 13.0192 15.1369 8.86283 17.971C6.7488 15.9672 3.41652 16.0665 1.4279 18.2057C-0.560714 20.3358 -0.462178 23.6935 1.66081 25.6972C2.07286 26.0853 2.54762 26.4193 3.07613 26.654C3.0403 27.1865 3.0403 27.719 3.07613 28.2516C3.07613 36.384 12.4818 43 24.082 43C35.6823 43 45.0879 36.393 45.0879 28.2516C45.1237 27.719 45.1237 27.1865 45.0879 26.654C46.8974 25.7424 48.035 23.865 47.9992 21.8251ZM11.9622 25.4626C11.9622 23.4588 13.5836 21.8251 15.5722 21.8251C17.5608 21.8251 19.1821 23.4588 19.1821 25.4626C19.1821 27.4663 17.5608 29.1 15.5722 29.1C13.5746 29.082 11.9622 27.4663 11.9622 25.4626ZM32.8964 35.4453C30.3345 37.3859 27.1993 38.3787 23.9924 38.2433C20.7856 38.3787 17.6504 37.3859 15.0885 35.4453C14.7481 35.0301 14.8108 34.4073 15.2228 34.0643C15.5811 33.7664 16.0917 33.7664 16.459 34.0643C18.6268 35.6619 21.2693 36.4742 23.9566 36.3479C26.6439 36.4923 29.2954 35.716 31.4901 34.1365C31.8842 33.7484 32.5292 33.7574 32.9143 34.1546C33.2995 34.5517 33.2906 35.2016 32.8964 35.5897V35.4453ZM32.2246 29.3618C30.236 29.3618 28.6415 27.5927 28.6415 25.5889C28.6415 23.5852 30.2629 21.9515 32.2515 21.9515C34.2401 21.9515 35.8614 23.5852 35.8614 25.5889C35.9421 27.5927 34.3924 29.2805 32.4038 29.3618C32.3411 29.3618 32.2873 29.3618 32.2246 29.3618Z" fill="#FF4500"/>
</svg>
