<svg width="47" height="37" viewBox="0 0 47 37" fill="none" xmlns="http://www.w3.org/2000/svg">
<path fill-rule="evenodd" clip-rule="evenodd" d="M41.1692 5.79686C43.1469 4.65285 44.6644 2.83885 45.3765 0.677933C43.5249 1.73985 41.4787 2.50782 39.2957 2.92359C37.5536 1.12283 35.0637 0 32.3081 0C27.0216 0 22.7376 4.1444 22.7376 9.25538C22.7376 9.98098 22.817 10.688 22.9814 11.3633C15.0269 10.9767 7.97363 7.29573 3.24862 1.69219C2.42414 3.06394 1.953 4.65285 1.953 6.34768C1.953 9.55727 3.64305 12.3908 6.21236 14.0539C4.64284 14.0062 3.16644 13.5852 1.87357 12.8966V13.0105C1.87357 17.4965 5.17149 21.2384 9.55685 22.0858C8.75154 22.3029 7.90789 22.4115 7.03136 22.4115C6.41506 22.4115 5.81245 22.3559 5.23175 22.2473C6.44793 25.923 9.98415 28.603 14.175 28.6745C10.8963 31.1585 6.76841 32.6361 2.28444 32.6361C1.512 32.6361 0.747784 32.5964 0 32.509C4.23744 35.1334 9.26924 36.6667 14.6763 36.6667C32.2889 36.6667 41.9143 22.5625 41.9143 10.3305C41.9143 9.92802 41.9088 9.52814 41.8896 9.13356C43.7604 7.82801 45.3875 6.19674 46.6667 4.34036C44.9492 5.07656 43.1031 5.57441 41.1692 5.79686Z" fill="#4AA1EB"/>
</svg>
