<svg width="81" height="25" viewBox="0 0 81 25" fill="none" xmlns="http://www.w3.org/2000/svg">
<g opacity="0.5" clip-path="url(#clip0_84_67)">
<path fill-rule="evenodd" clip-rule="evenodd" d="M50.4167 11.6157V17.1536H49.0588V11.6157H47.8154V10.4278H49.0607V9.29421C49.0607 7.79796 50.0543 6.98633 51.2715 6.98633C51.7197 6.98633 51.9992 7.08427 52.0579 7.12936V8.30124C51.9861 8.2736 51.8197 8.21687 51.4859 8.21687C51.0241 8.21687 50.4225 8.44087 50.4225 9.36402V10.4278H52.0457V11.6161L50.4167 11.6157ZM15.1181 17.1536V7.02851H16.4338V17.1536H15.1181ZM8.39214 7.23845C10.2817 7.23845 11.3864 8.35699 11.3864 9.92354C11.3864 10.9863 10.7713 11.7417 9.90383 12.0666C11.0371 12.3463 11.6945 13.3519 11.6945 14.4578C11.6945 16.0239 10.4491 17.157 8.62986 17.157H5.16016V7.23845H8.39214ZM8.23835 11.5706C9.34398 11.5706 10.0013 10.9136 10.0013 9.99045C10.0013 9.05372 9.31633 8.43796 8.18256 8.43796H6.53115V11.5706H8.23835ZM8.43435 15.9507C9.53997 15.9507 10.2924 15.3349 10.2924 14.3706C10.2924 13.4193 9.69085 12.7478 8.48771 12.7478H6.53115V15.9507H8.43435ZM22.8681 17.365C24.8805 17.365 26.3102 15.8406 26.3102 13.7849C26.3102 11.7412 24.8805 10.2193 22.8681 10.2193C20.8558 10.2193 19.4261 11.7437 19.4261 13.7849C19.4261 15.8387 20.8553 17.365 22.8681 17.365ZM22.8681 11.3936C23.9878 11.3936 24.9669 12.2324 24.9669 13.7849C24.9669 15.349 23.9869 16.1907 22.8681 16.1907C21.7485 16.1907 20.7694 15.3514 20.7694 13.7849C20.7694 12.2304 21.748 11.3936 22.8681 11.3936ZM30.6468 13.7849C30.6468 15.3233 31.6123 16.1485 32.7038 16.1485C33.9627 16.1485 34.4246 15.2957 34.5784 14.7643L35.7398 15.2641C35.4182 16.2285 34.4532 17.3611 32.7038 17.3611C30.7443 17.3631 29.3035 15.8251 29.3035 13.7849C29.3035 11.6879 30.7735 10.2193 32.6897 10.2193C34.4809 10.2193 35.406 11.3378 35.6845 12.3623L34.4954 12.8617C34.3276 12.2048 33.8381 11.4334 32.6902 11.4334C31.6263 11.4334 30.6468 12.2174 30.6468 13.7849ZM44.8196 17.1536L41.8947 13.2656L44.7638 10.4278H42.9446L40.0338 13.4057V7.02851H38.7321V17.1536H40.0338V15.1255L40.9715 14.1887L43.1687 17.1536H44.8196ZM58.4889 17.365C60.5012 17.365 61.9309 15.8406 61.9309 13.7849C61.9309 11.7412 60.5012 10.2193 58.4889 10.2193C56.476 10.2193 55.0468 11.7437 55.0468 13.7849C55.0468 15.8387 56.476 17.365 58.4889 17.365ZM58.4889 11.3936C59.6081 11.3936 60.5876 12.2324 60.5876 13.7849C60.5876 15.349 59.6095 16.1907 58.4903 16.1907C57.3706 16.1907 56.3911 15.3514 56.3911 13.7849C56.3911 12.2304 57.3696 11.3936 58.4889 11.3936ZM64.9242 17.1536V7.02851H66.2394V17.1536H64.9242ZM70.5358 7.13421C70.4644 7.08483 70.3838 7.05025 70.2988 7.0325C70.2138 7.01476 70.1261 7.01421 70.0409 7.0309C69.9557 7.04758 69.8747 7.08116 69.8027 7.12964C69.7307 7.17813 69.6691 7.24054 69.6216 7.31319C69.5741 7.38585 69.5417 7.46728 69.5262 7.55267C69.5107 7.63806 69.5125 7.72568 69.5315 7.81037C69.5505 7.89505 69.5862 7.97508 69.6366 8.04573C69.687 8.11638 69.7511 8.17623 69.8251 8.22172C69.9693 8.31048 70.1425 8.33946 70.3079 8.30249C70.4732 8.26551 70.6175 8.1655 70.7102 8.02375C70.8028 7.882 70.8364 7.70971 70.8038 7.54357C70.7713 7.37742 70.6751 7.23054 70.5358 7.13421ZM70.8283 10.4268H69.5267V17.1536H70.8283V10.4268ZM77.5577 17.365C79.5705 17.365 80.9997 15.8406 80.9997 13.7849C80.9997 11.7412 79.571 10.2193 77.5581 10.2193C75.5458 10.2193 74.1161 11.7437 74.1161 13.7849C74.1161 15.8387 75.5448 17.365 77.5577 17.365ZM77.5577 11.3936C78.6774 11.3936 79.6568 12.2324 79.6568 13.7849C79.6568 15.349 78.6769 16.1907 77.5577 16.1907C76.4385 16.1907 75.4594 15.3514 75.4594 13.7849C75.4594 12.2329 76.4375 11.3936 77.5577 11.3936Z" fill="#1F2226"/>
<path opacity="0.7" d="M15.0092 20H1.00084C0.869388 20.0001 0.739215 19.9742 0.617759 19.924C0.496303 19.8737 0.385946 19.8001 0.292997 19.7072C0.200047 19.6143 0.126329 19.504 0.0760545 19.3826C0.0257803 19.2612 -6.36465e-05 19.1311 1.17705e-07 18.9998V4.99976C1.02252e-07 4.86843 0.0258911 4.73838 0.0761938 4.61706C0.126497 4.49573 0.200225 4.38549 0.293168 4.29265C0.386111 4.19981 0.496446 4.12618 0.617871 4.07596C0.739295 4.02575 0.869429 3.99994 1.00084 4H15.0092C15.2744 4.00013 15.5288 4.1055 15.7164 4.29296C15.904 4.48043 16.0094 4.73464 16.0095 4.99976V5.62909H15.652V4.99976C15.6519 4.82933 15.584 4.66593 15.4634 4.54547C15.3428 4.425 15.1792 4.35733 15.0087 4.35733H1.00035C0.82991 4.35746 0.666484 4.42519 0.545962 4.54564C0.42544 4.66609 0.357675 4.82942 0.357546 4.99976V18.9998C0.357546 19.1702 0.425255 19.3336 0.545791 19.4542C0.666326 19.5747 0.829826 19.6425 1.00035 19.6427H15.0087C15.1793 19.6427 15.3429 19.5749 15.4636 19.4544C15.5842 19.3338 15.652 19.1703 15.652 18.9998V18.6516H16.0095V18.9998C16.0096 19.1311 15.9837 19.2612 15.9335 19.3826C15.8832 19.504 15.8095 19.6143 15.7165 19.7072C15.6236 19.8001 15.5132 19.8737 15.3918 19.924C15.2703 19.9742 15.1401 20.0001 15.0087 20H15.0092Z" fill="#1F2226"/>
</g>
<defs>
<clipPath id="clip0_84_67">
<rect width="81" height="25" fill="white"/>
</clipPath>
</defs>
</svg>
