<svg width="110" height="23" viewBox="0 0 110 23" fill="none" xmlns="http://www.w3.org/2000/svg">
<g opacity="0.5" clip-path="url(#clip0_84_71)">
<path fill-rule="evenodd" clip-rule="evenodd" d="M28.5555 16.2997C26.1362 16.2997 24.3477 14.4216 24.3477 12.1148C24.3477 9.80796 26.1362 7.88378 28.5706 7.88378C30.1124 7.88378 31.0678 8.44929 31.823 9.27422L30.6673 10.511C30.0967 9.91562 29.4959 9.50315 28.5555 9.50315C27.1989 9.50315 26.2127 10.664 26.2127 12.0843C26.2127 13.5351 27.214 14.6959 28.6472 14.6959C29.5267 14.6959 30.1739 14.2835 30.7596 13.6881L31.8846 14.7874C31.0836 15.6733 30.1432 16.2997 28.5555 16.2997ZM35.423 16.2997H33.5592V7.89934H35.4236V9.86957C35.9321 8.66331 36.8725 7.83773 38.3057 7.89934V9.85466H38.1977C36.5643 9.85466 35.423 10.9085 35.423 13.0467V16.2997ZM48.0676 7.88443L43.9467 18.5612H42.0555L42.9566 16.3023L39.426 7.88443H41.4142L43.8224 14.1019L46.1358 7.88443H48.0676ZM53.5693 9.48759C52.3056 9.48759 51.1957 10.511 51.1957 12.0843C51.1957 13.6576 52.3056 14.6804 53.5693 14.6804C54.8486 14.6804 55.8964 13.6881 55.8964 12.0843C55.8964 10.4954 54.8329 9.48759 53.5693 9.48759ZM54.0005 16.2842C52.6603 16.2842 51.8122 15.6123 51.2415 14.8639V18.5605H49.3764V7.88443H51.2415V9.39615C51.8429 8.5563 52.691 7.88507 54.0005 7.88507C55.9271 7.88507 57.7922 9.39615 57.7922 12.0849C57.7922 14.7731 55.9428 16.2848 54.0005 16.2848V16.2842ZM61.8803 9.64064V13.5954C61.8803 14.3126 62.2481 14.6025 62.8816 14.6025H63.6132V16.253H62.3371C60.9805 16.2492 60.0159 15.6512 60.0159 13.8859V9.64064H58.9806V8.05369H60.0159V5.83832H61.8803V8.05369H63.6132V9.64064H61.8803ZM69.5115 9.50315C68.0161 9.50315 67.0607 10.664 67.0607 12.0843C67.0607 13.5201 68.0933 14.6959 69.5422 14.6959C71.052 14.6959 72.0081 13.5351 72.0081 12.1148C72.0081 10.6789 70.9754 9.50315 69.5115 9.50315ZM69.5115 16.2997C67.0299 16.2997 65.1956 14.4216 65.1956 12.1148C65.1956 9.79305 67.045 7.88378 69.5422 7.88378C72.0388 7.88378 73.8731 9.76256 73.8731 12.0843C73.8731 14.3911 72.0231 16.2997 69.5115 16.2997ZM77.2859 14.6051V15.5364C77.2864 15.5554 77.2817 15.5741 77.2722 15.5905C77.2628 15.607 77.249 15.6206 77.2323 15.6298L76.4188 16.0954C76.4025 16.105 76.3838 16.1101 76.3648 16.1101C76.3458 16.1101 76.3272 16.105 76.3108 16.0954L75.4954 15.6298C75.4789 15.6204 75.4651 15.6068 75.4556 15.5904C75.446 15.574 75.441 15.5554 75.4411 15.5364V14.6051C75.4411 14.5675 75.4627 14.5318 75.4954 14.5117L76.3108 14.0461C76.3272 14.0365 76.3458 14.0315 76.3648 14.0315C76.3838 14.0315 76.4025 14.0365 76.4188 14.0461L77.2323 14.5117C77.2488 14.5212 77.2625 14.5348 77.2721 14.5512C77.2816 14.5676 77.2866 14.5862 77.2866 14.6051H77.2859ZM91.7027 9.50315C90.2074 9.50315 89.2519 10.664 89.2519 12.0843C89.2519 13.5201 90.2846 14.6959 91.7335 14.6959C93.2432 14.6959 94.1986 13.5351 94.1986 12.1148C94.1986 10.6789 93.1666 9.50315 91.7027 9.50315ZM91.7027 16.2997C89.2212 16.2997 87.3868 14.4216 87.3868 12.1148C87.3868 9.79305 89.2362 7.88378 91.7335 7.88378C94.23 7.88378 96.0644 9.76256 96.0644 12.0843C96.0644 14.3911 94.2143 16.2997 91.7027 16.2997ZM82.9643 16.2907C80.5449 16.2446 78.7937 14.3321 78.8388 12.0259C78.8834 9.72041 80.7079 7.82995 83.1423 7.87664C84.6834 7.90583 85.6278 8.48885 86.3672 9.32805L85.1873 10.5427C84.6291 9.93637 84.0362 9.51288 83.0958 9.49472C81.7399 9.46878 80.7308 10.6102 80.7033 12.0305C80.6751 13.4819 81.6548 14.6616 83.0873 14.6888C83.9662 14.7057 84.6213 14.3055 85.2181 13.7212L86.3221 14.8418C85.5041 15.7122 84.5519 16.3205 82.9649 16.2907H82.9643ZM107.149 7.88443C108.922 7.88443 110 8.9986 110 10.9688V16.2997H108.136V11.5343C108.136 10.2516 107.534 9.56412 106.487 9.56412C105.47 9.56412 104.745 10.2665 104.745 11.5648V16.2997H102.88V11.5188C102.88 10.2671 102.263 9.56412 101.231 9.56412C100.198 9.56412 99.4889 10.3281 99.4889 11.581V16.2997H97.6238V7.88443H99.4889V9.27487C100.013 8.55695 100.723 7.88443 101.97 7.88443C103.142 7.88443 103.959 8.44994 104.39 9.3047C105.053 8.44994 105.916 7.88443 107.149 7.88443Z" fill="#1F2226"/>
<path fill-rule="evenodd" clip-rule="evenodd" d="M0 6.23421V16.7339L9.12844 21.9844L18.2549 16.7339V6.23421L9.12844 0.984375L0 6.23421ZM0.803622 16.2734V6.69661L9.12844 1.90593L17.4539 6.69661V16.2734L9.12844 21.0628L0.803622 16.2734Z" fill="#1F2226"/>
<path fill-rule="evenodd" clip-rule="evenodd" d="M12.7029 5.51984H5.53046L4.69935 9.16262H13.5673L12.7029 5.51984ZM6.8033 14.1764V11.7554L4.67776 10.4097L2.27344 12.1906L5.55075 17.8685H6.85958L8.40793 16.4326V15.7108L6.8033 14.1764Z" fill="#1F2226"/>
<path fill-rule="evenodd" clip-rule="evenodd" d="M11.4582 9.70746H6.8125L7.59518 11.7425L7.35697 14.0234H9.12717L10.9137 14.015L10.6912 11.7425L11.4582 9.70746Z" fill="#1F2226"/>
<path fill-rule="evenodd" clip-rule="evenodd" d="M13.5842 10.3933L11.4842 11.7552V14.1762L9.87891 15.7106V16.4324L11.4266 17.852H12.7197L15.9807 12.1904L13.5842 10.3933Z" fill="#1F2226"/>
</g>
<defs>
<clipPath id="clip0_84_71">
<rect width="110" height="23" fill="white"/>
</clipPath>
</defs>
</svg>
