<svg width="89" height="25" viewBox="0 0 89 25" fill="none" xmlns="http://www.w3.org/2000/svg">
<g opacity="0.5">
<path d="M35.4267 10.3477C35.1805 9.39257 34.56 8.69367 33.3466 8.69367C31.556 8.69367 30.8072 10.2658 30.8072 11.8611C30.8072 13.4565 31.556 15.0295 33.3466 15.0295C34.6467 15.0295 35.3591 14.0631 35.4752 12.8517H36.9027C36.7857 14.8431 35.3703 16.2168 33.3492 16.2168C30.8453 16.2168 29.3477 14.2365 29.3477 11.8603C29.3477 9.48403 30.8401 7.50037 33.344 7.50037C35.2273 7.51158 36.7129 8.54871 36.8888 10.3426L35.4267 10.3477Z" fill="#1F2226"/>
<path d="M37.7656 12.9995C37.7656 11.1591 38.8767 9.83203 40.819 9.83203C42.7613 9.83203 43.8724 11.1591 43.8724 12.9995C43.8724 14.8399 42.7613 16.1799 40.819 16.1799C38.8767 16.1799 37.7656 14.852 37.7656 12.9995ZM42.5385 12.9995C42.5385 11.9641 42.0124 10.8804 40.819 10.8804C39.6256 10.8804 39.0995 11.9632 39.0995 12.9995C39.0995 14.0358 39.6256 15.1316 40.819 15.1316C42.0124 15.1316 42.5385 14.0479 42.5385 12.9995Z" fill="#1F2226"/>
<path d="M45.0203 7.7002H46.3541V8.95821H45.0203V7.7002ZM45.0203 9.99534H46.3541V16.0171H45.0203V9.99534Z" fill="#1F2226"/>
<path d="M47.8086 9.996H49.0722V10.8813L49.0956 10.9046C49.2872 10.5766 49.5623 10.3048 49.8931 10.1165C50.2239 9.92821 50.5988 9.83009 50.9798 9.83206C52.2903 9.83206 53.1206 10.531 53.1206 11.8813V16.0169H51.7867V12.2316C51.7633 11.2885 51.3889 10.8813 50.6054 10.8813C49.7162 10.8813 49.1424 11.5793 49.1424 12.4646V16.0177H47.8086V9.996Z" fill="#1F2226"/>
<path d="M62.0027 16.0153H61.0667L60.8448 15.0369C60.0648 15.9222 59.3472 16.2129 58.3314 16.2129C55.8292 16.2147 54.3281 14.2301 54.3281 11.8565C54.3281 9.4828 55.8292 7.5 58.3297 7.5C60.1497 7.5 61.6873 8.46638 61.9091 10.3422H60.4817C60.3413 9.24725 59.3827 8.68813 58.3297 8.68813C56.5391 8.68813 55.7902 10.2602 55.7902 11.8556C55.7902 13.451 56.5391 15.0239 58.3297 15.0239C59.8265 15.0472 60.6455 14.1508 60.6698 12.7409H58.4467V11.6356H62.0001L62.0027 16.0153Z" fill="#1F2226"/>
<path d="M64.4471 13.349C64.4471 14.2929 64.962 15.1316 66.0731 15.1316C66.8453 15.1316 67.3133 14.7934 67.5464 14.1298H68.811C68.5189 15.4457 67.3956 16.1799 66.0731 16.1799C64.1785 16.1799 63.1133 14.8632 63.1133 13.0116C63.1133 11.2989 64.24 9.83203 66.0384 9.83203C67.9451 9.83203 69.1152 11.5439 68.8933 13.349H64.4471ZM67.5594 12.4758C67.5126 11.6371 66.9389 10.8804 66.0384 10.8804C65.1136 10.8804 64.4827 11.5784 64.4471 12.4758H67.5594Z" fill="#1F2226"/>
<path d="M73.997 12.0098C73.8913 11.2756 73.3531 10.8804 72.6164 10.8804C71.923 10.8804 70.9549 11.241 70.9549 13.0694C70.9549 14.0712 71.3996 15.1316 72.5575 15.1316C73.3297 15.1316 73.8679 14.6191 73.997 13.7571H75.3309C75.0847 15.318 74.1175 16.1799 72.5575 16.1799C70.662 16.1799 69.6211 14.8399 69.6211 13.0694C69.6211 11.2523 70.6161 9.83203 72.6043 9.83203C74.0083 9.83203 75.2044 10.5309 75.3309 12.0098H73.997Z" fill="#1F2226"/>
<path d="M76.4492 7.70117H77.7831V12.4304L80.1934 9.99632H81.8314L79.5147 12.2086L82.0533 16.0181H80.4239L78.5752 13.0939L77.7796 13.8627V16.0198H76.4492V7.70117Z" fill="#1F2226"/>
<path d="M82.418 12.9995C82.418 11.1591 83.5291 9.83203 85.4714 9.83203C87.4136 9.83203 88.5256 11.1591 88.5256 12.9995C88.5256 14.8399 87.4136 16.1799 85.4714 16.1799C83.5291 16.1799 82.418 14.852 82.418 12.9995ZM87.1918 12.9995C87.1918 11.9641 86.6648 10.8804 85.4714 10.8804C84.2779 10.8804 83.7518 11.9632 83.7518 12.9995C83.7518 14.0358 84.2779 15.1316 85.4714 15.1316C86.6648 15.1316 87.1918 14.0479 87.1918 12.9995Z" fill="#1F2226"/>
<path d="M23.1055 12.4493C23.1156 14.7238 22.4479 16.9501 21.1868 18.8469C19.9257 20.7436 18.1279 22.2255 16.0208 23.1052C13.9136 23.9848 11.5917 24.2227 9.34874 23.7888C7.10576 23.3548 5.04241 22.2686 3.41964 20.6673C1.79686 19.066 0.687542 17.0217 0.231964 14.7929C-0.223615 12.564 -0.0049913 10.2508 0.860188 8.14562C1.72537 6.04046 3.19824 4.23797 5.09256 2.96607C6.98687 1.69418 9.21754 1.01002 11.5025 1.00011C14.5663 0.986819 17.51 2.18558 19.686 4.3327C21.862 6.47982 23.092 9.39942 23.1055 12.4493Z" fill="#CECECE"/>
<path d="M22.2369 12.4553C22.2465 14.5589 21.6292 16.618 20.4631 18.3724C19.297 20.1267 17.6345 21.4974 15.6858 22.3112C13.7371 23.125 11.5897 23.3453 9.51519 22.9442C7.4407 22.5431 5.53228 21.5387 4.03126 20.058C2.53025 18.5772 1.50406 16.6867 1.08247 14.6254C0.660871 12.564 0.862808 10.4246 1.66274 8.47752C2.46267 6.53045 3.82467 4.86324 5.57649 3.68672C7.32832 2.51019 9.39129 1.8772 11.5045 1.86778C14.3381 1.85537 17.0605 2.9638 19.0732 4.94927C21.0858 6.93475 22.2238 9.63468 22.2369 12.4553Z" fill="#FDFDFD"/>
<path d="M16.9671 8.69789C16.1919 8.47456 15.3882 8.15789 14.5745 7.83789C14.5276 7.63456 14.3468 7.38123 13.981 7.07206C13.4494 6.61289 12.4506 6.62456 11.5875 6.82789C10.6348 6.60456 9.69388 6.52539 8.79058 6.74456C1.40264 8.77039 5.59179 13.7129 2.87939 18.6812C3.26533 19.4962 7.42517 24.2512 13.4444 22.9754C13.4444 22.9754 11.3858 18.0512 16.0312 15.6879C19.7992 13.7637 22.5217 10.2037 16.9671 8.69789Z" fill="#D5D5D5"/>
<path d="M17.8839 11.9336C17.8844 12.0217 17.8586 12.1081 17.8099 12.1817C17.7611 12.2553 17.6914 12.3128 17.6098 12.347C17.5282 12.3812 17.4382 12.3905 17.3512 12.3738C17.2642 12.3571 17.1842 12.3151 17.1212 12.2531C17.0582 12.1911 17.0152 12.1119 16.9974 12.0255C16.9796 11.9391 16.988 11.8494 17.0214 11.7678C17.0548 11.6861 17.1119 11.6162 17.1852 11.5668C17.2586 11.5174 17.345 11.4907 17.4336 11.4902C17.5523 11.4898 17.6663 11.5362 17.7507 11.6193C17.8352 11.7024 17.883 11.8154 17.8839 11.9336Z" fill="#1F2226"/>
<path d="M11.5905 6.82754C12.1287 6.86588 14.0749 7.49421 14.5771 7.83754C14.1586 6.62921 12.7498 6.46838 11.5905 6.82754Z" fill="#959595"/>
<path d="M12.1005 9.88201C12.1007 10.2888 11.9796 10.6865 11.7527 11.0249C11.5258 11.3632 11.2032 11.6269 10.8258 11.7827C10.4483 11.9385 10.0329 11.9794 9.6321 11.9001C9.23131 11.8208 8.86313 11.625 8.57413 11.3374C8.28513 11.0498 8.08829 10.6834 8.00851 10.2844C7.92873 9.8854 7.96959 9.47184 8.12593 9.09598C8.28226 8.72012 8.54705 8.39887 8.8868 8.17284C9.22655 7.94681 9.62599 7.82617 10.0346 7.82617C10.3059 7.82606 10.5745 7.87916 10.8251 7.98242C11.0758 8.08569 11.3035 8.2371 11.4954 8.42802C11.6872 8.61893 11.8394 8.8456 11.9432 9.09508C12.047 9.34456 12.1005 9.61196 12.1005 9.88201Z" fill="#1F2226"/>
<path d="M11.4922 9.90174C11.4922 10.1879 11.407 10.4676 11.2473 10.7055C11.0876 10.9434 10.8607 11.1288 10.5952 11.2383C10.3296 11.3478 10.0375 11.3764 9.75558 11.3206C9.4737 11.2648 9.21478 11.127 9.01155 10.9247C8.80833 10.7224 8.66993 10.4646 8.61386 10.184C8.55779 9.90335 8.58657 9.61247 8.69655 9.34813C8.80654 9.08378 8.99279 8.85785 9.23175 8.69889C9.47072 8.53992 9.75167 8.45508 10.0391 8.45508C10.4245 8.45508 10.7941 8.60749 11.0666 8.8788C11.3391 9.1501 11.4922 9.51806 11.4922 9.90174Z" fill="#1F2226"/>
<path d="M19.5547 12.8397C17.8804 14.0139 15.9767 14.9047 13.276 14.9047C12.0119 14.9047 11.7557 13.5714 10.9202 14.223C10.4891 14.5614 8.96879 15.318 7.76244 15.2605C6.55609 15.203 4.60049 14.4989 4.0555 11.9355C3.83951 14.4989 3.729 16.3872 2.76208 18.5514C4.68755 21.6205 9.27854 23.988 13.4459 22.968C12.998 19.8555 15.7305 16.8072 17.2701 15.2472C17.8561 14.6564 18.9695 13.6922 19.5547 12.838V12.8397Z" fill="#D5D5D5"/>
<path d="M19.4892 12.9184C18.9694 13.3901 18.3508 13.7392 17.7213 14.0476C17.0842 14.3488 16.42 14.5895 15.7375 14.7667C15.0544 14.9426 14.3421 15.0751 13.6206 15.0101C12.899 14.9451 12.1616 14.7009 11.6836 14.1626L11.7062 14.1367C12.2921 14.5151 12.9685 14.6484 13.6415 14.6676C14.3236 14.6882 15.006 14.6323 15.6755 14.5009C16.3519 14.3599 17.0136 14.1563 17.6518 13.8926C18.2905 13.6301 18.9225 13.3259 19.4666 12.8926L19.4892 12.9184Z" fill="#1F2226"/>
</g>
</svg>
