<svg width="116" height="25" viewBox="0 0 116 25" fill="none" xmlns="http://www.w3.org/2000/svg">
<path opacity="0.5" fill-rule="evenodd" clip-rule="evenodd" d="M17.0885 14.4512C16.7406 14.6717 16.3309 14.699 16.0196 14.5229C15.624 14.299 15.4066 13.7746 15.4066 13.0454V10.8634C15.4066 9.80976 14.9911 9.06 14.2963 8.85756C13.119 8.51366 12.2335 9.95805 11.9007 10.5005L9.82426 13.8761V9.75024C9.80091 8.80098 9.49343 8.23317 8.9096 8.06195C8.52331 7.94878 7.94533 7.99415 7.38388 8.85561L2.7318 16.3454C2.109 15.1599 1.78433 13.8399 1.78601 12.5C1.78601 7.98829 5.39208 4.31805 9.82426 4.31805C14.2564 4.31805 17.862 7.98829 17.862 12.5C17.862 12.5078 17.864 12.5146 17.8645 12.522C17.8645 12.5298 17.863 12.5366 17.8635 12.5444C17.9053 13.418 17.6231 14.1132 17.0885 14.4517V14.4512ZM19.648 12.5005V12.5V12.4776L19.6475 12.4551C19.6227 6.96049 15.2261 2.5 9.82377 2.5C4.40737 2.5 0 6.98585 0 12.5C0 18.0137 4.40737 22.5 9.82426 22.5C12.3099 22.5 14.6821 21.5527 16.5032 19.8332C16.8651 19.4917 16.8866 18.9166 16.5509 18.5488C16.4718 18.4614 16.3762 18.3907 16.2696 18.3409C16.163 18.2911 16.0476 18.263 15.9301 18.2585C15.8125 18.254 15.6953 18.273 15.5852 18.3144C15.4751 18.3559 15.3743 18.419 15.2888 18.5C13.8128 19.9015 11.8571 20.6823 9.82426 20.682C7.45102 20.682 5.3157 19.6288 3.84301 17.9585L8.03825 11.2044V14.318C8.03825 15.8137 8.61672 16.2971 9.10178 16.4385C9.58732 16.58 10.3293 16.4834 11.1082 15.2151L13.4157 11.4644C13.4897 11.3434 13.5578 11.239 13.6201 11.1488V13.0454C13.6201 14.4434 14.1786 15.5615 15.1521 16.1122C16.0298 16.6088 17.1332 16.5639 18.0323 15.9951C19.1221 15.3049 19.7093 14.0332 19.648 12.5005V12.5005ZM33.3255 9.0839C33.5615 9.2278 33.7658 9.5478 33.7658 9.8361C33.7658 10.3 33.3727 10.6839 32.9324 10.6839C32.8225 10.6839 32.7125 10.6522 32.6181 10.62C32.099 10.2361 31.4388 9.98 30.747 9.98C29.1123 9.98 27.9801 11.3239 27.9801 12.9878C27.9801 14.6522 29.1123 15.98 30.747 15.98C31.5643 15.98 32.2878 15.6439 32.838 15.1322C32.9802 15.0297 33.1504 14.9739 33.3255 14.9722C33.7658 14.9722 34.1117 15.3239 34.1117 15.7722C34.1117 16.06 33.9385 16.3161 33.7186 16.46C32.9324 17.1322 31.8635 17.58 30.763 17.58C28.2477 17.58 26.2034 15.5 26.2034 12.94C26.2034 10.38 28.2472 8.3 30.763 8.3C31.7064 8.3 32.6021 8.5878 33.3255 9.0839V9.0839ZM37.9251 11.02C39.6386 11.02 41.085 12.4761 41.085 14.2678C41.085 16.06 39.6386 17.58 37.9251 17.58C36.1327 17.58 34.6391 16.06 34.6391 14.2678C34.6391 12.4761 36.1327 11.02 37.9251 11.02ZM37.909 15.98C38.6641 15.98 39.3082 15.26 39.3082 14.2839C39.3082 13.3083 38.6641 12.7 37.909 12.7C37.0916 12.7 36.4154 13.2922 36.4154 14.2839C36.4154 15.26 37.0916 15.98 37.909 15.98ZM42.1626 16.5878V12.0122C42.1626 11.5161 42.5557 11.1 43.0432 11.1C43.5307 11.1 43.9394 11.5161 43.9394 12.0122V16.5878C43.9394 17.0839 43.5307 17.5 43.0432 17.5C42.5557 17.5 42.1626 17.0839 42.1626 16.5878V16.5878ZM42.0215 9.3722C42.0215 8.78 42.4769 8.3 43.0432 8.3C43.6246 8.3 44.0965 8.78 44.0965 9.3722C44.0965 9.94781 43.6246 10.4122 43.0432 10.4122C42.4769 10.4122 42.0215 9.94781 42.0215 9.3722ZM47.344 14.1078V16.5878C47.344 17.0839 46.9354 17.5 46.4474 17.5C45.9604 17.5 45.5668 17.0839 45.5668 16.5878V11.8039C45.5668 11.42 45.8816 11.1 46.2591 11.1C46.6362 11.1 46.9354 11.42 46.9354 11.8039C47.6583 11.1322 48.2869 11.02 48.8844 11.02C50.6611 11.02 51.4473 12.3639 51.4473 13.8839V16.5878C51.4473 17.0839 51.0387 17.5 50.5512 17.5C50.0637 17.5 49.6706 17.0839 49.6706 16.5878V14.1078C49.6706 13.3239 49.5762 12.6678 48.4601 12.6678C47.6739 12.6678 47.3436 13.3239 47.3436 14.1078H47.344ZM57.2257 15.0522C57.0214 15.0522 56.8803 14.9561 56.7698 14.8278L54.6944 12.5722V16.5878C54.6944 17.0839 54.2857 17.5 53.7982 17.5C53.3107 17.5 52.9176 17.0839 52.9176 16.5878V8.63659C52.943 8.5696 52.9884 8.51211 53.0476 8.47195C53.1068 8.43179 53.177 8.41092 53.2484 8.4122C53.4051 8.4122 53.5306 8.54049 53.6255 8.63659L56.927 12.3644C57.0214 12.4766 57.1469 12.5405 57.2101 12.5405C57.2729 12.5405 57.3984 12.4766 57.4928 12.3649L60.7948 8.63659C60.8892 8.54049 61.0147 8.4122 61.1719 8.4122C61.329 8.4122 61.455 8.50829 61.5022 8.63659V16.5878C61.5022 17.0839 61.1091 17.5 60.6216 17.5C60.1341 17.5 59.7254 17.0839 59.7254 16.5878V12.5722L57.6504 14.8278C57.54 14.9561 57.3984 15.0522 57.2257 15.0522V15.0522ZM65.7714 15.98C66.5732 15.98 67.249 15.26 67.249 14.2839C67.249 13.3083 66.5576 12.6678 65.7714 12.6678C64.9852 12.6678 64.3561 13.3239 64.3561 14.2839C64.3561 15.2278 64.9852 15.98 65.7714 15.98ZM67.6581 16.7961L67.626 16.5878C67.2806 17.2756 66.1796 17.58 65.4722 17.58C63.8054 17.58 62.5793 16.06 62.5793 14.2678C62.5793 12.4761 63.837 11.02 65.5666 11.02C65.8653 11.02 66.8558 11.1 67.626 12.0122L67.6576 11.8039C67.6576 11.42 67.9563 11.1 68.3339 11.1C68.7109 11.1 69.0252 11.42 69.0252 11.8039V16.7961C69.0252 17.18 68.7109 17.5 68.3334 17.5C67.9563 17.5 67.6571 17.18 67.6571 16.7961H67.6581ZM73.9551 12.6678H73.7668C72.6503 12.7322 72.4304 13.3722 72.4304 14.1078V16.5878C72.4304 17.0839 72.0217 17.5 71.5342 17.5C71.0467 17.5 70.6536 17.0839 70.6536 16.5878V11.8039C70.6536 11.42 70.9679 11.1 71.3454 11.1C71.723 11.1 72.0217 11.42 72.0217 11.8039C72.6819 11.18 73.2166 11.0522 73.7668 11.02H73.9395C74.3643 11.02 74.7569 11.3878 74.7569 11.8522C74.7569 12.2839 74.3798 12.6678 73.9551 12.6678V12.6678ZM80.8029 16.1722C80.8817 16.3 80.9289 16.4439 80.9289 16.6039C80.9289 17.0678 80.5041 17.5 80.0483 17.5C79.734 17.5 79.4664 17.26 79.2621 17.0039L77.2187 14.62V16.5878C77.2187 17.0839 76.8095 17.5 76.322 17.5C75.8345 17.5 75.4414 17.0839 75.4414 16.5878V9.32439C75.4414 8.8278 75.8345 8.4122 76.322 8.4122C76.8095 8.4122 77.2182 8.8278 77.2182 9.32439V13.8522L79.2621 11.58C79.4664 11.34 79.7179 11.1 80.0327 11.1C80.473 11.1 80.8817 11.5161 80.8817 11.98C80.8817 12.1239 80.85 12.2678 80.7712 12.3961L79.1521 14.1717L80.8029 16.1717V16.1722ZM84.2863 12.7C83.7988 12.7 83.0126 12.9561 83.0126 13.7078H85.5751C85.5751 12.94 84.7578 12.7 84.2858 12.7H84.2863ZM86.6129 14.8439H83.0126C83.0126 15.9161 84.0343 16.0761 84.4902 16.0761C84.821 16.0761 85.2924 16.0122 85.6539 15.8517C85.7639 15.7722 85.9526 15.7078 86.1098 15.7078C86.5029 15.7078 86.8328 16.0444 86.8328 16.4444C86.8328 16.7161 86.66 16.9561 86.4401 17.0839C85.8899 17.4839 85.182 17.58 84.5062 17.58C82.7139 17.58 81.2203 16.6044 81.2203 14.3478C81.2203 12.5722 82.132 11.02 84.2547 11.02C85.9682 11.02 87.2731 12.14 87.3047 14.14C87.3047 14.5239 86.9904 14.8439 86.6129 14.8439V14.8439ZM91.5583 17.58H91.0708C89.7183 17.58 88.9326 16.9878 88.9326 14.86V12.6678H88.4767C88.052 12.6678 87.6749 12.2839 87.6749 11.8522C87.6749 11.3878 88.052 11.02 88.4767 11.02H88.9326V9.3239C88.9326 8.82781 89.3257 8.41171 89.8132 8.41171C90.3002 8.41171 90.7093 8.82781 90.7093 9.3239V11.02H91.4479C91.8726 11.02 92.2501 11.3878 92.2501 11.8522C92.2501 12.2839 91.8726 12.6678 91.4479 12.6678H90.7093V14.5078C90.7093 15.7239 90.7721 15.98 91.3068 15.98H91.5583C91.9825 15.98 92.344 16.3322 92.344 16.78C92.344 17.2122 91.9825 17.58 91.5583 17.58ZM100.167 9.0839C100.402 9.2278 100.607 9.5478 100.607 9.8361C100.607 10.3 100.214 10.6839 99.7736 10.6839C99.6637 10.6839 99.5533 10.6522 99.4594 10.62C98.9402 10.2361 98.28 9.98 97.5882 9.98C95.9535 9.98 94.8209 11.3239 94.8209 12.9878C94.8209 14.6522 95.953 15.98 97.5882 15.98C98.4056 15.98 99.129 15.6439 99.6793 15.1322C99.8214 15.0297 99.9917 14.9739 100.167 14.9722C100.607 14.9722 100.952 15.3239 100.952 15.7722C100.952 16.06 100.78 16.3161 100.56 16.46C99.7736 17.1322 98.7043 17.58 97.6038 17.58C95.0885 17.58 93.0446 15.5 93.0446 12.94C93.0446 10.38 95.088 8.3 97.6038 8.3C98.5476 8.3 99.4433 8.5878 100.167 9.0839V9.0839ZM104.672 15.98C105.474 15.98 106.149 15.26 106.149 14.2839C106.149 13.3083 105.458 12.6678 104.671 12.6678C103.886 12.6678 103.257 13.3239 103.257 14.2839C103.257 15.2278 103.886 15.98 104.671 15.98H104.672ZM106.558 16.7961L106.527 16.5878C106.181 17.2756 105.081 17.58 104.373 17.58C102.706 17.58 101.48 16.06 101.48 14.2678C101.48 12.4761 102.738 11.02 104.467 11.02C104.766 11.02 105.756 11.1 106.527 12.0122L106.558 11.8039C106.558 11.42 106.857 11.1 107.234 11.1C107.611 11.1 107.926 11.42 107.926 11.8039V16.7961C107.926 17.18 107.611 17.5 107.234 17.5C106.857 17.5 106.558 17.18 106.558 16.7961ZM112.808 15.98C113.595 15.98 114.223 15.2278 114.223 14.2839C114.223 13.3239 113.595 12.6678 112.808 12.6678C112.022 12.6678 111.33 13.3078 111.33 14.2839C111.33 15.26 112.007 15.98 112.808 15.98ZM111.33 17.0522V19.3239C111.33 19.82 110.922 20.2361 110.434 20.2361C109.947 20.2361 109.554 19.82 109.554 19.3239V11.8039C109.554 11.42 109.868 11.1 110.246 11.1C110.623 11.1 110.922 11.42 110.922 11.8678C111.582 11.18 112.4 11.02 113.013 11.02C114.742 11.02 116 12.4761 116 14.2678C116 16.06 114.774 17.58 113.107 17.58C112.589 17.58 111.818 17.42 111.33 17.0522V17.0522Z" fill="#1F2226"/>
</svg>
