<svg width="167" height="27" viewBox="0 0 167 27" fill="none" xmlns="http://www.w3.org/2000/svg">
  <path
    d="M121.657 6.34766C117.034 6.34766 113.548 9.43207 113.548 14.1304C113.548 18.8288 117.034 21.9132 121.657 21.9132C126.281 21.9132 129.766 18.8288 129.766 14.1304C129.766 9.43207 126.281 6.34766 121.657 6.34766ZM121.657 18.9991C118.713 18.9722 116.817 17.179 116.817 14.1304C116.817 11.0819 118.759 9.29757 121.657 9.26171C124.547 9.29757 126.497 11.0819 126.497 14.1304C126.497 17.179 124.61 18.9633 121.657 18.9991Z"
    fill="#356DF3" />
  <path
    d="M139.455 9.27067C141.776 9.29757 143.338 10.4542 143.862 12.4806H147.266C146.58 8.72373 143.51 6.34766 139.455 6.34766C134.832 6.34766 131.346 9.43207 131.346 14.1304C131.346 18.8288 134.832 21.9132 139.455 21.9132C143.293 21.9132 146.246 19.7882 147.14 16.372H143.681C143.031 18.0308 141.586 18.9722 139.455 18.9902C136.511 18.9633 134.615 17.17 134.615 14.1215C134.615 11.0729 136.557 9.28861 139.455 9.25274V9.27067Z"
    fill="#356DF3" />
  <path
    d="M157.262 12.8931C154.68 12.122 152.621 11.6557 152.621 10.6694C152.621 10.0238 153.515 9.18101 155.989 9.18101C158.86 9.18101 160.161 10.8936 160.179 12.3461H163.384C163.384 8.84926 160.486 6.34766 155.926 6.34766C151.366 6.34766 149.533 8.49061 149.397 10.3646C149.262 12.3372 150.129 13.8345 154.508 15.0181C159.176 16.2913 160.043 16.7576 160.043 17.5556C160.043 18.237 159.149 19.1605 156.287 19.0978C153.605 19.035 152.35 17.3942 152.251 16.381H148.964C148.964 19.035 151.736 21.9042 156.323 21.9042C160.549 21.9042 163.439 20.2096 163.439 17.448C163.439 15.4664 162.138 14.3456 157.262 12.902V12.8931Z"
    fill="#356DF3" />
  <path
    d="M108.103 8.76018C107.643 8.1146 107.11 7.61249 106.478 7.2359C105.376 6.67999 104.13 6.3572 102.812 6.3572C98.4233 6.3572 94.8656 9.83614 94.8656 14.131C94.8656 17.3678 96.8883 20.1474 99.7778 21.322C100.717 21.6986 101.746 21.9138 102.821 21.9138C103.498 21.9138 104.157 21.8331 104.78 21.6717C104.798 21.6717 104.817 21.6717 104.835 21.6537C104.898 21.6358 104.961 21.6179 105.024 21.5999C105.304 21.5192 105.557 21.4206 105.81 21.313C106.902 20.8288 107.688 20.1115 108.112 19.2956V21.4565H111.833V2.46582H108.112V8.74224L108.103 8.76018ZM103.453 18.8832C100.554 18.8832 98.6762 16.9375 98.6762 14.14C98.6762 11.1631 100.5 9.39678 103.453 9.39678C106.054 9.39678 108.23 11.1094 108.23 14.14C108.23 17.1706 105.981 18.8832 103.453 18.8832Z"
    fill="#356DF3" />
  <path fill-rule="evenodd" clip-rule="evenodd"
    d="M13.8609 0.821435L21.9968 5.11543C23.2429 5.86104 24.4168 6.73241 24.471 9.29264V11.3498H21.2744V8.53804L12.2716 3.73201L3.20561 8.53804V11.3498H0.00902989V9.29264C0.0541793 6.75038 1.21903 5.87002 2.45613 5.1334L10.6733 0.821435C11.6756 0.300407 12.8586 0.300407 13.8609 0.821435ZM13.8609 21.8602L21.2564 17.7369V14.6646H24.4529V16.7128C24.4078 19.273 23.2339 20.1444 21.9787 20.89L13.8518 25.184C12.8586 25.714 11.6666 25.714 10.6643 25.184L2.4471 20.872C1.21 20.1354 0.0541793 19.2551 0 16.7128V14.6646H3.21464V17.7369L10.6824 21.8602V18.5274C8.08175 17.9166 6.36607 15.8145 6.36607 12.9937C6.36607 9.5801 8.74093 7.28039 12.2716 7.28039C15.8023 7.28039 18.1772 9.57112 18.1772 12.9937C18.1772 15.8145 16.4615 17.9166 13.8609 18.5274V21.8512V21.8602ZM12.2626 10.1011C10.3663 10.1011 9.32787 11.1342 9.32787 13.0027C9.32787 14.8712 10.4205 15.9043 12.2626 15.9043C14.1047 15.9043 15.1973 14.8173 15.1973 13.0027C15.1973 11.1881 14.1498 10.1011 12.2626 10.1011Z"
    fill="#356DF3" />
  <path
    d="M37.416 6.17969C38.7434 6.17969 39.9948 6.50071 41.0986 7.06738C41.7332 7.45115 42.274 7.96039 42.7344 8.60742V6.56836H46.4756V21.4424H42.7344V19.2559C42.3052 20.0813 41.5236 20.8134 40.4199 21.2998C40.1741 21.4114 39.91 21.5051 39.6328 21.5898C39.5703 21.6077 39.5075 21.6258 39.4404 21.6436C39.4227 21.648 39.4046 21.6528 39.3867 21.6572C38.7566 21.8134 38.0952 21.8984 37.416 21.8984C36.3345 21.8984 35.3023 21.6835 34.3594 21.2998C31.4632 20.1216 29.4249 17.3147 29.4248 14.0391C29.4248 9.70108 33.0047 6.17972 37.416 6.17969ZM57.5732 6.19336C61.6851 6.19336 63.3743 8.8847 63.3789 12.5664V21.4521H59.6963V13.6777C59.6963 11.8883 59.4864 10.6875 58.6953 9.98242C58.5479 9.86201 58.3871 9.75048 58.2129 9.65234C57.6855 9.37564 56.9742 9.22363 56.04 9.19238C55.9062 9.18793 55.7678 9.1836 55.625 9.18359H52.8447V21.4482H49.1035V6.57324H52.8447V8.16211C52.9744 8.01929 54.7486 6.1934 57.5732 6.19336ZM69.5332 12.459L75.2725 6.58594H79.7373L73.7256 12.7227L80.5596 21.4473H76.4258L71.4287 15.0654L69.5332 17.0029V21.4473H65.8506V3.68945H69.5332V12.459ZM92.4395 9.4873L85.6416 9.51367V21.4473H81.9004V6.57324H85.6416V8.33984C86.3389 7.64361 88.2118 6.19827 91.7471 6.19824H92.4268L92.4395 9.4873ZM38.0645 9.25C35.0968 9.25 33.2638 11.0395 33.2637 14.043C33.2637 16.8724 35.1502 18.8369 38.0645 18.8369C40.6029 18.8368 42.8643 17.0374 42.8643 14.043C42.8641 10.9861 40.6789 9.25011 38.0645 9.25Z"
    fill="#356DF3" />
</svg>
