<svg width="184" height="32" viewBox="0 0 465 71" fill="none" xmlns="http://www.w3.org/2000/svg">
<path clip-rule="evenodd" d="M174.64 11.4392H176.64V20.6392L157.64 20.7092V54.0792H147.18V12.5192H157.64V17.4392C159.54 15.4392 164.78 11.4392 174.64 11.4392ZM141.11 12.5192H128.64L112.64 28.9392V4.4192H102.36V54.0792H112.64V41.6492L117.89 36.2292L131.89 54.0792H143.43L124.35 29.6792L141.11 12.5192ZM37.8299 12.5192H48.2699V54.1192H37.8299V47.9692C36.3862 50.5537 34.1038 52.5681 31.3599 53.6792C30.6457 53.9874 29.9145 54.2545 29.1699 54.4792L28.6299 54.6392H28.4799C23.8244 55.789 18.9247 55.4391 14.4799 53.6392C9.72514 51.7237 5.78854 48.208 3.34987 43.6992C0.919297 39.1858 0.141174 33.9653 1.14987 28.9392C2.17176 23.9148 4.91649 19.4051 8.90987 16.1892C12.8984 12.9832 17.8833 11.2744 22.9999 11.3592C26.5813 11.3469 30.1135 12.1939 33.2999 13.8292C35.107 14.9274 36.6638 16.3923 37.8699 18.1292L37.8299 12.5192ZM38.1899 33.3892C38.1899 24.8392 32.0899 20.0092 24.7899 20.0092C16.4999 20.0092 11.3899 25.0092 11.3899 33.4092C11.3899 41.3292 16.6499 46.8192 24.7899 46.8192C31.8699 46.7792 38.1799 41.7492 38.1899 33.3892ZM79.2499 11.3892C74.2799 11.4286 69.5233 13.4138 65.9999 16.9192V12.5192H55.6399V54.0792H65.9999V19.7792H74.9999C77.068 19.7436 79.118 20.1707 80.9999 21.0292C81.4792 21.2904 81.9314 21.5986 82.3499 21.9492C84.5599 23.9492 85.1399 27.2792 85.1399 32.2892V54.0392H95.4299V29.2392C95.4499 18.9492 90.7299 11.4192 79.2499 11.4192V11.3892ZM285.68 33.3692C285.68 46.6592 275.89 55.3692 262.92 55.3692C249.95 55.3692 240.16 46.6692 240.16 33.3692C240.16 20.0692 249.92 11.3692 262.92 11.3692C275.92 11.3692 285.68 20.0792 285.68 33.3692ZM276.49 33.3692C276.49 24.7692 271.04 19.7092 262.92 19.6192C254.81 19.7092 249.36 24.7692 249.36 33.3692C249.36 41.9692 254.68 47.0292 262.94 47.0992C271.22 47.0292 276.51 41.9592 276.51 33.3592L276.49 33.3692ZM312.83 19.6192C319.34 19.6992 323.72 22.9692 325.19 28.6992H334.75C332.81 18.0792 324.22 11.3792 312.83 11.3792C299.83 11.3792 290.07 20.0792 290.07 33.3792C290.07 46.6792 299.86 55.3792 312.83 55.3792C323.61 55.3792 331.88 49.3792 334.38 39.7292H324.68C322.87 44.4192 318.79 47.0692 312.83 47.1292C304.56 47.0192 299.3 41.9692 299.3 33.3692C299.3 24.7692 304.74 19.6992 312.85 19.6092L312.83 19.6192ZM362.83 29.8592C355.58 27.6892 349.83 26.3692 349.83 23.5692C349.83 21.7492 352.32 19.3592 359.27 19.3592C367.33 19.3592 370.99 24.1892 371.03 28.2992H380.03C380.03 18.4592 371.9 11.3992 359.12 11.3992C346.51 11.3992 341.18 17.3992 340.81 22.7292C340.41 28.3092 342.86 32.5292 355.15 35.8892C368.23 39.4692 370.68 40.8092 370.68 43.0292C370.68 44.9592 368.18 47.5592 360.14 47.3792C352.63 47.2092 349.09 42.5692 348.83 39.7092H339.6C339.6 47.2192 347.37 55.3092 360.25 55.3092C372.11 55.3092 380.25 50.5192 380.25 42.7092C380.14 37.1092 376.48 33.9392 362.82 29.8492L362.83 29.8592ZM224.91 0.429199H235.32V54.1192H224.87V48.0292C223.426 50.6137 221.144 52.6281 218.4 53.7392C217.685 54.0474 216.954 54.3145 216.21 54.5392L215.67 54.6992H215.52C210.864 55.849 205.964 55.4991 201.52 53.6992C196.765 51.7837 192.828 48.268 190.39 43.7592C187.966 39.2543 187.188 34.0456 188.19 29.0292C189.212 24.0048 191.956 19.4951 195.95 16.2792C199.943 13.0687 204.936 11.3597 210.06 11.4492C213.634 11.4401 217.159 12.287 220.34 13.9192C222.149 15.0143 223.706 16.4797 224.91 18.2192V0.429199ZM225.31 33.3692C225.31 24.8092 219.21 19.9692 211.91 19.9692C203.62 19.9692 198.51 24.9692 198.51 33.3692C198.51 41.2792 203.77 46.7692 211.89 46.7792C218.97 46.7692 225.32 41.7392 225.31 33.3692Z" fill="currentColor" fill-rule="evenodd"/>
</svg>