<svg width="292" height="320" viewBox="0 0 292 320" fill="none" xmlns="http://www.w3.org/2000/svg">
<g clip-path="url(#clip0_248_110)">
<path fill-rule="evenodd" clip-rule="evenodd" d="M165.76 8.08035L267.284 60.1033C282.066 67.6816 291.25 82.6958 291.25 99.2874V123.008H253.815V99.2874C253.815 96.7823 252.423 94.5103 250.188 93.3638L148.67 41.3436C146.768 40.3709 144.492 40.3677 142.583 41.3469L41.0591 93.3638C38.8261 94.5103 37.4379 96.7823 37.4379 99.2874V123.008H-0.000976562V99.2874C-0.000976562 82.6958 9.18313 67.6816 23.9626 60.1033L125.493 8.08035C138.098 1.61384 153.146 1.61384 165.76 8.08035ZM177.658 156.597C177.658 138.948 163.282 124.597 145.613 124.597C127.944 124.597 113.569 138.948 113.569 156.597C113.569 174.238 127.944 188.596 145.613 188.596C163.282 188.596 177.658 174.238 177.658 156.597ZM250.195 222.993C252.424 221.848 253.816 219.58 253.816 217.072V193.349H291.251V217.072C291.251 233.664 282.067 248.678 267.292 256.253L165.761 308.276C159.577 311.443 152.613 313.123 145.626 313.123C138.642 313.123 131.675 311.443 125.49 308.276L23.9667 256.253C9.18405 248.678 -7.17048e-05 233.664 -7.17048e-05 217.072V193.349H37.4355V217.072C37.4355 219.58 38.827 221.848 41.0632 222.993L126.909 266.982V223.4C97.6632 215.217 76.1429 188.375 76.1429 156.596C76.1429 118.336 107.314 87.2087 145.626 87.2087C183.938 87.2087 215.109 118.336 215.109 156.596C215.109 188.375 193.588 215.217 164.344 223.4V266.985L250.195 222.993Z" fill="black"/>
</g>
<defs>
<clipPath id="clip0_248_110">
<rect width="291.257" height="320" fill="white"/>
</clipPath>
</defs>
</svg>
